<?xml version="1.0" encoding="utf-8"?>
<!-- Generator: Adobe Illustrator 22.1.0, SVG Export Plug-In . SVG Version: 6.00 Build 0)  -->
<svg version="1.1" id="Layer_1" xmlns="http://www.w3.org/2000/svg" xmlns:xlink="http://www.w3.org/1999/xlink" x="0px" y="0px"
	 viewBox="0 0 271.1 109" style="enable-background:new 0 0 271.1 109;" xml:space="preserve">
<style type="text/css">
	.st0{fill:#4D2A18;}
</style>
<title>chateau lanovelle logo</title>
<path class="st0" d="M135.2,38.4c-8.7,0-15.8-8.6-15.8-19.2S126.4,0,135.2,0S151,8.6,151,19.2S143.9,38.4,135.2,38.4z M135.2,0.7
	C126.8,0.7,120,9,120,19.2s6.8,18.5,15.1,18.5s15.1-8.3,15.1-18.5S143.5,0.7,135.2,0.7z"/>
<path class="st0" d="M135.2,35.9c-7.3,0-13.3-7.5-13.3-16.7s6-16.7,13.3-16.7s13.3,7.5,13.3,16.7S142.5,35.9,135.2,35.9z M135.2,2.8
	c-7.1,0-12.9,7.3-12.9,16.3s5.8,16.3,12.9,16.3s12.9-7.3,12.9-16.3S142.3,2.8,135.2,2.8z"/>
<g>
	<path class="st0" d="M138.3,29.7c0-0.1,0-0.2,0-0.3c0,0.1,0,0.3,0,0.4c0,0.1,0,0.1,0,0.1C138.3,29.9,138.3,29.8,138.3,29.7z"/>
	<path class="st0" d="M138.4,30.2c0,0,0,0.1,0,0.1c0,0.1,0,0.2,0.1,0.2C138.5,30.5,138.5,30.3,138.4,30.2z"/>
	<path class="st0" d="M135.1,9.9c0.1,0,0.3,0,0.4,0c0.1,0,0.1,0,0.1-0.1V9.8c-0.2,0-0.3,0-0.5,0c-0.1,0-0.2,0-0.3,0.1h0
		c0,0-0.1,0.1-0.1,0.2h0.2C135,10,135,9.9,135.1,9.9z"/>
	<path class="st0" d="M137.9,18.1l-0.2,0.9h0.2c0-0.3,0.1-0.5,0.1-0.8h0c0-0.1-0.1-0.1-0.1-0.1H137.9z"/>
	<path class="st0" d="M128.1,12.1l0.4-0.4c-0.2,0.1-0.4,0.3-0.6,0.5c0,0,0,0.1,0,0.1c0,0,0.1,0,0.1,0
		C128,12.2,128.1,12.1,128.1,12.1z"/>
	<path class="st0" d="M138.2,19.4C138.2,19.4,138.2,19.4,138.2,19.4c0-0.3,0-0.6,0.1-0.9c0-0.1,0-0.1,0.1-0.2c0,0-0.1-0.1-0.1-0.1
		C138.1,18.6,138.1,19,138.2,19.4z"/>
	<path class="st0" d="M135.5,18.6L135.5,18.6c-0.2,0.4-0.6,0.7-0.5,1.3l0.1-0.2c0-0.1,0.1-0.3,0.2-0.4l0.2-0.4
		C135.4,18.8,135.5,18.6,135.5,18.6z"/>
	<path class="st0" d="M132.4,18.3c-0.1-0.1-0.2-0.1-0.3,0c-0.1,0.1-0.1,0.1-0.2,0.2l-0.4,0.4l0.1,0.5
		C131.7,18.9,132.1,18.6,132.4,18.3z"/>
	<path class="st0" d="M133.4,22.4c-0.3,0.4-0.4,0.9-0.4,1.4c0-0.1,0.1-0.2,0.1-0.3C133.2,23.1,133.3,22.8,133.4,22.4
		c0.1,0.1,0.1,0.1,0.1,0.1C133.5,22.4,133.5,22.4,133.4,22.4L133.4,22.4z"/>
	<path class="st0" d="M133.3,22C133.3,22,133.3,22,133.3,22L133.3,22C133.3,22,133.3,22,133.3,22z"/>
	<path class="st0" d="M132.6,9.6c0,0,0.1-0.1,0.1-0.1c-0.4,0.1-0.7,0.4-1,0.6l0.2,0.1c0,0,0-0.1,0.1-0.2
		C132.2,10,132.4,9.8,132.6,9.6z"/>
	<path class="st0" d="M131.9,10.3c0,0.1,0,0.1,0.2,0.2c0,0,0,0,0,0c0,0,0,0,0,0L131.9,10.3z"/>
	<path class="st0" d="M135.2,28.3c0.1-0.5,0.3-1,0.4-1.5l-0.1-0.1c-0.1,0.3-0.3,0.7-0.4,1C135,27.9,135.1,28.1,135.2,28.3z"/>
	<path class="st0" d="M143.8,22c-0.2-0.2-0.6-0.4-0.5-0.8c0,0,0-0.1,0.1-0.1c0.1,0,0.2,0,0.3-0.1c0.3,0,0.6-0.2,0.8-0.4
		c0.5-0.5,0.6-1.1,0.4-1.8c-0.1-0.6-0.4-1.2-0.8-1.8c-0.2-0.3-0.5-0.4-0.8-0.4c-0.1,0-0.3,0-0.3-0.1c-0.3-0.3-0.6-0.6-1-0.8
		c-0.3-0.1-0.5-0.2-0.7-0.3c-0.4-0.3-0.8-0.6-1.1-1c-0.2-0.2-0.3-0.4-0.2-0.7c0-0.1,0-0.1,0-0.2c0.1-0.3,0.1-0.7,0.2-1
		c0.1-0.4,0.2-0.8,0.3-1.2c0.1-0.4,0.2-0.6,0.3-1c0,0,0-0.1,0-0.2s0-0.4,0-0.6s0-0.5,0-0.7c0-0.2-0.3-0.3-0.4-0.2
		C140.2,9,140.1,9,140,9c-0.2,0-0.3,0.1-0.4,0.2l-1,1.1c0.3,0.2,0.4,0.6,0.3,1h-0.7c0,0-0.1,0-0.1,0c-0.1-0.1-0.3-0.3-0.4-0.4
		c-0.1-0.1-0.1-0.2-0.2-0.3c-0.1-0.2-0.2-0.4-0.2-0.7c-0.1-0.4-0.1-0.9,0-1.3c0.1-0.2,0.1-0.4,0.1-0.6c0.1-0.5,0.3-1,0.7-1.4
		c0.3-0.4,0.8-0.6,1.3-0.6c0.3,0,0.8,0.4,0.9,0.7c0.1,0.5-0.2,1-0.6,1.3l-0.3,0.2c-0.3,0.2-0.7,0.2-0.8-0.2c0-0.1-0.1-0.3-0.1-0.4
		V7.4h-0.1c-0.1,0.1-0.1,0.2-0.2,0.3c-0.1,0.4,0,0.7,0.2,1c0,0.1,0.1,0.1,0.2,0.1c0.5,0.1,1.1,0,1.5-0.4c0.2-0.2,0.3-0.3,0.5-0.5
		c0.4-0.5,0.4-1.3,0-1.7c-0.2-0.2-0.4-0.3-0.7-0.5h-0.1c-0.2,0-0.4,0-0.6,0c-0.2,0-0.5,0.1-0.7,0.2c-0.2,0-0.4,0.1-0.6,0.3
		c-0.5,0.5-0.8,1-1,1.7c-0.2,0.5-0.2,1.1-0.2,1.6c0,0.5,0.1,1,0.3,1.4c0.1,0.3,0.2,0.5,0.3,0.8c-0.1,0.1-0.3,0.1-0.5,0.2
		c-0.1,0-0.3,0-0.4,0c-0.1,0-0.1-0.1-0.1-0.1c0-0.1,0-0.3,0-0.4c0.1-0.3,0.2-0.7,0.2-1.1c0-0.1-0.1-0.1-0.1-0.2
		c0-0.1-0.1-0.1-0.1-0.2c0-0.1,0.1-0.2,0.1-0.3c0.1-0.2,0-0.4-0.2-0.4L136,9c0-0.2,0-0.4,0-0.5c0-0.1,0-0.2-0.1-0.2
		c0,0-0.2,0-0.2,0.1s-0.2,0.2-0.3,0.3c0,0,0-0.1,0-0.1l-0.2-0.2l-0.2,0.2c0,0,0,0.1,0,0.1c0,0.2,0,0.4,0,0.5
		c-0.1-0.3-0.2-0.5-0.3-0.8c-0.1-0.2-0.1-0.3-0.4-0.2c-0.1-0.2-0.1-0.4-0.2-0.6c-0.1-0.2-0.1-0.2-0.2-0.2s-0.2,0.1-0.3,0.2l-0.1-0.1
		c-0.3-0.3-0.7-0.5-1.1-0.4c-0.1,0-0.1,0.1-0.2,0.2c0,0.1,0,0.2,0,0.2c0,0.2,0.1,0.5,0.2,0.7c-0.1,0-0.2-0.1-0.2-0.1
		c-0.1,0-0.2,0-0.2,0c0,0.1,0,0.1,0,0.2c0,0.1,0.1,0.2,0.2,0.3l0.2,0.4c0-0.2-0.1-0.4-0.3-0.6h0v0c0,0,0,0,0,0h0l0.2,0.1l0.2,0.1
		c0-0.1,0-0.1,0-0.2c0-0.2,0-0.4-0.1-0.6c0-0.1,0-0.1-0.1-0.2c0-0.1,0-0.2,0.1-0.2c0.2,0,0.4,0.1,0.5,0.2c0.2,0.1,0.3,0.3,0.5,0.4
		c0.1,0,0.1,0.1,0.2,0.1c0-0.1,0-0.1,0.1-0.2c0,0,0,0,0-0.1h0c0.1,0.2,0.2,0.4,0.2,0.7c0,0,0,0.1-0.1,0.1l-0.7,0.3
		c-0.1-0.1-0.1-0.3,0.1-0.3l0.4-0.2c-0.1-0.1-0.4,0-0.7,0.2c0-0.1-0.1-0.1-0.1-0.2c0,0-0.1-0.1-0.1-0.1c0,0.1,0,0.1,0,0.2
		c0,0,0,0.1,0,0.1c-0.1,0-0.2,0.1-0.3,0.1c0,0,0,0.1,0,0.1c0,0,0.1,0,0.1,0c0.1,0,0.1-0.1,0.2-0.1L133,9l0,0h0.1l0.1,0.1
		c0,0,0.1,0.1,0.1,0.1c-0.1,0.2,0.1,0.3,0.1,0.4c-0.2,0.1-0.4,0.2-0.6,0.4c-0.2,0.1-0.4,0.3-0.5,0.5c0.1,0.1,0.1,0.2,0.1,0.2
		c0,0.1,0.1,0.1,0.1,0.2c-0.6,0-1.1,0.3-1.6,0.6c0,0-0.2,0.1-0.2,0c0-0.1,0-0.2,0.1-0.2c0.2-0.1,0.3-0.2,0.5-0.3
		c0.1,0,0.1-0.1,0-0.2s-0.1-0.1-0.1-0.1l-0.2-0.4l0.6-0.2c-0.1-0.2-0.4-0.1-0.7,0.2l-0.4-0.3c0.2-0.1,0.4-0.1,0.6,0
		c0.1-0.1,0.1-0.2,0-0.3c-0.2-0.3-0.3-0.5-0.5-0.7v0.1c0-0.1-0.1-0.1,0-0.3c0.2,0,0.4,0.1,0.6,0.2c0.1,0.1,0.1,0.2,0.3,0.2
		s0.1-0.2,0.1-0.3c0,0,0,0,0-0.1c-0.1,0-0.1,0-0.2,0c-0.1,0-0.1,0-0.1,0.1c0,0.1,0,0.1,0,0.1c-0.3-0.2-0.6-0.4-1-0.3
		c-0.1,0-0.2,0-0.2,0c0.1,0.1,0.1,0.1,0.2,0.2c0.4,0.2,0.7,0.6,0.8,1c-0.2,0-0.5,0-0.7,0.2c-0.1,0.1-0.1,0.1,0,0.2
		c0.2,0.1,0.3,0.2,0.4,0.3c0.1,0.1,0.2,0.2,0.3,0.3c-0.1,0-0.1,0-0.2,0l-0.5-0.1c-0.3-0.1-0.5-0.1-0.8-0.1c-0.4,0-0.8,0-1.3,0.1
		c-0.2,0-0.3,0.1-0.4,0.1c-0.1,0-0.1,0.2,0,0.2l0.1,0.1c-0.1,0.1-0.1,0.2-0.2,0.2c-0.5,0.1-1,0.4-1.5,0.7c0,0-0.1,0.1-0.1,0.1
		c0.1,0,0.1,0.1,0.2,0.1l0.5,0.1c-0.2,0.2-0.4,0.4-0.5,0.5c-0.2,0.2-0.3,0.3-0.5,0.4c-0.1,0.2,0,0.2,0,0.2h0.1l-0.2,0.3
		c0,0.1-0.1,0.2-0.2,0.3c-0.1,0.2-0.2,0.3-0.3,0.4c-0.1,0.1-0.1,0.2-0.1,0.3c0,0.1,0.2,0.1,0.3,0h0.1c-0.2,0.3-0.4,0.7-0.6,1
		c0,0,0,0.1,0,0.1c0.1,0,0.1,0.1,0.2,0.1c0,0,0.1,0,0.2,0c0.1-0.2,0.2-0.3,0.3-0.5c0.2-0.2,0.4-0.4,0.6-0.6c0.1-0.1,0.1-0.2,0-0.2
		c-0.1,0-0.2,0-0.3,0c-0.1,0-0.2,0.1-0.3,0.1l0.2-0.3c0.2-0.3,0.4-0.5,0.7-0.7c0,0,0,0,0,0c0-0.1,0.1-0.1,0.1-0.2
		c0,0-0.1-0.1-0.1-0.1H126c0,0,0-0.1,0-0.1c0.3-0.3,0.6-0.5,1-0.7c0.1,0,0.1-0.1,0.2-0.2l0.3-0.2c0.1-0.1,0.2-0.3,0.3-0.4v-0.1
		c0.1-0.1,0.2-0.3,0.4-0.2l0,0l0,0c0.2-0.2,0.2-0.3,0-0.5L128,11l0.9-0.1c-0.2,0.2-0.4,0.3-0.3,0.6h0.3c-0.2-0.1-0.1-0.3,0-0.3
		l0.2-0.1c0,0,0.1-0.1,0.1-0.2h0.3c-0.1,0.1-0.3,0.4-0.4,0.4c-0.1,0-0.1,0.1-0.1,0.2l0.2,0l1.1,0.2h0.2l0.5,0.1V12l-0.5,0.2v-0.1
		l0.1-0.2c-0.3-0.1-0.4,0.3-0.7,0.2l0.3-0.2l0-0.1c-0.1,0-0.2,0-0.2,0.1c-0.1,0.1-0.2,0.3-0.4,0.3l-0.2,0.5l0.2-0.2
		c0.1-0.1,0.2-0.1,0.2-0.2l-0.2,0.3c0,0,0,0,0,0c0.1,0,0.2,0,0.2-0.1c0.1-0.2,0.3-0.3,0.5-0.3l-0.4,0.4v0.1c0,0,0.1,0,0.1,0
		c0.1-0.1,0.2-0.2,0.3-0.3c0.1-0.2,0.4-0.3,0.6-0.2l-0.8,0.6v0.1c0.1,0,0.1,0,0.2-0.1c0.3-0.2,0.7-0.4,1-0.6c0,0,0.2,0.1,0.2,0.1
		c-0.4,0.2-0.8,0.4-1.1,0.7V13h0.2c0.2-0.1,0.3-0.2,0.5-0.3c0.2-0.1,0.3-0.1,0.5-0.2h0.1v0.1l-0.4,0.2c-0.3,0.1-0.6,0.3-0.9,0.5
		c-0.1,0.1-0.2,0-0.3,0c-0.1-0.1-0.3-0.2-0.4-0.3c-0.1-0.1-0.3-0.1-0.4-0.1c-0.4-0.1-0.7-0.1-1.1-0.1c-0.3,0-0.6,0.1-1,0.2
		c-0.3,0-0.5,0.3-0.7,0.5c0,0,0,0,0,0c0,0.1,0,0.1-0.1,0.1c0,0,0,0-0.1,0c-0.1,0.2-0.2,0.4-0.2,0.6c0,0.1,0,0.1,0,0.2
		c0-0.1,0.1-0.1,0.1-0.2c0.1-0.5,0.4-0.9,0.7-1.1c-0.2,0.4-0.3,0.7-0.5,1.1l0.1,0c0,0,0.1-0.1,0.1-0.1c0.1-0.3,0.3-0.5,0.4-0.8
		c0.1-0.1,0.2-0.2,0.3-0.3c0-0.1,0.1-0.1,0.2-0.1c-0.2,0.4-0.6,0.7-0.6,1.3c0.1-0.1,0.1-0.1,0.2-0.2c0.1-0.2,0.1-0.3,0.2-0.5
		c0.1-0.1,0.2-0.2,0.3-0.3c0.1-0.1,0.2-0.2,0.3-0.3c0,0,0,0.1-0.1,0.1l-0.5,0.9c0,0,0,0.1,0,0.1c0.2-0.1,0.4-0.3,0.5-0.5
		c0.1-0.2,0.3-0.3,0.4-0.5c0-0.1,0.1-0.1,0.2-0.1l-0.7,0.9v0c0-0.1,0.1-0.1,0.1-0.1c0,0,0.1,0,0.1,0.1c0.1-0.4,0.5-0.6,0.8-0.8
		c0,0,0.1,0,0.2,0c-0.1,0.2-0.3,0.3-0.4,0.5c-0.3,0.4-0.3,0.4-0.3,0.4l0.6-0.7c0,0,0,0,0,0c0.1-0.1,0.3-0.2,0.4-0.1
		c-0.3,0.4-0.8,0.7-1,1.2c-0.3-0.1-0.7-0.1-1,0c-0.5,0.1-0.9,0.3-1.3,0.5c0,0-0.1,0.1-0.1,0.1l0.2,0.1c-0.1,0.2-0.2,0.5-0.4,0.8h0.2
		c0.1-0.5,0.4-0.9,0.9-1.1c-0.2,0.3-0.4,0.6-0.5,1c0.1,0,0.2-0.1,0.2-0.2c0.1-0.4,0.4-0.7,0.7-1l0.1-0.1c-0.2,0.4-0.7,0.7-0.7,1.1
		c0.1,0,0.2,0,0.2-0.1c0.2-0.4,0.4-0.7,0.8-1c0,0.1-0.1,0.2-0.2,0.2c-0.2,0.3-0.4,0.6-0.5,1c0,0,0,0.1-0.1,0.1
		c-0.1,0-0.2,0.1-0.3,0.2c-0.2,0.2-0.6,0.3-0.9,0.3c-0.1,0-0.1,0.1-0.2,0.1l0,0.1c0,0.1,0,0.2,0.1,0.2c-0.1,0,0,0.1,0,0.1
		c0,0.1,0,0.1,0,0.2c0,0.1-0.1,0.2-0.1,0.4l0.2-0.1c0,0.1,0,0.1,0,0.2c0,0.1,0.1,0.2,0.2,0.2c0.2,0,0.3,0,0.5-0.1
		c0.2-0.1,0.4-0.2,0.6-0.3c0,0.1,0,0.1,0,0.2s0,0.2,0,0.2s0.2,0.1,0.3,0.1c0.4-0.2,0.9-0.5,1.3-0.7c0,0.1,0,0.1,0.1,0.2
		c0.1,0.1,0.1,0.2,0.2,0.1c0.2-0.1,0.3-0.1,0.4-0.2c0.3-0.3,0.7-0.7,1-1l0.1-0.1c0.1,0,0.2,0,0.3,0.1c0.2,0.1,0.3,0.1,0.5,0
		c0.2-0.1,0.3-0.3,0.4-0.5l0.1-0.1c-0.1,0.2-0.2,0.3-0.3,0.5c-0.1,0.2-0.1,0.4,0.2,0.4h0c0,0.1-0.1,0.2-0.1,0.3
		c0,0.2-0.3,0.4-0.1,0.6l-0.2,0.2c-0.7,0.6-1,1.5-1,2.4c0,0.3,0.1,0.6,0.3,0.8c0.2,0.2,0.4,0.4,0.7,0.4c-0.3-0.1-0.5-0.4-0.6-0.7
		c-0.2-0.6-0.1-1.2,0.2-1.7c0,0,0,0,0,0h0c0,0,0,0,0,0c0,0,0,0,0,0.1c-0.2,0.5-0.3,1.1-0.1,1.6c0.1,0.2,0.2,0.4,0.3,0.5
		c0.2,0.1,0.3,0.2,0.5,0.3l0,0c-0.1,0-0.1,0-0.2,0c0,0-0.1,0-0.1-0.1v0.1c-0.1,0.3-0.2,0.7-0.2,1c0,0.4,0.2,0.7,0.5,0.9
		c0.1,0,0.1,0.1,0.1,0.2c0,0.4,0,0.8,0.1,1.3c0.1,0.4,0.4,0.8,0.8,1c0.2,0.1,0.3,0.2,0.5,0.2c0.1,0,0.2,0,0.2-0.1
		c-0.4,0-0.7-0.1-0.9-0.5c-0.3-0.5-0.4-1.2-0.3-1.8c0,0,0,0.1,0,0.1c0,0.2,0,0.4,0,0.6c0,0.4,0.2,0.8,0.4,1c0.1,0.2,0.4,0.4,0.6,0.4
		c0.3,0,0.6-0.2,0.8-0.5c0.2-0.2,0.3-0.4,0.5-0.6h0.1l-0.1,0.3l-0.1,0.2c0,0.1-0.1,0.2-0.2,0.2c0.1,0.2,0.2,0.3,0.3,0.5
		c-0.2,0.3-0.4,0.6-0.4,1c-0.2,0.6-0.2,1.3,0.1,1.9c0.1,0.3,0.2,0.5,0.5,0.6c0,0,0,0,0,0c-0.1-0.1-0.2-0.2-0.3-0.3
		c-0.2-0.4-0.2-0.9-0.1-1.4c0.1-0.4,0.2-0.8,0.3-1.1c0-0.1,0.1-0.3,0.3-0.3c0.1,0,0.1,0,0.1-0.1s0.1-0.2,0.1-0.2
		c0.2-0.1,0.4-0.2,0.7-0.3c0.1,0,0.3,0,0.4,0c0,0.2-0.1,0.3-0.3,0.4c-0.1,0.1-0.2,0.2-0.1,0.3c0.1,0,0.1,0.1,0.1,0.2l0.1-0.2
		c0.1,0.1-0.2,0.3,0.1,0.3c0,0,0.1-0.1,0.1-0.1c0.1,0.1,0.1,0.2,0.1,0.4c0,0.1,0.1,0.1-0.1,0.2C136,27,136,27,136,27.2
		c-0.1,0.2-0.1,0.4-0.1,0.6c-0.1,0.2-0.2,0.4-0.3,0.6c-0.1,0.2-0.2,0.3-0.3,0.5c0.1-0.2,0.1-0.4,0.2-0.6c0.1-0.4,0.3-0.9,0.4-1.3
		c0,0,0-0.2,0-0.1c0,0-0.1,0.1-0.1,0.1l-0.4,1.3c0,0,0,0,0,0.1c0,0.1-0.1,0.2-0.1,0.2c-0.1,0-0.2,0-0.3,0c0,0,0,0,0,0
		c-0.2-0.2-0.2-0.6,0-0.9l0-0.1c0.1-0.4,0.3-0.7,0.4-1c0-0.1-0.1-0.2-0.1-0.3c-0.3,0.4-0.5,0.9-0.6,1.4c0-0.2,0-0.3,0-0.5
		c0-0.5,0.3-0.9,0.6-1.3c0.1,0,0.1-0.2,0.1-0.3c-0.3,0.2-0.6,0.4-0.7,0.8c-0.2,0.4-0.3,0.8-0.3,1.2c-0.1,0.3,0,0.6,0.1,0.9
		c0.1,0.3,0.3,0.6,0.7,0.6c0.1,0,0.1,0,0.2,0l0.5-0.2c0,0,0,0,0,0c0.1-0.1,0.2-0.2,0.3-0.3c0,0,0,0,0.1-0.1c0.4-0.5,0.7-1.1,0.7-1.7
		c0-0.1,0-0.1,0-0.2l-0.1,0.1c0,0.1,0,0.1-0.1,0.2c0,0.4-0.2,0.8-0.4,1.1c-0.1,0.1-0.1,0.2-0.2,0.3c0.3-0.6,0.5-1.2,0.5-1.9l0.2,0.1
		c0-0.1,0-0.2,0-0.2c-0.1-0.3-0.2-0.5-0.3-0.7c0-0.1-0.1-0.1-0.1-0.1l0.1-0.2l0.3,0.2c0.1,0,0.1,0.1,0.1,0.2l0,0
		c0.2,0.5,0.2,1.1,0,1.6c-0.1,0.5-0.4,0.9-0.7,1.3c0,0,0,0,0,0c0,0,0,0,0,0c0,0-0.1,0.1-0.1,0.1c-0.1,0.1-0.1,0.1-0.2,0.1
		c-0.1,0.9,0.4,1.2,1.3,1.3c-0.1,0.6-0.1,1.1,0.2,1.6c0,0.1,0.1,0.3,0.2,0.4c0.1,0.2,0.3,0.3,0.5,0.4c-0.1-0.1-0.3-0.2-0.3-0.4
		c-0.1-0.3-0.2-0.7-0.3-1.1c0-0.2,0-0.5,0.1-0.7c0-0.1,0.2-0.2,0.4-0.4c-0.1,0.2-0.2,0.4-0.2,0.6c-0.2,0.5-0.1,1.1,0.3,1.5
		c0.3,0.3,0.7,0.5,1.1,0.3c0.2-0.1,0.4-0.2,0.5-0.4l0,0l0.2-0.2c0,0,0,0.1,0,0.1c0,0,0,0,0-0.1c0-0.1,0.1-0.2,0.1-0.3
		c0-0.3,0-0.5,0-0.8h0l0,0c0,0,0,0,0,0h0.1l-0.1,0.8c0,0,0,0,0,0c0-0.1,0.1-0.5,0.1-0.7c0-0.1,0-0.3,0-0.5c-0.1,0.1-0.2,0.2-0.3,0.3
		c-0.1,0.1-0.2,0.1-0.4,0.1c0,0-0.1-0.1-0.1-0.1c0.3-0.1,0.6-0.2,0.7-0.5c0.2-0.3,0.3-0.6,0.4-0.9c0.1-0.5,0.1-1,0-1.5
		c0-0.1,0-0.1,0-0.2c-0.1-0.2-0.1-0.3-0.2-0.5c-0.1,0.1-0.2,0.1-0.3,0.2c0,0-0.1,0.1-0.1,0.1c0,0.4,0,0.8,0,1.1
		c0,0.5-0.1,0.9-0.2,1.4c0.1-0.8,0-1.7,0.1-2.6h-0.1h-0.1c0,0.9-0.1,1.9-0.3,2.8h0c0-0.2,0-0.5,0-0.7c0,0,0-0.1,0-0.1
		c-0.1-0.3-0.1-0.6,0-0.9c0-0.3,0.1-0.7,0.2-1c0-0.1-0.1-0.1-0.1-0.3c-0.1,0.3-0.1,0.6-0.2,0.8c0,0.3-0.1,0.7-0.1,1
		c0,0.1-0.1,0.3-0.1,0.4c0,0.1,0,0.2,0,0.3c0.1,0.3,0.1,0.3-0.1,0.4c0,0,0,0-0.1,0.1c0,0,0,0.1,0,0.1c0,0,0,0,0,0h0c0,0,0,0,0,0
		c-0.2,0-0.2-0.2-0.3-0.3c-0.2-0.5-0.2-1.1-0.1-1.7c0.1-0.3,0.2-0.6,0.3-0.8c0-0.1,0.1-0.1,0.1-0.2h0c0,0.1,0,0.1,0,0.2
		c-0.1,0.5-0.2,0.9-0.3,1.4c0.1-0.5,0.2-1,0.4-1.6c0-0.1,0-0.1,0.1-0.1c-0.1,0.4-0.2,0.8-0.3,1.2c0,0.2-0.1,0.4-0.1,0.6
		c0,0.1,0,0.2,0.1,0.3c0-0.3,0.1-0.5,0.1-0.8c0.1-0.4,0.2-0.8,0.3-1.2c0-0.1,0.1-0.3,0.3-0.3c0.2,0,0.3-0.2,0.5-0.2
		c0.2-0.1,0.3,0,0.4,0.2c0,0,0,0.1,0,0.1c0,0,0,0,0,0c0.1,0.2,0.2,0.3,0.2,0.5c0,0.1,0.1,0.2,0.1,0.3c0.1,0.2,0.1,0.4,0.2,0.6l0,0
		c-0.1,0.5-0.2,0.9-0.3,1.4c0,0.1-0.1,0.1-0.1,0.2c0,0,0-0.1,0.1-0.1c0.1,0,0.2,0,0.3,0c0,0-0.1,0-0.1,0c0,0,0.1-0.1,0.2-0.1
		c0,0,0.1,0,0.1,0l0.5-0.2c0.2-0.1,0.4-0.3,0.4-0.6c0-0.1,0-0.2,0.1-0.2c0,0,0.1-0.1,0.1-0.1h0c0,0.1,0,0.2-0.1,0.4
		c0-0.1,0.1-0.2,0.1-0.4c0-0.2,0.1-0.5,0.3-0.6c0.1-0.1,0.1-0.2,0.2-0.3c0.2-0.4,0.3-0.9,0.3-1.3c0-0.2,0-0.5-0.1-0.7
		c0-0.1,0-0.1,0-0.2c0-0.2,0.1-0.4,0.1-0.5c0,0,0.1-0.1,0.1-0.1c0,0,0.1,0,0.1,0c0,0,0,0,0,0c0.1,0,0.1,0,0.2,0c0,0,0,0,0,0
		c0.1,0,0.1,0,0.2,0c0,0,0.1-0.1,0.1-0.2l0.1,0.1c0.1,0,0.2-0.1,0.3-0.1c0.1-0.1,0.1-0.1,0.2-0.2c0.1-0.1,0.1-0.2,0.2-0.4
		c0.1-0.4,0.1-0.7,0-1.1c-0.1-0.5-0.3-0.9-0.6-1.2c-0.1-0.1-0.1-0.2-0.1-0.2c0.1,0.1,0.2,0.2,0.3,0.3c0.2,0.3,0.4,0.6,0.5,0.9
		c0.1,0.1,0.1,0.2,0.1,0.3l0,0c0,0.3,0,0.6,0,0.9c0-0.2,0.1-0.3,0.1-0.5c0.1,0,0.2-0.3,0.2-0.5c0-0.3-0.1-0.6-0.3-0.9
		C144.1,22.4,144,22.2,143.8,22z M139.5,8.3c-0.3,0.1-0.6,0.2-0.9,0.2c-0.1,0-0.2-0.1-0.2-0.2V8.3c0.2,0.2,0.5,0.2,0.7,0.1
		c0.2-0.1,0.3-0.1,0.5-0.2l0.3-0.1C139.8,8.2,139.7,8.3,139.5,8.3z M139.3,5.8c0,0,0.1,0,0.1,0c0.3-0.1,0.7,0.1,0.9,0.5
		c0.4,0.4,0.4,1,0,1.4c0.2-0.4,0.3-0.8,0.1-1.2c-0.2-0.4-0.6-0.6-1-0.6C139.4,5.8,139.4,5.8,139.3,5.8L139.3,5.8z M127.8,11.6
		l-0.8,0.7l-0.6-0.2c0.2-0.2,0.4-0.3,0.6-0.4C127.3,11.7,127.5,11.6,127.8,11.6L127.8,11.6z M128.9,11.5c0.1-0.2,0.2-0.3,0.5-0.5
		l-0.1-0.2l0.5,0.1c-0.2,0.1-0.4,0.2-0.6,0.4C129.1,11.4,129,11.5,128.9,11.5z M129.9,11.4c0.2-0.1,0.3-0.2,0.5-0.3
		c-0.1,0-0.2-0.1-0.2-0.1c-0.1,0.1-0.3,0.1-0.4,0.2c-0.1,0.2-0.3,0.2-0.5,0.1c0.2-0.1,0.3-0.2,0.4-0.3c0.1-0.1,0.1,0,0.1-0.1l0-0.1
		l0.9,0.2c-0.1,0.1-0.2,0.2-0.3,0.3C130.2,11.4,130.2,11.4,129.9,11.4z M139.7,31.3L139.7,31.3l-0.1,0.6h-0.1L139.7,31.3z M140.1,28
		c0,0.2,0,0.4,0,0.6l0,0.1l0,0c0-0.1,0-0.1,0-0.2l-0.1-0.8C140,27.8,140.1,27.9,140.1,28z M144.1,20.6c0.3-0.3,0.5-0.8,0.6-1.2h0
		C144.8,19.9,144.5,20.4,144.1,20.6z M143.1,17.6c0,0,0.1,0.1,0.1,0c0,0,0.1,0,0.1-0.1c0-0.1,0-0.1,0-0.2c0-0.1,0-0.2-0.1-0.4
		c0.3,0,0.5,0.1,0.7,0.3c0.1,0.2,0.3,0.4,0.4,0.5c0.2,0.4,0.4,0.8,0.5,1.2c0,0.1,0,0.2,0,0.2c-0.2,0-0.2-0.2-0.2-0.3
		c0-0.2,0-0.5-0.2-0.7c-0.2-0.3-0.4-0.6-0.6-0.9l-0.1-0.1c-0.1,0.2-0.1,0.4,0.1,0.6c0.2,0.3,0.4,0.6,0.5,1c0.1,0,0.3,0,0.3,0.2
		c0,0,0,0,0,0c0,0.2,0,0.3,0,0.5c0,0.1-0.1,0.2-0.2,0.2c0,0,0,0,0,0c-0.2,0-0.2-0.1-0.2-0.3s0-0.3,0-0.4c0-0.1,0-0.3-0.1-0.4
		c0,0-0.1-0.1-0.1-0.2c-0.1-0.2-0.1-0.3-0.2-0.6c0,0.1-0.1,0.1-0.1,0.1c0,0.1,0.1,0.3,0.1,0.4c0.1,0.3,0.2,0.5,0.2,0.8
		c0,0.1,0.1,0.2,0.1,0.4c0,0.1,0,0.1,0,0.2l-0.2-0.8l-0.1,0.1c0-0.2-0.2-0.3-0.1-0.4s-0.3-0.4-0.4-0.4c-0.1,0-0.1,0.1-0.1,0.1
		c0,0,0,0.1,0,0.1c0.2,0.3,0.4,0.7,0.4,1.1c0.1,0.2,0.1,0.5,0.2,0.7h-0.1c-0.1-0.1-0.1-0.2-0.2-0.4c-0.1-0.4-0.3-0.7-0.4-1.1
		c-0.1-0.1-0.1-0.2-0.2-0.3c0,0,0,0-0.1-0.1c0-0.2-0.2-0.3-0.4-0.4c0-0.2,0-0.3-0.2-0.4c0,0,0-0.1,0-0.1c0.1-0.2,0.2-0.4,0.4-0.5
		l-0.3,0.4c0,0-0.1,0.1,0,0.1c0,0,0.1,0.1,0.1,0.1h0.2c0.1,0,0.1,0,0.2,0l-0.3-0.2l0.2-0.1C142.9,17.4,143,17.5,143.1,17.6z
		 M141.9,26.4c0,0,0,0.1-0.1,0.1c-0.1-0.7-0.1-1.3-0.2-2c-0.1,0-0.2,0.1-0.2,0.2c0.1,0.3,0.1,0.7,0,1c0,0.2,0,0.5,0,0.7
		c0,0,0-0.1-0.1-0.1c0-0.2,0-0.4-0.1-0.6c-0.1-0.2-0.1-0.6-0.1-1c0,0-0.1-0.1-0.1-0.1c0,0.4,0,0.8,0,1.3c-0.2-0.6-0.3-1.3-0.2-2
		c0,0.1,0.1,0.2,0.1,0.3c0.2-0.1,0.3-0.1,0.2-0.3c0-0.1,0-0.1,0-0.2h0.1c0,0.1,0.1,0.2,0.1,0.3c0.3-0.1,0.1-0.4,0.2-0.6h0
		c0,0.1,0,0.2,0.1,0.3c0.1,0.1,0.1,0.1,0.2,0.2h0.1l-0.1-0.5h0c0.1,0.1,0.1,0.1,0.2,0.2c0.3,0.5,0.4,1.1,0.3,1.7
		c0,0.3,0,0.5-0.1,0.8l-0.3-1.8l-0.1,0c0,0.1,0,0.2-0.1,0.3C141.8,25.1,141.9,25.7,141.9,26.4z M141.4,28c0,0.2,0,0.3,0,0.5
		c0,0-0.1,0-0.2,0.1c-0.1-0.5-0.1-1-0.1-1.4h0c0,0.1,0,0.2,0.1,0.3v0C141.2,27.5,141.3,27.8,141.4,28z M140.6,25.7L140.6,25.7
		C140.6,25.6,140.6,25.6,140.6,25.7c-0.2-0.4-0.2-0.8-0.1-1.2C140.7,24.8,140.7,25.2,140.6,25.7C140.6,25.6,140.6,25.6,140.6,25.7z
		 M139.9,23.7L139.9,23.7C139.8,23.7,139.8,23.7,139.9,23.7c-0.2-0.1-0.3-0.1-0.4-0.2c0,0,0-0.1-0.1-0.1c0.1,0.1,0.2,0.1,0.3,0.2
		c0.3,0.1,0.6,0,0.9-0.1c0.3-0.1,0.5-0.3,0.6-0.6c0.2-0.4,0.2-0.9,0.2-1.4c0-0.2,0-0.3,0-0.5h0c0.1,0.2,0.1,0.4,0.2,0.6
		c0,0.4,0,0.9-0.2,1.3C141.1,23.5,140.5,23.8,139.9,23.7C139.9,23.7,139.9,23.7,139.9,23.7z M139.2,23.8L139.2,23.8
		c0.4,0.7,0.5,1.5,0.4,2.2c0,0.1,0,0.2,0,0.3l-0.1,0c0-0.1,0-0.2,0-0.2C139.6,25.3,139.4,24.6,139.2,23.8z M138.1,25.5l0.1,0.5
		C138,25.9,138.1,25.7,138.1,25.5L138.1,25.5z M138,25.2c0-0.1,0.1-0.3,0.1-0.4h0.1c0,0.2,0.1,0.3-0.1,0.4L138,25.2L138,25.2z
		 M137.4,24.6L137.4,24.6c-0.2-0.1-0.4-0.2-0.6-0.3c-0.1,0-0.1-0.1,0-0.2c0.2,0.3,0.5,0.5,0.9,0.4c0.6,0,1.1-0.4,1.3-1
		c0.1-0.2,0.1-0.4,0.2-0.6c0-0.2,0-0.5,0-0.7c-0.1-0.2-0.1-0.5-0.2-0.7c0-0.1-0.1-0.1-0.1-0.2h0.2c0.1,0.2,0.1,0.4,0.2,0.6
		s0.2,0.3,0,0.5c0,0,0,0,0,0.1c0.1,0.2,0.1,0.5,0,0.8c-0.1,0.3-0.2,0.5-0.3,0.8c-0.1,0.1-0.1,0.3-0.3,0.4c-0.2,0.1,0,0.1-0.1,0.2
		C138.2,24.7,137.8,24.7,137.4,24.6z M137.2,26c0-0.4,0.2-0.7,0.5-0.9L137.2,26z M137.7,25.4L137.7,25.4l-0.3,0.7h-0.1
		C137.4,25.9,137.6,25.7,137.7,25.4z M137.8,25.9L137.8,25.9c0.1,0.1,0.1,0.2,0,0.3s-0.1,0.5-0.4,0.6l-0.1,0L137.8,25.9z
		 M137.5,27.4C137.5,27.4,137.5,27.4,137.5,27.4c0.1-0.5,0.3-0.8,0.4-1.2l0.1,0c0,0.1,0,0.1,0,0.2l-0.4,1c0,0.1-0.1,0.3-0.1,0.4
		c0,0.1-0.1,0.1-0.1,0.2c0-0.1,0.1-0.2,0.1-0.3C137.4,27.6,137.4,27.5,137.5,27.4z M135.7,18.9c-0.2,0.5-0.3,1-0.5,1.5l-0.1,0.3h0
		l0.1-0.2C135.2,19.9,135.3,19.4,135.7,18.9c0-0.1-0.1-0.2-0.2-0.2c-0.1,0.2-0.1,0.3-0.2,0.5l-0.2,0.4c-0.1,0.2-0.1,0.5-0.2,0.7
		c0,0.1-0.1,0.3-0.2,0.3c-0.2,0-0.3-0.1-0.3-0.2c0-0.3,0-0.5,0.1-0.8c0-0.1,0.1-0.1,0.1-0.1c0.2,0,0.2-0.2,0.3-0.3
		c0.1-0.2,0.2-0.3,0.3-0.5c0.1-0.1,0.1-0.2,0-0.3l-0.5,1c0.1-0.5,0.3-1,0.7-1.5c-0.4,0.2-0.6,0.6-0.8,1c-0.1,0.4-0.3,0.8-0.4,1.2
		c0-0.1,0-0.2,0-0.2c0.1-0.6,0.3-1.2,0.6-1.7c0.2-0.3,0.5-0.5,0.9-0.6h0.1h0.1c-0.1,0.2-0.2,0.4-0.3,0.6c0.1,0.2,0.2,0.3,0.4,0.2
		l0.1,0.1l0.2-0.5h0.1c-0.1,0.5-0.2,1-0.4,1.5c-0.2,0.5-0.3,0.9-0.6,1.4c0.1-0.7,0.3-1.4,0.6-2C135.7,18.8,135.7,18.8,135.7,18.9z
		 M133.8,19.2c0-0.1,0-0.1,0-0.2l0.1-0.6c0,0,0-0.1,0-0.1l0.5-0.4l0.2,0.1c-0.1,0.3-0.2,0.5-0.3,0.8c-0.1,0.3-0.2,0.6-0.3,0.9h-0.4
		C133.6,19.7,133.7,19.5,133.8,19.2z M133.4,19.5L133.4,19.5c0-0.5,0.1-1,0.1-1.4C133.7,18.6,133.6,19.1,133.4,19.5z M132.6,15.2
		C132.6,15.2,132.6,15.2,132.6,15.2L132.6,15.2l0.1-0.2c0,0,0,0,0,0c0.1-0.2,0.2-0.4,0.4-0.6c0.1-0.1,0.2-0.2,0.3-0.2v-0.1l0.1,0
		c0,0-0.1,0-0.1,0v0.1l0.4-0.1l-0.4,0.4c0,0-0.1,0-0.1,0l-0.2,0.1h0.1l-0.1,0.4c-0.1,0.1-0.2,0.1-0.4,0
		C132.6,15.1,132.6,15.1,132.6,15.2l0.2,0.1c-0.1,0.2-0.3,0.3-0.5,0.4c-0.1,0.1-0.2,0.2-0.3,0.3l-0.1-0.2c0.1-0.1,0.3-0.1,0.4-0.1
		c0.1-0.1,0.1-0.2,0.2-0.2C132.7,15.2,132.5,15.3,132.6,15.2z M133.1,13.3c-0.2,0-0.5,0.1-0.7,0.1l0.2-0.2c0.1,0.1,0.2,0.1,0.3,0
		c0.2-0.1,0.3-0.1,0.5-0.1c0.1,0,0.3,0.1,0.4,0.1v0.1C133.5,13.3,133.3,13.3,133.1,13.3L133.1,13.3z M132.7,10.7
		c0.2-0.2,0.4-0.4,0.7-0.5c0,0.2,0,0.3-0.2,0.4l0,0c-0.2,0.1-0.3,0.3-0.4,0.4c-0.1,0-0.1,0.1-0.2,0.1l0.1-0.1
		C132.6,10.9,132.6,10.8,132.7,10.7z M133.3,10.8c0,0.1-0.1,0.2-0.1,0.3c0,0-0.1,0-0.1,0c0,0,0-0.1,0-0.1
		C133.1,10.9,133.2,10.8,133.3,10.8L133.3,10.8z M133.2,11.6L133.2,11.6l-1,0.3c-0.1,0.1-0.3,0.1-0.4,0
		C131.9,11.7,132.9,11.4,133.2,11.6z M132.1,12.2C132.1,12.2,132.1,12.1,132.1,12.2c0.4-0.2,0.8-0.3,1.1-0.4c0,0,0.1,0.1,0.2,0.1
		c-0.4,0.1-0.8,0.2-1.1,0.4l1-0.2v0.1c-0.1,0.1-0.2,0.1-0.3,0.2c-0.2,0.1-0.4,0.1-0.5,0.1S132.1,12.3,132.1,12.2L132.1,12.2z
		 M132.1,13c0,0,0,0.1-0.1,0.1c-0.4,0.1-0.8,0.4-1.2,0.6C131.1,13.3,131.6,13,132.1,13z M133.5,12.9L133.5,12.9l-0.6,0.1
		C133.2,12.7,133.5,12.7,133.5,12.9z M136,14.9c0.2-0.1,0.4-0.1,0.6-0.2v0l-0.9,0.6c0,0-0.1-0.1-0.1-0.1l-0.1-0.8c0,0,0-0.1-0.1-0.1
		c0,0-0.1-0.2,0-0.3l0.3-0.2l0.3-0.1c0,0.1-0.2,0.4-0.4,0.5l0.2,0.1c0.2,0,0.3-0.1,0.5-0.1l0,0v0c0,0,0,0,0,0l-0.4,0.3L136,14.9z
		 M136.9,13.7c-0.1-0.2-0.2-0.4-0.3-0.6c-0.1-0.1,0-0.3,0.1-0.3c0,0,0,0,0,0c0-0.1,0-0.1,0.1-0.2l0.8-0.3c0.1-0.1,0.3,0,0.3,0.1
		c0,0,0,0,0,0.1c0.2,0.4,0.4,0.8,0.5,1.3c0,0.1,0,0.3-0.1,0.4c-0.2,0.2-0.4,0.5-0.6,0.7c-0.1,0.1-0.1,0.1-0.2,0.1l-1-0.9l0.5-0.1
		C136.9,13.9,136.9,13.8,136.9,13.7z M139.2,11.3c0-0.1,0-0.2-0.1-0.3c0.2-0.1,0.3-0.2,0.5-0.2c0,0,0,0,0,0l0.1,0c0,0,0,0.1,0,0.1
		C139.6,11.1,139.4,11.2,139.2,11.3z M139.7,11.3c-0.1,0.1-0.2,0.2-0.3,0.3s-0.1,0-0.2,0c0-0.1,0.1-0.1,0.1-0.1
		c0.1,0,0.1-0.1,0.2-0.1l0.1,0H139.7z M139.6,10.3C139.6,10.3,139.6,10.4,139.6,10.3c-0.1,0.3-0.4,0.4-0.7,0.4l0.5-0.4
		C139.5,10.3,139.7,10.3,139.6,10.3L139.6,10.3z M139.3,12.6l0.2,0.2c-0.1,0-0.1,0.1-0.2,0.1s-0.2,0-0.2-0.1S139.2,12.7,139.3,12.6z
		 M139.1,12.4l0.3-0.2c0,0.1,0.1,0.1,0.1,0.2s-0.1,0.1-0.2,0.2L139.1,12.4z M139.4,13.6c0,0,0.1,0,0.2,0c0,0,0,0.1,0,0.1
		c0,0,0,0.1-0.1,0.1c-0.2-0.1-0.3-0.2-0.5-0.3c-0.2-0.1-0.2-0.2-0.2-0.4h0c0.1,0.1,0.2,0.1,0.2,0.2
		C139.1,13.6,139.3,13.6,139.4,13.6z M140.1,16.9l0.3,0.2c0.1-0.3-0.2-0.4-0.2-0.6c0.2,0,0.5,0.1,0.6,0.3c0.3,0.2,0.6,0.5,0.8,0.7
		c0.2,0.2,0.3,0.4,0.3,0.6c0,0.2,0.1,0.3,0.1,0.5c0,0.2,0,0.3,0,0.5c0,0.2-0.2,0.5-0.4,0.6c-0.1,0-0.1,0.1-0.2,0.1l0.1-0.1
		c0.3-0.3,0.4-0.7,0.3-1.1c0-0.1,0-0.1,0-0.2c-0.1-0.4-0.3-0.8-0.6-1.1c-0.1-0.1-0.2-0.3-0.4-0.4c-0.1,0.1-0.1,0.3,0,0.4
		c0.2,0.3,0.4,0.7,0.5,1c0,0,0,0,0,0.1l-0.5-1c-0.1,0.1-0.1,0.2,0,0.3c0.2,0.5,0.5,1,0.7,1.5c0,0.1,0,0.1,0,0.2h-0.1
		c-0.1-0.1-0.1-0.2-0.2-0.4s-0.2-0.4-0.3-0.6c-0.1-0.2-0.2-0.4-0.3-0.6c0-0.1-0.2-0.2-0.3-0.1c0,0,0,0,0,0c0.1,0.1,0.2,0.3,0.3,0.4
		c0.1,0.3,0.3,0.6,0.5,0.9V19h-0.1c-0.3-0.6-0.7-1.2-1-1.8l0,0l0,0c0-0.1-0.1-0.1-0.1-0.2h0.1l0,0.2c0,0,0,0,0,0l0.2-0.1
		C140.2,17.1,140.2,17,140.1,16.9z M142.3,21.2c-0.2-0.3-0.3-0.4-0.4-0.7c0.2,0,0.3,0.1,0.3,0.2c0,0,0,0.1,0,0.1
		c0.1,0.2,0.3,0.4,0.4,0.6c0.1,0.2,0.2,0.3,0.3,0.5h0c0,0.1,0,0.2,0,0.4c0,0.1-0.1,0.1-0.2,0.1c0,0,0,0,0,0c-0.1,0-0.1-0.1-0.1-0.1
		c0,0,0,0,0-0.1C142.7,21.8,142.5,21.5,142.3,21.2z M140.6,21.6c0.1,0.3,0.2,0.6,0.3,0.9c0,0.1,0,0.2,0.1,0.3h-0.1
		c-0.2-0.5-0.3-1-0.5-1.5c-0.1,0.1-0.1,0.3-0.1,0.5c0.1,0.4,0.2,0.9,0.3,1.3c0,0,0,0,0,0.1l-0.5-1.6c-0.2,0-0.2,0-0.2,0.2
		c0.1,0.4,0.2,0.7,0.3,1.1c0,0.1,0,0.2,0,0.4c-0.2-0.3-0.3-0.7-0.4-1.1c-0.2-0.3-0.4-0.7-0.5-1c0.2-0.2,0.2-0.2,0.4,0
		c0-0.1,0-0.1,0-0.2c0,0-0.1-0.2,0.1-0.3l0.1,0.2c0.2-0.1,0.2-0.2,0.1-0.3l0,0c0-0.1,0-0.1,0-0.2h0.1l0.1,0.1l0.1-0.1l-0.2-0.2
		c0.1,0,0.1,0.1,0.2,0.1c0.1,0.2,0.3,0.3,0.4,0.5s0,0.1,0,0.2v0.1l0.2,0.6c0,0,0,0.1,0,0.1c-0.2-0.1-0.3-0.3-0.3-0.6
		c0-0.1-0.1-0.3-0.2-0.4C140.5,21.1,140.5,21.4,140.6,21.6z M138.7,21.5L138.7,21.5c0.1,0.1,0.1,0.2,0.2,0.3c0,0.4,0,0.8,0,1.2
		c0,0.1-0.1,0.3-0.1,0.4l0,0c0-0.3,0.1-0.6,0.1-0.9S138.7,21.8,138.7,21.5z M138.4,21c-0.6-0.1-1.1-0.6-1.3-1.1
		c-0.3-0.6-0.3-1.3-0.1-2c0.1-0.3,0.3-0.7,0.6-0.9c0.2-0.1,0.3-0.2,0.5-0.3c0,0,0,0,0,0c0.1,0,0.2,0,0.2,0.1c0,0.1,0.1,0.2-0.1,0.3
		c-0.1,0-0.2,0.1-0.2,0.2c-0.1,0.1-0.1,0.1,0,0.2c0,0.2,0.1,0.3,0.4,0.4c0,0,0-0.1,0-0.1c0,0,0-0.1,0.1-0.1c0,0.1,0,0.2,0,0.3h0.4
		c0-0.1,0-0.1,0-0.2c0.3,0.7,0.4,1.5,0.2,2.3c-0.1-0.1-0.1-0.3,0-0.5c0-0.4,0-0.8-0.1-1.2c-0.2,0-0.2,0.2-0.2,0.3c0,0.4,0,0.8,0,1.2
		c-0.1-0.4-0.2-0.9-0.2-1.3c-0.1,0-0.2,0-0.2,0.1c0,0.4,0,0.8,0,1.2c0,0,0,0.1,0,0.2c-0.1-0.1-0.1-0.1-0.1-0.1c0-0.2,0-0.3,0-0.5
		c0.1-0.3,0-0.5,0-0.8c0-0.1,0-0.2-0.1-0.2c0,0,0,0,0,0c0,0,0,0,0,0c0,0.4,0,0.8-0.1,1.2c0,0,0-0.1-0.1-0.1c0,0.3,0,0.5,0,0.8
		c0-0.1-0.1-0.2-0.1-0.3c-0.3,0.1-0.4,0-0.6-0.2c0-0.1-0.1-0.1-0.1-0.1c0.1-0.3,0.1-0.5,0.1-0.7c0-0.3,0.1-0.6,0.2-0.8
		c0.1-0.1,0-0.2,0-0.3c-0.1,0.2-0.2,0.5-0.3,0.7c0-0.3,0.1-0.7,0.3-0.9c0.1-0.1,0.2-0.3,0.3-0.4c-0.2,0.1-0.4,0.2-0.5,0.4
		c-0.2,0.3-0.3,0.6-0.3,1c0,0.4,0.1,0.8,0.1,1.3c0,0.1,0.1,0.2,0.1,0.3c0.2,0.3,0.4,0.6,0.7,0.8c0.2,0.1,0.3,0.1,0.5,0.1l0,0
		c0.1,0,0.3,0,0.5,0.1C138.9,21,138.7,21.1,138.4,21z M137.7,22.3L137.7,22.3C137.7,22.2,137.7,22.2,137.7,22.3L137.7,22.3
		c0,0.6-0.1,1.1-0.2,1.7h-0.1C137.6,23.4,137.7,22.8,137.7,22.3L137.7,22.3z M136.1,16.2c0,0.3,0,0.6,0,1c0,0,0,0.1-0.1,0.2
		C136,16.9,136,16.6,136.1,16.2c-0.1-0.3-0.2-0.3-0.4-0.3c-0.3,0.1-0.6,0.2-0.9,0.3c-0.3,0.1-0.5,0.1-0.8,0.1
		c-0.1-0.2,0.1-0.2,0.2-0.2c0.3-0.1,0.5-0.1,0.8-0.1c0.6-0.1,1.3-0.3,1.9-0.6l0.1,0c0.5-0.2,1-0.5,1.3-0.9c0.2,0.1,0.2,0.2,0,0.3
		l-0.4,0.3c-0.1,0.1-0.1,0.2,0,0.4c0,0,0,0,0,0c0.2,0.2,0.3,0.4,0.4,0.6c0,0-0.1-0.1-0.1-0.1c-0.1-0.1-0.2-0.3-0.4-0.3
		c-0.1,0-0.1-0.2-0.2-0.3c0-0.1-0.1-0.2-0.2-0.1c-0.3,0.2-0.6,0.4-1,0.5C136.1,16,136.1,16,136.1,16.2z M135.1,12.6
		c-0.1,0.4-0.1,0.4-0.6,0.3l-0.1,0C134.5,12.7,134.8,12.6,135.1,12.6z M134.5,11.7c0.2-0.2,0.5-0.2,0.7,0c0,0,0,0.1,0,0.1
		c0,0-0.1,0-0.1,0c-0.2,0.1-0.3,0.1-0.5,0.2l-0.1,0C134.5,11.9,134.5,11.8,134.5,11.7z M135,14.2C135,14.2,135,14.2,135,14.2
		L135,14.2C135.1,14.2,135.1,14.2,135,14.2c0,0.3-0.1,0.3-0.3,0.3C134.8,14.4,134.9,14.2,135,14.2z M134.8,14.7c0.1,0,0.2,0,0.3-0.1
		c0,0,0,0,0,0l0.1,0c0,0-0.1,0-0.1,0c0,0.1,0,0.1-0.2,0.2l-0.3,0.1C134.6,14.8,134.6,14.7,134.8,14.7z M135.3,15L135.3,15
		c0,0.1,0,0.1,0,0.2l-0.9,0.3v0C134.5,15.1,135,15.2,135.3,15z M135.3,15.6c0,0-0.1,0.1-0.1,0.1l-1,0.2l-0.1,0l0.9-0.3h0.1H135.3z
		 M134.4,14.5L134.4,14.5c-0.1,0-0.3,0-0.4-0.1c0.1-0.2,0.3-0.3,0.5-0.2c0,0,0.1,0.1,0.1,0.1C134.5,14.4,134.4,14.5,134.4,14.5z
		 M134.1,14.7c-0.1,0.2-0.4,0.3-0.7,0.3C133.6,14.8,133.8,14.6,134.1,14.7z M133.5,15.3c0.2,0,0.3,0.1,0.4,0.2c0,0,0,0,0,0l0,0
		c0,0,0,0,0,0c-0.1,0.1-0.1,0.2-0.3,0.1c-0.2,0-0.3,0-0.5-0.1C133.3,15.4,133.4,15.3,133.5,15.3z M135.9,15.6L135.9,15.6
		c0.2-0.2,0.3-0.4,0.5-0.4c0.1,0,0.2-0.1,0.3-0.1c0.1,0,0.1,0.1,0.2,0.1l0,0c0,0-0.1,0.1-0.1,0.1c-0.2,0.1-0.5,0.2-0.7,0.3H135.9z
		 M138.3,16.6H138c0-0.1,0-0.1,0-0.2l0,0L138.3,16.6z M137.4,15.9L137.4,15.9l-1,0.5c0,0,0-0.1,0-0.1l0.8-0.3
		C137.3,15.9,137.3,15.9,137.4,15.9z M136.6,16.8c0,0.1-0.1,0.3-0.1,0.4s-0.1,0-0.1,0.1c0,0,0-0.1,0-0.1
		C136.3,17,136.3,16.9,136.6,16.8z M136.4,16.8c0-0.1,0-0.3,0.1-0.3c0.3-0.2,0.6-0.3,1-0.4c0.1-0.1,0.2,0.1,0.3,0.1
		c0.1,0.1,0.1,0.3,0.1,0.4c0,0.1-0.1,0.1-0.2,0.1c-0.1-0.1-0.2-0.1-0.2-0.2c-0.2-0.2-0.3-0.2-0.5,0l0.1,0c-0.1,0.1-0.2,0.1-0.3,0.2
		L136.4,16.8z M137.6,17l-0.3,0.3l0.1-0.4L137.6,17z M136.8,16.7l0.3-0.2c-0.1,0.2-0.1,0.3-0.1,0.5L136.8,16.7L136.8,16.7z
		 M137.1,17.6L137.1,17.6c-0.1,0-0.2-0.1-0.3-0.2L137.1,17.6z M137.8,22.2C137.7,22.2,137.7,22.1,137.8,22.2
		c0.1-0.3,0.1-0.5,0.2-0.7c0,0.2-0.1,0.4-0.1,0.6L137.8,22.2C137.8,22.1,137.8,22.1,137.8,22.2z M137.4,20.9L137.4,20.9
		c-0.2,0.1-0.3,0.2-0.5,0.3C137,21.1,137.1,20.9,137.4,20.9c0.2-0.2,0.4-0.1,0.5,0.1C137.7,21,137.5,20.9,137.4,20.9z M138.1,21.6
		C138.1,21.6,138.1,21.6,138.1,21.6L138.1,21.6C138.1,21.6,138.1,21.6,138.1,21.6c0,0.7,0,1.3-0.2,2C137.9,22.9,138,22.3,138.1,21.6
		z M138.4,21.7c0,0.3,0,0.5,0,0.8s0,0.5,0,0.7c0,0.3-0.1,0.6-0.2,0.8c0,0,0,0,0,0l0,0c0,0,0,0,0,0C138.3,23.2,138.4,22.4,138.4,21.7
		z M139.8,17.4c0.2,0.4,0.4,0.9,0.4,1.4c0,0.2,0,0.4-0.1,0.7c0,0,0,0-0.1,0.1c0-0.2,0-0.4,0-0.5c0-0.3,0-0.7-0.2-1
		c-0.1-0.2-0.2-0.3-0.2-0.5c-0.1-0.2-0.3-0.4-0.5-0.5c-0.1,0-0.2-0.2-0.2-0.3c0.2,0,0.2,0.2,0.3,0.2c0.1,0.1,0.2,0.1,0.2,0.1l0,0.1
		C139.5,17.1,139.7,17.2,139.8,17.4z M139.9,16.8l-0.2,0.1c-0.1-0.3-0.1-0.3,0.1-0.4l0,0L139.9,16.8z M140,19.6L140,19.6
		c0.1,0.3,0,0.5-0.1,0.7c-0.4,0.5-0.4,0.5-0.7,0.5C139.6,20.5,139.9,20.1,140,19.6z M139.2,17.3c0,0-0.1-0.1-0.1-0.2
		c0.1,0.1,0.2,0.2,0.3,0.3l0.1,0c0.2,0.5,0.4,1,0.4,1.6h-0.1c0-0.2,0-0.4-0.1-0.6c-0.1-0.3-0.1-0.6-0.2-0.9
		C139.4,17.5,139.3,17.4,139.2,17.3z M139.2,14.8l-0.2-0.1c0-0.1,0-0.1,0-0.2C139.2,14.5,139.3,14.5,139.2,14.8L139.2,14.8z
		 M139.2,15.3c0,0,0,0.1,0.1,0.1l-0.1,0l-0.4-0.3l0.1,0L139.2,15.3z M138.9,17.2c-0.2-0.3-0.3-0.5-0.4-0.8l0.1,0
		C138.8,16.6,138.9,16.9,138.9,17.2z M139.3,21.1c0.3,0.6,0.5,1.2,0.6,1.9c0,0,0,0.1,0.1,0.1l0,0c0,0,0-0.1,0-0.1
		c-0.2-0.6-0.5-1.3-0.8-1.9L139.3,21.1z M141,19.7L141,19.7C140.9,19.7,140.9,19.7,141,19.7l-0.5-0.8C140.6,18.9,141,19.5,141,19.7
		L141,19.7z M140.9,20.3c-0.2-0.3-0.5-0.3-0.6-0.6l0.1,0C140.8,19.9,140.9,20,140.9,20.3z M140.9,20.3
		C140.9,20.3,140.9,20.3,140.9,20.3L140.9,20.3C140.9,20.3,140.9,20.3,140.9,20.3c0.4,0,0.3,0.3,0.4,0.5
		C141.2,20.8,141.2,20.8,140.9,20.3z M141.2,20.2c0.1-0.3,0.7-0.2,1,0.1l0,0C141.9,20.2,141.6,20.1,141.2,20.2z M142.6,20.3
		c-0.1-0.3-0.3-0.5-0.4-0.8c0-0.1,0-0.2,0-0.3c0-0.1,0-0.2,0-0.3h0c0.2,0.5,0.4,0.9,0.5,1.5L142.6,20.3z M142,17.5
		c-0.4-0.7-1-1.1-1.8-1.4c0-0.1,0.1-0.3,0.1-0.5c0.1,0.1,0.2,0.1,0.3,0.2c0.3,0.3,0.8,0.6,1.2,0.7c0.2,0.1,0.4,0.2,0.6,0.4L142,17.5
		z M139.9,15.7c0,0.1-0.1,0.3-0.1,0.4c0,0.2-0.2,0.2-0.2,0.3c-0.1-0.4-0.1-0.9,0-1.3c0.1,0.1,0.2,0.3,0.3,0.4S139.9,15.7,139.9,15.7
		z M139.5,13.4L139.5,13.4C139.5,13.4,139.5,13.4,139.5,13.4c-0.1-0.1-0.1-0.2,0.1-0.3C139.6,13.3,139.6,13.3,139.5,13.4
		C139.5,13.4,139.5,13.4,139.5,13.4z M139,14l-0.3,0.1c-0.1-0.1,0-0.2,0.1-0.3l0,0L139,14z M138.7,16.3c-0.3-0.3-0.5-0.6-0.7-0.8h0
		l0.5-0.5C138.6,15.4,138.6,15.9,138.7,16.3z M138.4,14.5L138.4,14.5l-0.1-0.1l0.2-0.3C138.7,14.3,138.7,14.3,138.4,14.5z M135.3,14
		c0-0.1,0-0.2,0.1-0.3c0,0,0-0.1,0-0.1l0,0c0.2-0.1,0.5-0.2,0.8-0.1C136,13.8,135.7,14,135.3,14z M135.6,13c0.1-0.3,0-0.4,0.5-0.3h0
		C136.1,12.9,135.8,12.8,135.6,13z M136,13c0,0.1,0,0.1-0.3,0.3l-0.4,0.2C135.3,13.2,135.4,13.1,136,13z M135.3,11.4h-0.8
		c0,0,0-0.1,0-0.1c-0.1-0.2,0-0.3,0.2-0.3l0.7,0C135.3,11.1,135.3,11.3,135.3,11.4z M134.8,13.3L134.8,13.3
		c-0.1,0.1-0.2,0.2-0.3,0.2c0,0,0,0,0,0c-0.2,0-0.4,0-0.6,0C134.3,13.1,134.4,13,134.8,13.3z M133.7,12c0-0.2,0-0.4,0.1-0.5
		c0.1-0.2,0.3-0.3,0.5-0.3c-0.1,0.3-0.1,0.6-0.2,0.9h-0.3l0.3-0.3v0L133.7,12z M134.1,12.8c-0.1,0.2-0.2,0-0.3,0.1c0,0,0,0,0,0v0
		c0,0,0,0,0,0C133.7,12.8,133.7,12.8,134.1,12.8z M134.3,11.1C134.3,11.1,134.2,11.1,134.3,11.1l-0.6,0.2c-0.1-0.1,0-0.3,0.1-0.4
		c0,0,0,0,0.1,0l0.3-0.2c0.1,0,0.1,0,0.2,0C134.3,10.9,134.3,11,134.3,11.1z M133.7,13.8c0.3,0,0.6-0.3,1-0.1
		c-0.3,0.1-0.5,0.3-0.8,0.3C133.7,14,133.7,13.9,133.7,13.8L133.7,13.8z M132.2,16c0.2,0.1,0.3,0,0.4-0.1c0.2-0.2,0.4-0.3,0.7-0.3
		c0.1,0,0.2,0.1,0.3,0.2c0,0,0,0.1,0,0.1c0,0-0.1,0-0.1,0c-0.2-0.1-0.4,0-0.4,0.1c0,0-0.2,0-0.3,0l-0.3,0.1c-0.1,0-0.2,0.1-0.3,0
		c-0.1,0-0.1,0-0.2,0c-0.1,0-0.2,0.1-0.3,0.2l-0.1,0C131.8,16.1,132,16,132.2,16z M132.2,16.7l0.1-0.1c0.1-0.2,0.3-0.2,0.4-0.2
		l0.3-0.1c0,0,0.1,0,0.1,0c0.1,0,0.1,0.1,0.2,0.1c0.1,0,0.2,0,0.3,0v0c0,0-0.1,0.1-0.1,0.1v0c-0.2,0.1-0.5,0.1-0.7,0.1
		c-0.1,0-0.3,0.1-0.4,0.1L132.2,16.7L132.2,16.7z M133.6,16.6c-0.1,0.4-0.1,0.4-0.7,0.2L133.6,16.6z M133.5,17.1
		C133.5,17.1,133.5,17.1,133.5,17.1c0.1-0.2,0.2-0.4,0.3-0.6C133.8,16.7,133.7,16.9,133.5,17.1C133.5,17.1,133.5,17.1,133.5,17.1
		L133.5,17.1z M133.7,17.3C133.7,17.3,133.7,17.3,133.7,17.3c0.1-0.1,0.1-0.1,0.1-0.1c0,0,0,0,0,0c0.1-0.1,0.2-0.2,0.3-0.2
		c0.1,0,0.1,0,0.2,0l-0.1-0.2c0.4-0.2,0.9-0.3,1.4-0.4l-0.3,0.3v0l0.4-0.3c0,0.2,0,0.4,0,0.7c0,0.1-0.1,0.2-0.2,0.2l-0.4,0.1
		c-0.2-0.3-0.3,0.1-0.4,0.2c0-0.2-0.1-0.3-0.1-0.5l0.6-0.2l-0.2,0.2v0.1l0.5-0.3c0-0.1-0.1-0.2-0.2-0.1c0,0,0,0,0,0
		c-0.5,0.1-1,0.3-1.4,0.4C133.8,17.2,133.7,17.2,133.7,17.3C133.7,17.3,133.7,17.3,133.7,17.3c0,0.1,0.1,0.1,0.2,0l0.4-0.2
		c0,0.4-0.3,0.5-0.5,0.7c0-0.1,0-0.2,0-0.3l-0.1,0C133.6,17.5,133.6,17.4,133.7,17.3z M135.8,20.4c0-0.2,0-0.3,0.1-0.5
		c0.1-0.1,0.1-0.2,0.1-0.3l0.3-1.2c0,0.9-0.2,1.7-0.6,2.5C135.7,20.7,135.8,20.5,135.8,20.4z M136.5,18.2c0.1,0.2,0.2,0.4,0.2,0.6
		c-0.1,0.7-0.3,1.4-0.6,2l-0.1,0.1C136.4,20,136.6,19.1,136.5,18.2z M136.6,18c-0.1-0.1-0.2-0.2-0.4,0l-0.1-0.1l0.2-0.4
		c0,0,0,0.1,0.1,0.1c0,0,0.1,0.1,0.2,0.1c0.1,0,0.2,0.1,0.3,0.2c0,0.1,0,0.1,0,0.1c0.2,0.1,0.1,0.3,0.1,0.5
		C136.7,18.3,136.7,18.1,136.6,18z M137.3,21.3l-0.5,1.1C136.8,22,137,21.6,137.3,21.3z M136.8,22.7c0.1-0.3,0.2-0.5,0.3-0.8
		c0.1-0.2,0.2-0.4,0.3-0.6h0.1c-0.1,0.2-0.2,0.4-0.3,0.6c-0.1,0.2-0.1,0.3-0.2,0.5c0,0.1,0.1,0.1,0.1,0.2c0.2-0.4,0.3-0.8,0.5-1.2
		h0.1c0,0,0,0.1,0,0.1c-0.1,0.5-0.3,1-0.4,1.5c0,0.1,0,0.2,0,0.3c0.1,0.1,0,0.3-0.1,0.4c-0.1,0-0.3,0-0.3-0.2v0
		C136.7,23.3,136.7,23,136.8,22.7z M138.4,25.4l0.1,0.4c0.1-0.1,0.1-0.2,0.1-0.3c0,0,0,0,0-0.1l0,0c0-0.1-0.1-0.2-0.1-0.3
		c0.2,0.1,0,0.4,0.3,0.5l-0.2-1c0.1,0.2,0.1,0.4,0.2,0.6c0.1,0.2,0,0.5,0.3,0.7c-0.1-0.5-0.2-1-0.3-1.5h0c0.1,0.4,0.3,0.7,0.3,1.1
		c0.1,0.3,0.1,0.7,0.1,1c0,0,0,0.1-0.1,0.1c0,0-0.1-0.1-0.1-0.1c0,0,0-0.3-0.1-0.4c-0.1,0.1-0.1,0.3-0.2,0.5c0-0.2-0.1-0.2-0.2-0.3
		C138.5,26.1,138.3,25.7,138.4,25.4z M140.6,26.1l0.3,0.3l0,0.1c-0.1,0-0.1,0-0.2-0.1C140.6,26.3,140.6,26.2,140.6,26.1z
		 M140.9,27.1c0.1,0.5,0.2,0.9,0.2,1.4C140.9,28.1,140.8,27.6,140.9,27.1L140.9,27.1z M141.8,22.1l0.2,0.7
		C141.8,22.7,141.7,22.4,141.8,22.1z M142,22.2c-0.1-0.1-0.1-0.2-0.2-0.3c0-0.1-0.1-0.1-0.1-0.2c-0.1-0.2-0.1-0.4-0.1-0.6
		c0,0,0-0.1,0-0.1c0-0.1,0.1-0.2,0-0.2c-0.1-0.1-0.2-0.2-0.2-0.3c0.2-0.1,0.3,0,0.4,0.2c0,0.1,0.1,0.1,0.2,0.2
		c0.1,0.1,0.1,0.1,0.1,0.2c0,0.1,0,0.2,0.1,0.3c0.1,0.3,0.2,0.6,0.3,0.9c0,0,0,0.1,0,0.1l-0.4-1.1l-0.2,0.1c0.2,0.5,0.4,1,0.5,1.5
		h-0.1c-0.1-0.1-0.1-0.2-0.2-0.2v0C142.1,22.5,142.1,22.3,142,22.2z M142.4,23.1c0.1,0.1,0.2,0,0.2-0.1s0-0.1,0.1-0.1
		s0.2-0.3,0.2-0.5c0.1-0.1,0.1-0.2,0.2-0.3c0,0.5-0.3,0.9-0.6,1.2l0,0c0-0.1-0.1-0.2-0.2-0.3C142.4,23.1,142.4,23.1,142.4,23.1z
		 M143.1,20.2c0-0.1-0.1-0.2-0.1-0.3c-0.1-0.3-0.3-0.6-0.4-1c-0.2-0.3-0.3-0.6-0.2-0.9h0l0.2,0.1c0,0.1,0.1,0.1,0.1,0.2
		c0.3,0.6,0.5,1.3,0.6,2C143.2,20.3,143.1,20.2,143.1,20.2z M140.4,15.1L140.4,15.1c0.2,0.2,0.5,0.5,0.8,0.7
		c0.1,0.1,0.3,0.1,0.4,0.2c0.5,0.2,0.9,0.5,1.1,0.8c0,0,0,0,0,0.1c-0.1-0.1-0.2-0.2-0.3-0.3c-0.2-0.1-0.4-0.3-0.6-0.3
		c-0.5-0.2-0.9-0.5-1.3-0.8c-0.1-0.1-0.2-0.3-0.4-0.2c0-0.1,0-0.3-0.2-0.2c0,0-0.1,0-0.1-0.1l-0.2-0.2c-0.1-0.1-0.2-0.2-0.1-0.3
		s0-0.2,0-0.2C139.8,14.6,140.1,14.8,140.4,15.1z M139.9,12L139.9,12c-0.2-0.1-0.4-0.1-0.5,0.1c-0.1,0.1-0.2,0.1-0.3-0.1
		c0-0.1,0.1-0.1,0.1-0.2c0.1,0,0.2-0.1,0.2-0.1c0,0,0.3,0.1,0.5,0C140,11.8,139.9,11.9,139.9,12z M139.9,11.3L139.9,11.3l0.2-0.2
		C140.2,11.2,140.1,11.3,139.9,11.3z M140,10.3c0-0.2,0.1-0.3,0.1-0.5C140.3,10,140.3,10.2,140,10.3z M138.9,10.3L138.9,10.3
		c0.3-0.4,0.5-0.7,0.8-1c0.1-0.1,0.2-0.2,0.3-0.2v0.1c0,0-0.1,0.1-0.1,0.1c-0.4,0.3-0.7,0.6-0.9,0.9C139,10.3,138.9,10.3,138.9,10.3
		z M139,13c0.2,0,0.3,0.1,0.3,0.2c0,0.1-0.1,0.1-0.2,0.1c-0.1-0.1-0.2-0.1-0.3-0.2L139,13z M138.7,11.6l0.2,0.1l-0.1,0.2
		C138.7,11.8,138.8,11.7,138.7,11.6L138.7,11.6z M138.8,12.6c-0.1-0.1-0.1-0.2-0.2-0.3C138.8,12.3,138.9,12.3,138.8,12.6z
		 M138.3,11.6c0.2-0.1,0.2,0,0.3,0.2l0,0h-0.2V11.6z M138.4,12.4L138.4,12.4c0.1,0.1,0.2,0.3,0.3,0.4c0.1,0.2,0.1,0.4,0,0.6
		c-0.2-0.4-0.4-0.7-0.6-1.1C138.2,12.2,138.3,12.3,138.4,12.4z M138.1,11.6l0.1,0.2l-0.4,0.1c0-0.1,0-0.2-0.1-0.3L138.1,11.6z
		 M137.1,10.5c-0.2-0.5-0.3-1-0.3-1.5c0-0.8,0.2-1.5,0.6-2.2c0.2-0.5,0.6-0.9,1.1-1l0.6-0.2v0.1l-0.3,0.1c-0.3,0.1-0.5,0.2-0.7,0.5
		c-0.2,0.2-0.4,0.4-0.5,0.7c-0.2,0.3-0.3,0.6-0.4,1c-0.1,0.3-0.1,0.6-0.1,0.8c0,0.2,0,0.5,0,0.7c0,0.3,0.1,0.6,0.2,0.8
		c0.1,0.3,0.1,0.6,0.5,0.8c0,0,0.1,0.1,0.1,0.2h-0.3C137.3,11,137.2,10.8,137.1,10.5z M137.6,11.8c0.1,0.1,0.1,0.1-0.2,0.2l-0.1-0.2
		H137.6z M136.6,12.1l0.5-0.3l0.1,0.2C137,12.3,136.8,12.1,136.6,12.1L136.6,12.1L136.6,12.1z M136.7,12.3l-0.7,0.2l0,0
		c0.1-0.1,0.2-0.2,0.3-0.2C136.4,12.3,136.5,12.3,136.7,12.3z M133.4,8.9c0.1-0.1,0.3-0.2,0.4-0.3c0,0-0.1-0.1,0.1,0
		c0.2,0.1,0.2,0,0.3-0.2c0.1,0.3,0.2,0.5,0.3,0.8c0,0,0,0.1,0,0.1c0,0,0,0.1,0,0.1c0,0.1,0.1,0.2,0.2,0.2c0,0,0,0,0.1,0
		c0.1,0,0.1,0,0.2-0.1c0-0.2,0.1-0.5,0.1-0.6c0-0.1,0-0.2,0-0.3l0.3,0.3l0.2-0.3l0.2-0.2c0.1,0.2,0.1,0.4,0,0.7c0,0-0.1,0-0.1,0
		c-0.1,0-0.3,0-0.4,0c-0.1,0-0.1,0.1-0.2,0.2c0,0,0,0.1,0,0.1l0.1-0.1c0.1,0,0-0.1,0.2-0.1s0.4,0,0.6,0l-0.1-0.1c0.1,0,0.2,0,0.3,0
		c0,0.1,0,0.1,0,0.2c-0.1,0.2-0.2,0.4-0.3,0.6h0.1c0.3-0.1,0.3,0,0.3,0.3c0,0.3-0.1,0.7-0.3,1c0,0.2,0,0.4,0,0.6c-0.1,0-0.1,0-0.2,0
		c0,0-0.1-0.1-0.1-0.1c0.1-0.2,0.1-0.5,0.1-0.8c0-0.1,0.2-0.3,0.2-0.4s0-0.2,0-0.2c0-0.1-0.2-0.1-0.2-0.1c-0.1,0-0.1,0.1-0.1,0.2
		c-0.1,0.3-0.2,0.3-0.4,0.3c-0.2,0-0.5,0-0.7,0c0-0.3,0.2-0.4,0.4-0.4s0.3,0,0.4,0s0.1-0.1,0.1-0.1c-0.2,0-0.3,0-0.5,0
		c-0.1,0-0.3,0.2-0.5-0.1c-0.1,0.1-0.1,0.3-0.1,0.3l-0.8,0.3c-0.1-0.1,0-0.3,0.1-0.4c0.1,0,0.1-0.2,0.1-0.2c0.1-0.1,0.2-0.1,0.3-0.2
		c0.1-0.1,0.1-0.1,0-0.2l-0.6,0.3c-0.1-0.3,0-0.4,0.3-0.5c0.1,0,0.2-0.1,0.3-0.1c0,0,0.1-0.1,0.1-0.1V9.4l-0.6,0.3
		c-0.2-0.3-0.1-0.4,0.2-0.5c0.1-0.1,0.3-0.1,0.4-0.2c-0.2-0.1-0.4-0.1-0.8,0.2C133.3,9,133.3,9,133.4,8.9z M132.4,10.5
		c0.2-0.3,0.5-0.6,0.9-0.7c0,0,0,0,0,0l0,0c0,0,0,0,0,0c0.1,0.1,0,0.2-0.1,0.3c-0.2,0.1-0.4,0.3-0.6,0.5c-0.1,0.1-0.1,0.1-0.2,0.2
		C132.3,10.7,132.3,10.6,132.4,10.5z M131,11.7l-0.1-0.1c0.1-0.1,0.2-0.1,0.3-0.2l0.4-0.2c0.1-0.1,0.2-0.1,0.3,0.1l0,0L131,11.7z
		 M131.6,11.9L131.6,11.9c-0.1,0-0.2-0.1-0.2-0.1c0,0,0.1-0.1,0.1-0.2c0.4-0.2,0.8-0.3,1.2-0.3c0,0,0.1,0,0.1,0.1
		c-0.2,0.1-0.4,0.1-0.6,0.2c-0.2,0.1-0.3,0.2-0.5,0.3C131.7,11.8,131.6,11.9,131.6,11.9z M130.8,13.1l1.1-0.5v0.1L130.8,13.1
		L130.8,13.1z M130.2,14.3c0.1-0.1,0.1-0.2,0.2-0.3l0.2-0.4c0.2,0.2,0.4,0.2,0.6,0c0.2-0.1,0.4-0.2,0.6-0.2c0,0.2-0.2,0.3-0.3,0.3
		l-0.5,0.2c-0.1,0.1-0.1,0.2-0.2,0.2v0l0.6-0.2l-1.5,0.7l0.3-0.2C130.1,14.4,130.1,14.4,130.2,14.3z M128.8,14.1
		c0.2-0.2,0.5-0.5,0.8-0.7c0.1-0.1,0.1-0.1,0.2,0l0,0v0c0,0,0,0,0,0l-1.2,1.1C128.7,14.3,128.8,14.2,128.8,14.1z M129,14.7l0.2-0.1
		c0.1,0.1,0.2,0.2,0.3,0.3c0,0,0,0.2,0,0.2l-0.1,0L129,14.7z M129.4,15.2l-0.1,0.1c0,0.1-0.1,0.1-0.2,0l-0.4-0.4l0.2-0.1L129.4,15.2
		z M129.5,14.3c0,0,0.1,0,0.1,0c0.1,0.1,0.1,0.2,0,0.4l0,0C129.5,14.5,129.4,14.4,129.5,14.3z M128.3,14.8l-0.4,0.3
		C128,14.9,128.1,14.8,128.3,14.8L128.3,14.8z M128,14.7c-0.2,0.3-0.4,0.6-0.7,0.9C127.3,15.3,127.7,14.7,128,14.7z M125.8,16.9
		c-0.1-0.3,0.1-0.2,0.3-0.3l0.2,0.5C126.1,17,125.8,17.2,125.8,16.9z M126.2,17.7L126.2,17.7l0.1-0.5l0.2,0.3L126.2,17.7z
		 M126.7,17.2c-0.1-0.1-0.3-0.3-0.4-0.4c-0.1-0.1-0.1-0.2,0-0.2c0,0,0.1,0,0.1,0l0.3,0.5C126.8,17,126.8,17.1,126.7,17.2
		C126.8,17.2,126.7,17.2,126.7,17.2z M127.6,17.2c0,0,0-0.1-0.1-0.1c0-0.1-0.1-0.1-0.1-0.1c-0.2,0-0.5-0.1-0.6-0.4l-0.1-0.1l0.2-0.2
		c0.2,0.3,0.4,0.5,0.7,0.6h0.1c0,0.3,0.2,0.2,0.3,0.3C127.9,17.4,127.7,17.4,127.6,17.2z M129.1,17.1c0-0.1,0-0.2,0.1-0.3h0.2
		L129.1,17.1z M129.6,16.6C129.6,16.6,129.5,16.6,129.6,16.6c-0.1,0-0.2,0-0.3,0c-0.1,0-0.2,0-0.3,0c-0.1,0-0.2-0.1-0.3-0.1
		c-0.1,0-0.2,0-0.3,0c0.1,0.2,0.3,0.2,0.4,0.4c0,0-0.1,0-0.2,0c-0.1,0-0.3-0.1-0.4-0.1c-0.1,0-0.2,0-0.2,0l0.5,0.4
		c-0.4,0-0.7-0.2-1-0.3l0.1-0.1l-0.3-0.2l-0.1-0.3l0.1-0.1c0.1,0.2,0.2,0.4,0.4,0.5l0.1-0.1c-0.2,0-0.3-0.1-0.3-0.2
		c0-0.1-0.1-0.3,0.1-0.4l0.4,0.4h0.1c-0.1-0.1-0.2-0.3-0.3-0.4c0-0.1,0-0.2,0.1-0.3l0.2,0.3c0.1,0.2,0.2,0.2,0.4,0.1l-0.4-0.4
		l0.1-0.1l0.1-0.1c0.2,0.3,0.3,0.4,0.4,0.3l-0.3-0.4l0.2-0.2l0.6,0.5l-0.6,0.7c0.4,0.1,0.9,0.1,1.3-0.1
		C129.8,16.5,129.7,16.6,129.6,16.6z M130.2,16c-0.1,0.1-0.2,0.1-0.3,0.1c-0.3,0.1-0.7,0.1-1,0.1c0,0-0.1,0-0.1,0
		c0.1-0.1,0.2-0.2,0.3-0.2c0.1,0,0.2-0.1,0.3,0c0,0.1,0.2,0,0.3,0C129.8,15.9,130,15.9,130.2,16L130.2,16z M130.3,15.6
		c-0.2,0-0.5,0.1-0.7,0.1l-0.2,0h-0.2c0-0.2,0.2-0.3,0.4-0.3c0.1,0,0.1,0,0.2,0h0c0.3-0.1,0.5-0.2,0.8-0.2
		C130.7,15.4,130.5,15.6,130.3,15.6z M130.3,15l-0.8,0.3c0.1-0.1,0.1-0.2,0.2-0.3c0.3-0.1,0.5-0.2,0.8-0.3c0.3-0.1,0.3-0.1,0.5-0.1
		c0,0.1-0.1,0.2-0.1,0.2C130.7,14.9,130.5,15,130.3,15z M131.4,15.2h0.1l0.1,0.1c0,0-0.1,0.1-0.1,0.1s-0.3,0.1-0.5,0
		c-0.1-0.1-0.1-0.1-0.1,0c0,0,0,0,0,0c0,0,0,0,0,0c0,0,0,0.1,0,0.1c0,0.1,0.1,0.1,0.1,0.1c0.1,0,0.2,0,0.3,0.1l0,0.1l-0.3,0.2
		c-0.1-0.1-0.2-0.3-0.2-0.4c0,0,0-0.1,0.1-0.2c0,0,0,0,0,0c0,0,0,0,0,0c0-0.1,0.2-0.1,0.2-0.2c0.1-0.2,0.2-0.4,0.4-0.5
		c0-0.1,0.1-0.2,0.1-0.2c0.1-0.1,0.1-0.1,0.2-0.2c0.1,0,0.2-0.1,0.1-0.2c0-0.2,0.1-0.1,0.1-0.2c0.1-0.1,0.2-0.2,0.4-0.1c0,0,0,0,0,0
		c0.1,0,0.3,0,0.4,0c0.2-0.1,0.4,0,0.7,0.1c-0.1,0-0.1,0.1-0.2,0.1c-0.2,0-0.5,0-0.7,0.1c-0.2,0.1-0.2,0.1-0.3,0.2v0.1h0.5v0.1
		c-0.1,0.1-0.2,0.1-0.3,0.1c-0.2,0-0.3,0-0.5,0c-0.2,0-0.1,0.1-0.2,0.2l0.4,0.1v0.1c-0.1,0-0.2,0.1-0.3,0.1
		C131.7,14.9,131.5,15,131.4,15.2z M131.5,19.7c0,0,0,0.1,0,0.1c0,0.3-0.1,0.4-0.2,0.6c-0.1-0.1-0.1-0.1-0.2-0.2
		c-0.1-0.1-0.1-0.2-0.1-0.3c0-0.4,0.1-0.9,0.4-1.2l0.7-0.7l-0.1-0.2l-0.5,0.5l0.9-1l-0.1-0.1c-0.2,0.1-0.4,0.3-0.6,0.5
		c-0.2,0.2-0.3,0.3-0.5,0.5c0.1-0.2,0.3-0.4,0.5-0.6c0.2-0.2,0.4-0.4,0.6-0.5c0.3-0.2,0.7-0.2,1,0c0,0.2-0.2,0.3-0.4,0.3
		c-0.1,0-0.3,0.2-0.4,0.3v0.1l0.2-0.1c0,0.1,0,0.2,0,0.4c0,0.1,0,0.1-0.1,0.2c-0.2,0.2-0.4,0.4-0.6,0.6v0
		C131.9,19.2,131.7,19.5,131.5,19.7z M131.8,20.9c0-0.2,0-0.5,0.1-0.7c0.1-0.7,0.4-1.3,0.9-1.8c0.1-0.2,0.3-0.4,0.4-0.6l-0.2-0.1
		l0.4-0.3c0,0,0,0.1,0,0.1h0c0.1,0.1,0.2,0.2,0.2,0.4c0,0,0.1,0.1,0,0.2l-0.1,0l-0.2-0.4c0,0.2,0,0.3,0.1,0.4c0.1,0.2,0.1,0.4,0,0.6
		c-0.1,0.4-0.1,0.7-0.2,1.1c0,0.2-0.2,0.3-0.3,0.3c0-0.2,0-0.3,0.1-0.4c0-0.3,0-0.7,0.2-0.9v0c0-0.1,0.1-0.1,0.1-0.2
		c0-0.1,0-0.1,0-0.2c-0.1,0-0.1,0-0.2,0.1c-0.2,0.6-0.4,1.1-0.5,1.7c0,0.1-0.1,0.1-0.1,0.2c0-0.2,0.1-0.3,0.1-0.5
		c0-0.2,0.1-0.5,0.1-0.7c0.1-0.3,0.2-0.5,0.4-0.8c0-0.1,0.1-0.1,0.1-0.2H133l-0.5,0.7c-0.3,0.5-0.5,1.1-0.6,1.6c0,0.1,0,0.2,0,0.3
		L131.8,20.9C131.9,21,131.8,20.9,131.8,20.9z M131.9,22c-0.1,0.3-0.2,0.6-0.1,0.8l0,0c0,0,0,0,0,0.1c-0.1-0.2-0.2-0.4-0.2-0.6
		c0-0.4,0.1-0.7,0.3-1.1c0.3-0.6,0.8-1,1.4-1.1c0.1,0,0.3-0.1,0.4-0.1c0.1,0,0.1,0,0.2,0.1c-0.4,0-0.7,0-1,0.2
		C132.4,20.8,132.1,21.4,131.9,22z M133.8,20.5L133.8,20.5c0.1,0.1,0.1,0.1,0.1,0.2c-0.2,0.2-0.4,0.4-0.6,0.5l-0.1,0L133.8,20.5z
		 M132.6,21.5c0.3-0.3,0.6-0.7,0.9-0.9l0.1-0.1l0.1,0c-0.1,0-0.1,0.1-0.2,0.1L132.6,21.5z M132,22.2C132,22.2,132,22.2,132,22.2
		c0.1-0.2,0.1-0.4,0.2-0.5c0.1-0.5,0.4-0.8,0.8-1.1c-0.2,0.2-0.3,0.4-0.5,0.6l-0.3,0.5c0.2,0.1,0.3,0.3,0.2,0.5
		c-0.1,0.1-0.1,0.2-0.3,0.2c0,0,0,0,0,0l0,0c0,0,0,0,0,0C132.1,22.4,132,22.3,132,22.2z M133.9,25.1L133.9,25.1l-0.1,0
		c0.1-0.2,0.1-0.4,0.2-0.6c0-0.2,0-0.3,0-0.5c0,0,0,0,0,0c0,0,0,0,0,0l0.2-0.9C134.1,23.7,134,24.4,133.9,25.1z M133.9,22
		c0.1,0.1,0.2,0.2,0.3,0.1c0,0.2,0,0.4-0.1,0.6c-0.1,0.3-0.2,0.7-0.3,1c-0.1,0.4-0.1,0.7-0.2,1c0,0.1-0.1,0.2-0.1,0.3h-0.1
		c0.1-0.4,0-0.9,0.1-1.3c0.1-0.4,0.2-0.8,0.3-1.2h-0.1c-0.4,0.8-0.6,1.6-0.6,2.5c-0.1-0.4,0-0.7,0.1-1.1c0.1-0.4,0.3-0.9,0.5-1.3
		c0-0.1,0-0.2-0.1-0.2c0,0,0,0.1,0,0.1c0,0,0,0,0,0v0c0,0,0,0,0,0c-0.2,0.5-0.4,1-0.6,1.4c0,0,0-0.1,0-0.1c-0.1,0.2-0.1,0.5-0.2,0.7
		l-0.2-0.1c-0.1-0.1-0.2-0.1-0.2-0.2c-0.1-0.4-0.1-0.8,0.1-1.2c0-0.1,0.2-0.2,0.3-0.1c0.2-0.3,0.3-0.6,0.5-0.9l-0.5,0.8
		c0.1-0.3,0.2-0.6,0.5-0.8c0,0,0,0,0,0c0.1-0.1,0-0.3,0-0.5c-0.3,0.2-0.5,0.4-0.7,0.8c-0.1,0.4-0.3,0.7-0.4,1c0-0.1,0-0.1,0-0.1
		c0.1-0.6,0.4-1.2,0.9-1.6c0.2-0.3,0.7-0.4,1-0.2v0.2c0,0.1-0.1,0.2,0.1,0.2c0.1,0,0.1,0,0.1,0l-0.1,0.1c-0.1-0.2-0.3-0.2-0.4-0.2
		C133.9,21.7,133.8,21.9,133.9,22z M134.4,24L134.4,24c0.1-0.6,0.2-1.2,0.3-1.8h0.1C134.6,22.8,134.5,23.4,134.4,24z M134.8,25.8
		c-0.2-0.1-0.3-0.3-0.3-0.6v0c0.1,0.2,0.2,0.3,0.4,0.5L134.8,25.8z M134.9,24.6V25C134.8,24.9,134.8,24.7,134.9,24.6z M135,23.4
		c0,0.3-0.1,0.4-0.1,0.7h-0.1c0-0.3,0.1-0.5,0.1-0.8c0-0.4,0-0.8,0-1.1c0-0.1-0.1-0.3-0.3-0.3h0c-0.1,0-0.2-0.2-0.1-0.3
		c0.3,0.2,0.5,0.5,0.5,0.9C135.1,22.8,135,23.1,135,23.4z M134.6,21.3c-0.2-0.2-0.3-0.4-0.5-0.6c-0.1-0.1-0.1-0.3-0.1-0.4h0.1
		c0,0.1,0.1,0.2,0.1,0.3c0.1,0.3,0.3,0.6,0.5,0.8c0.2,0.2,0.5,0.2,0.8,0.1c0.4-0.1,0.6-0.5,0.8-0.8c0.1-0.4,0.3-0.7,0.3-1.1
		c0-0.2,0.1-0.3,0.1-0.5c0.2,0.5,0.1,1.1-0.2,1.6h0c-0.2,0.4-0.4,0.7-0.8,0.9C135.4,21.7,134.9,21.6,134.6,21.3z M135.6,21.8
		l-0.2,0.6h0C135.4,22.2,135.5,22,135.6,21.8L135.6,21.8z M135.9,24.8c0,0.1-0.1,0.3-0.1,0.4l-0.1,0c0-1,0.1-1.9,0.3-2.9
		c0,0.1-0.1,0.1-0.2,0.2c-0.1,0.5-0.2,1-0.3,1.5c0,0.1,0,0.2,0,0.2c0,0.1,0,0.3,0.1,0.4c0,0.1,0.1,0.3-0.1,0.3c-0.1,0-0.2,0-0.3,0
		c0,0,0,0.1,0,0.1v-0.1c0,0,0,0,0,0c0-0.3,0-0.7,0.1-1c0-0.2,0.1-0.3,0.1-0.5c0.1-0.4,0.2-0.8,0.3-1.2h0.1c-0.1,0.6-0.2,1.2-0.3,1.9
		h0.2c0-0.1,0-0.1,0-0.2c0.1-0.5,0.1-0.9,0.2-1.3h0c0,0,0-0.1,0.1-0.1c0-0.2,0.1-0.4,0.1-0.6h0.1c0,0.1,0,0.2,0,0.2
		c0-0.1,0-0.2,0.1-0.4h0.1c0,0.2,0,0.4,0,0.6c0,0.2-0.1,0.5-0.1,0.7c0,0.2-0.1,0.5-0.1,0.8C136,24.1,135.9,24.5,135.9,24.8z
		 M136,24.8l0.2-1.1h0.1C136.3,24,136.2,24.4,136,24.8z M136.2,25.9L136.2,25.9c0.1-0.1,0-0.3,0.2-0.4h0
		C136.3,25.6,136.2,25.7,136.2,25.9z M136,28.5c0.1-0.4,0.2-0.7,0.3-1.1h0c0.1-0.3,0.2-0.7,0.2-1C136.5,27.1,136.4,27.9,136,28.5z
		 M136.5,24.5L136.5,24.5l-0.2,0.7c0,0,0,0,0,0.1h-0.1c0.1-0.2,0.1-0.4,0.2-0.6c0,0,0-0.1,0-0.1c0-0.1,0-0.2,0-0.4
		C136.5,24.3,136.6,24.4,136.5,24.5z M136.5,23.9c-0.1-0.2-0.2-0.4-0.2-0.7c-0.1-0.6,0.1-1.3,0.4-1.8c0,0,0-0.1,0.1-0.1
		c0,0,0,0,0.1,0c-0.1,0.3-0.2,0.5-0.3,0.7c0,0.1,0,0.1,0,0.2c-0.1,0.5-0.1,0.9,0,1.4c0,0.1,0.1,0.3,0.2,0.4l0,0
		C136.6,24,136.5,24,136.5,23.9z M136.7,25.5L136.7,25.5l0.3-0.8l0.1,0.1L136.7,25.5z M137,25.4c-0.1-0.2,0-0.4,0.2-0.5c0,0,0,0,0,0
		c0,0,0.1,0,0.1,0s0.1-0.1,0.2-0.1C137.5,25,137.3,25.2,137,25.4L137,25.4z M136.6,29.4c0.1-0.1,0.1-0.3,0.2-0.4
		c0-0.1,0.1-0.1,0.1-0.2h0.1c0,0.2,0,0.3,0,0.4h0c-0.1,0.2,0,0.3,0.2,0.4c0.1-0.3,0.1-0.6,0.3-0.8h0.1c0,0.1-0.1,0.3-0.1,0.4
		l-0.1,0.6c0,0.1-0.1,0.2-0.2,0.2c0,0,0,0-0.1,0c-0.2-0.1-0.3-0.2-0.3-0.4C136.5,29.5,136.5,29.4,136.6,29.4z M137.8,29.9
		c0,0.1-0.1,0.2-0.1,0.3c-0.4,0.3-0.9,0.3-1.3,0c0,0-0.1-0.1-0.1-0.1l0,0c-0.1-0.3-0.1-0.6,0-0.9c0,0.1,0,0.3,0,0.5
		c0,0.4,0.3,0.7,0.7,0.7c0.3,0.1,0.6-0.1,0.7-0.4C137.7,29.9,137.7,29.9,137.8,29.9c-0.1-0.2,0-0.4,0-0.5
		C137.8,29.5,137.8,29.7,137.8,29.9z M137.6,28.7c0,0,0.1-0.1,0.2-0.1c0,0.5-0.1,0.9-0.3,1.4h-0.1C137.4,29.6,137.5,29.1,137.6,28.7
		L137.6,28.7z M139.2,31.5C139.2,31.5,139.3,31.5,139.2,31.5C139.3,31.4,139.4,31.5,139.2,31.5c0.1,0.3,0.1,0.6,0,0.9l0,0
		c0,0.1-0.1,0.2-0.1,0.2H139c0-0.2,0-0.4,0.1-0.6C139.1,31.8,139.2,31.7,139.2,31.5z M138.7,30.9c0.2-0.2,0.3,0,0.4,0l-0.1,0.2
		C139,30.8,138.8,31,138.7,30.9L138.7,30.9z M138.2,30.8L138.2,30.8c0.1,0.1,0.1,0.1,0.1,0.2c0,0.1-0.1,0.2-0.1,0.3
		c-0.1,0.2,0,0.4,0.2,0.5c0.1-0.2,0.1-0.5,0.2-0.7h0.1c0,0.1,0,0.1,0,0.2c0,0.2,0,0.4-0.1,0.6h0c-0.1,0.1,0,0.3,0.1,0.3
		c0,0,0,0,0.1,0c0.1-0.3,0.2-0.6,0.3-0.8c0.1,0.4,0,0.9-0.2,1.3c0-0.1,0-0.2,0-0.3l-0.4,0.2c-0.4-0.4-0.6-0.8-0.3-1
		C138,31.3,138.2,31,138.2,30.8z M136.9,28.5L136.9,28.5c0.1-0.1,0.1-0.2,0.3-0.1c0.4,0.1,0.8,0,1-0.4
		C138.1,28.4,137.2,28.7,136.9,28.5z M137.9,27.3c-0.1,0.2-0.1,0.2-0.1,0.3l-0.1,0.1l0,0c0.1-0.3,0.3-0.7,0.4-1h0.1
		c0,0,0.1,0.1,0,0.2C138.1,26.8,138,27.1,137.9,27.3z M138.2,27.5l0.2-0.6h0.1C138.4,27.1,138.3,27.3,138.2,27.5L138.2,27.5
		L138.2,27.5z M138.8,27.2l-0.4,0.3c0.1-0.1,0.1-0.3,0.2-0.4C138.8,27,138.8,27.2,138.8,27.2L138.8,27.2z M140.2,26.5
		c-0.2,0.4-0.6,0.5-1,0.5h0c-0.4,0-0.7-0.3-0.8-0.6c-0.1-0.1-0.2-0.2-0.1-0.4c0.1,0.3,0.3,0.5,0.5,0.7c0.1,0,0.1,0.1,0.2,0.1
		l0.2,0.2c0.1,0,0.3-0.1,0.4-0.1c0.1,0,0.3-0.2,0.4-0.3L140.2,26.5L140.2,26.5c0-0.1,0-0.2,0-0.3C140.3,26.3,140.2,26.4,140.2,26.5z
		 M140.4,26.1c-0.3-0.6-0.4-1.3-0.2-1.9c0,0.1,0,0.1,0,0.2c-0.1,0.5,0,1.1,0.3,1.5C140.5,26,140.5,26,140.4,26.1L140.4,26.1z
		 M140.6,27L140.6,27c0.1,0.1,0.1,0.3,0.2,0.5C140.5,27.4,140.5,27.2,140.6,27z M140.8,29.9L140.8,29.9
		C140.8,29.9,140.8,29.9,140.8,29.9c0.1-0.3,0.1-0.5,0.2-0.7h0C141.1,29.4,141,29.7,140.8,29.9C140.8,29.9,140.8,29.9,140.8,29.9z
		 M141.3,29.3c0,0.1,0,0.3-0.1,0.4C141.2,29.6,141.2,29.4,141.3,29.3C141.4,29.2,141.3,29.2,141.3,29.3
		C141.4,29.2,141.3,29.2,141.3,29.3L141.3,29.3z M142.5,27c-0.1,0.4-0.2,0.8-0.3,1.2c-0.1,0.2-0.2,0.3-0.3,0.4
		c0,0.1-0.1,0.1-0.1,0.2c-0.2,0.2-0.5,0.2-0.8,0.1c0,0-0.1,0-0.1,0v0c0,0,0.1,0,0.1,0c0.2,0,0.3,0,0.5,0c0.2,0,0.3-0.2,0.5-0.3
		c0.1-0.2,0.3-0.5,0.4-0.8l-0.5,0.7c-0.1-0.4-0.1-0.9-0.1-1.3c0.2,0.1,0,0.4,0.2,0.5c0.2-0.2,0.2-0.4,0.2-0.7h0.1c0,0.1,0,0.3,0,0.4
		l0.2,0.1c0.1-0.3,0.1-0.6,0.2-0.9l0.1-0.1C142.5,26.7,142.5,26.9,142.5,27z M142.5,25.7c0,0.1,0,0.2-0.1,0.3c0-0.2,0-0.4,0-0.6
		c0,0,0-0.1,0-0.1l0.1,0.1C142.5,25.5,142.5,25.6,142.5,25.7z M142.6,25.1c-0.1-0.3-0.1-0.5-0.1-0.7l0,0c0-0.2-0.1-0.5-0.1-0.7v0.1
		l-0.4-0.6l0.1-0.1C142.5,23.3,142.7,24.6,142.6,25.1z M142.8,24.8L142.8,24.8l-0.2-1.2c0.1,0.3,0.2,0.6,0.3,0.9
		C142.9,24.6,142.8,24.7,142.8,24.8z M143.4,22.3L143.4,22.3c0.1,0.1,0.2,0.2,0.3,0.3c0.2,0.3,0.3,0.7,0.3,1.1c0,0,0,0.1,0,0.1
		c0.2,0.2,0.1,0.6-0.1,0.7c-0.1,0.1-0.3,0-0.3-0.1c0-0.1-0.1-0.3-0.1-0.4c0-0.2-0.2-0.3-0.2-0.5h0c0,0-0.1,0-0.1,0
		c0.1,0.4,0.2,0.9,0.2,1.3c0,0,0,0,0,0.1c0,0,0,0.1,0,0.1c0-0.1,0-0.1,0-0.2c0-0.2,0-0.3-0.1-0.5c-0.1-0.3-0.3-0.7-0.4-1
		c0-0.1,0.1-0.2,0.1-0.2c0,0,0.1,0,0.1-0.1c0-0.1,0-0.2,0.2-0.2C143.3,22.7,143.4,22.5,143.4,22.3z"/>
	<path class="st0" d="M131.3,9.6C131.3,9.6,131.3,9.6,131.3,9.6c0.1,0,0,0.1,0.2,0c0.1-0.1,0.2-0.2,0.3-0.3
		C131.5,9.3,131.4,9.4,131.3,9.6L131.3,9.6z"/>
	<path class="st0" d="M127.4,12.4l0.7-0.7l-0.1,0l-0.6,0.5C127.4,12.3,127.4,12.3,127.4,12.4L127.4,12.4z"/>
	<path class="st0" d="M143.6,23.9c0,0.1,0,0.2,0,0.4c0.2-0.3,0.2-0.7,0-0.9h-0.1h0c0,0.1,0,0.2,0,0.2
		C143.5,23.7,143.6,23.8,143.6,23.9z"/>
	<path class="st0" d="M125.3,17.5c-0.1-0.2-0.1-0.4,0-0.6c0.1-0.2,0.3-0.5,0.5-0.7c0,0,0-0.1,0-0.1c0,0,0-0.1-0.1-0.1
		s-0.2,0.1-0.3,0.1h-0.1c0,0-0.1,0.1-0.1,0.1c-0.1,0-0.1,0.3-0.1,0.4c0,0.2-0.1,0.6-0.2,0.9c-0.1,0.3,0,0.2,0.1,0.2
		c0.1,0,0.1,0,0.2,0l0.4-0.2L125.3,17.5z"/>
	<path class="st0" d="M131.7,10.2C131.8,10.2,131.8,10.2,131.7,10.2l-0.1-0.1C131.7,10.1,131.7,10.1,131.7,10.2z"/>
	<path class="st0" d="M131.7,9.9c0.2-0.2,0.4-0.3,0.7-0.5l0.1-0.1v0l-0.4,0.2c0-0.1,0-0.2,0-0.3h0L131.8,9c-0.1-0.1-0.2-0.1-0.3-0.2
		c0.3,0.1,0.5,0.3,0.6,0.6L131.7,9.9c-0.1-0.2-0.2-0.2-0.2-0.2c0,0-0.1,0-0.1,0c0,0,0,0.1,0,0.1l0.2,0.2
		C131.7,10,131.7,10,131.7,9.9C131.7,9.9,131.7,9.9,131.7,9.9z"/>
	<polygon class="st0" points="128.6,11.6 128.5,11.6 128.5,11.7 	"/>
	<path class="st0" d="M128.6,12.6l0.8-0.8C129.2,11.8,128.6,12.4,128.6,12.6z"/>
	<path class="st0" d="M128.3,12.3l0.7-0.6c-0.3,0.1-0.5,0.4-0.7,0.5C128.3,12.2,128.3,12.3,128.3,12.3z"/>
	<path class="st0" d="M131.8,10.7c-0.1-0.1-0.3-0.1-0.4,0c0,0,0,0.1,0,0.2L131.8,10.7z"/>
</g>
<path class="st0" d="M79.3,49v-4.3h0.5l1.8,2.7l1.8-2.7h0.5V49h-0.5v-3.4l-1.7,2.6l-1.7-2.6V49H79.3z"/>
<path class="st0" d="M85.6,49l2.1-4.3h0.4l2.2,4.3h-0.6l-0.6-1.2h-2.4L86.2,49H85.6z M87,47.3h1.9l-1-1.9L87,47.3z"/>
<path class="st0" d="M92.2,49v-4.3h0.5V49H92.2z"/>
<path class="st0" d="M94.8,48.4l0.3-0.5c0.3,0.2,0.6,0.4,1,0.5c0.3,0.1,0.7,0.2,1,0.2c0.4,0,0.7-0.1,1-0.3c0.2-0.1,0.4-0.4,0.4-0.7
	c0-0.2-0.1-0.4-0.3-0.5C98,47,97.8,47,97.5,46.9h-0.3c-0.5,0-1-0.1-1.5-0.3c-0.2-0.1-0.3-0.2-0.4-0.4c-0.1-0.2-0.2-0.3-0.2-0.5
	c0-0.3,0.2-0.7,0.5-0.8c0.4-0.2,0.8-0.4,1.2-0.3c0.4,0,0.7,0.1,1.1,0.2c0.4,0.1,0.7,0.3,1,0.5l-0.3,0.5c-0.3-0.2-0.5-0.4-0.8-0.5
	c-0.3-0.1-0.6-0.2-0.9-0.2c-0.3,0-0.6,0.1-0.8,0.2c-0.2,0.1-0.3,0.3-0.3,0.5c0,0.1,0,0.1,0,0.2c0,0.1,0.1,0.1,0.2,0.2
	c0.4,0.2,0.8,0.3,1.2,0.2l0.6,0c0.4,0,0.7,0.2,1,0.4c0.3,0.2,0.4,0.5,0.4,0.9c0,0.4-0.2,0.8-0.5,1c-0.4,0.3-0.9,0.4-1.4,0.4
	c-0.4,0-0.8-0.1-1.2-0.2C95.5,48.8,95.2,48.6,94.8,48.4z"/>
<path class="st0" d="M103.2,49.1c-0.6,0-1.2-0.2-1.6-0.7c-0.4-0.4-0.7-1-0.6-1.6c0-0.6,0.2-1.2,0.6-1.6c0.9-0.9,2.3-0.9,3.2,0
	c0.4,0.4,0.7,1,0.6,1.6c0,0.6-0.2,1.2-0.6,1.6C104.3,48.9,103.8,49.1,103.2,49.1z M103.2,48.6c0.5,0,0.9-0.2,1.2-0.5
	c0.3-0.3,0.5-0.8,0.5-1.3c0-0.5-0.2-0.9-0.5-1.3c-0.7-0.7-1.8-0.7-2.4,0c0,0,0,0,0,0c-0.3,0.3-0.5,0.8-0.5,1.3
	c0,0.5,0.2,0.9,0.5,1.3C102.3,48.5,102.7,48.6,103.2,48.6z"/>
<path class="st0" d="M107.6,49v-4.3h0.3l2.8,3.2v-3.2h0.5V49h-0.3l-2.8-3.2V49H107.6z"/>
<path class="st0" d="M117.6,49v-4.3h3.4v0.5h-2.9v1.3h1.7V47h-1.7v2H117.6z"/>
<path class="st0" d="M124.6,49.1c-0.6,0-1.2-0.2-1.6-0.7c-0.4-0.4-0.7-1-0.6-1.6c0-0.6,0.2-1.2,0.6-1.6c0.9-0.9,2.3-0.9,3.2,0
	c0.4,0.4,0.7,1,0.6,1.6c0,1.2-0.9,2.2-2.1,2.3C124.7,49.1,124.7,49.1,124.6,49.1z M124.6,48.6c0.5,0,0.9-0.2,1.2-0.5
	c0.3-0.3,0.5-0.8,0.5-1.3c0-0.5-0.1-0.9-0.5-1.3c-0.7-0.7-1.8-0.7-2.4,0c0,0,0,0,0,0c-0.3,0.3-0.5,0.8-0.5,1.3
	c0,0.5,0.2,0.9,0.5,1.3C123.7,48.5,124.2,48.6,124.6,48.6z"/>
<path class="st0" d="M129,49v-4.3h0.3l2.8,3.2v-3.2h0.5V49h-0.3l-2.8-3.2V49H129z"/>
<path class="st0" d="M137,44.7c0.6,0,1.2,0.2,1.6,0.6c0.8,0.9,0.8,2.2,0,3.1c-0.4,0.4-1,0.6-1.6,0.6h-1.9v-4.3H137z M137,45.2h-1.3
	v3.3h1.3c0.5,0,0.9-0.1,1.3-0.4c0.3-0.3,0.5-0.8,0.5-1.2c0-0.5-0.2-0.9-0.5-1.2C137.9,45.3,137.5,45.2,137,45.2z"/>
<path class="st0" d="M141.4,49v-4.3h3.4v0.5H142v1.3h1.7V47H142v1.6h3V49H141.4z M143.1,44.1h-0.4l0.8-1.4h0.6L143.1,44.1z"/>
<path class="st0" d="M147,49v-4.3h3.4v0.5h-2.9v1.3h1.7V47h-1.7v1.6h3V49H147z"/>
<path class="st0" d="M156.5,49v-4.3h3.4v0.5H157v1.3h1.7V47H157v1.6h3V49H156.5z"/>
<path class="st0" d="M162.1,49v-4.3h0.3l2.8,3.2v-3.2h0.5V49h-0.3l-2.8-3.2V49H162.1z"/>
<path class="st0" d="M172.6,49v-4.1h0.6V49H172.6z"/>
<path class="st0" d="M179.6,46.7c0.2,0.1,0.4,0.2,0.6,0.4c0.1,0.2,0.2,0.4,0.2,0.6c0,0.4-0.2,0.8-0.6,1c-0.5,0.3-1,0.4-1.5,0.4
	c-0.5,0-1.1-0.1-1.5-0.4c-0.3-0.2-0.6-0.6-0.6-1c0-0.2,0.1-0.4,0.2-0.6c0.1-0.2,0.3-0.3,0.6-0.4c-0.1-0.1-0.3-0.2-0.3-0.3
	c-0.1-0.1-0.1-0.3-0.1-0.4c0-0.3,0.2-0.6,0.5-0.8c0.8-0.4,1.8-0.4,2.6,0c0.3,0.2,0.5,0.5,0.5,0.8c0,0.1,0,0.3-0.1,0.4
	C179.8,46.5,179.7,46.6,179.6,46.7z M176.8,47.7c0,0.3,0.2,0.5,0.4,0.7c0.7,0.3,1.5,0.3,2.2,0c0.2-0.1,0.4-0.4,0.4-0.7
	c0-0.2-0.1-0.5-0.4-0.6c-0.4-0.1-0.8-0.2-1.1-0.2c-0.4,0-0.8,0-1.1,0.2C176.9,47.2,176.7,47.5,176.8,47.7z M179.5,45.9
	c0-0.2-0.1-0.4-0.3-0.4c-0.6-0.2-1.2-0.2-1.8,0c-0.2,0.1-0.3,0.2-0.3,0.4c0,0.2,0.1,0.4,0.3,0.4c0.3,0.1,0.6,0.2,0.9,0.1
	c0.3,0,0.6,0,0.9-0.2C179.3,46.2,179.5,46.1,179.5,45.9z"/>
<path class="st0" d="M181.6,48.4l0.3-0.5c0.3,0.2,0.6,0.4,1,0.5c0.3,0.1,0.6,0.2,0.9,0.2c0.4,0,0.7-0.1,1-0.3
	c0.2-0.2,0.4-0.5,0.4-0.8c0-0.3-0.2-0.5-0.4-0.7c-0.3-0.2-0.6-0.3-1-0.3c-0.2,0-0.5,0-0.7,0.1c-0.2,0.1-0.5,0.2-0.7,0.3H182v-2.1
	h3.3v0.5h-2.8v0.9c0.2-0.1,0.4-0.1,0.6-0.2c0.2,0,0.4,0,0.6,0c0.5,0,1,0.1,1.4,0.4c0.6,0.4,0.7,1.3,0.3,1.9
	c-0.1,0.1-0.2,0.2-0.3,0.3c-0.4,0.3-0.9,0.5-1.4,0.5c-0.4,0-0.7-0.1-1.1-0.2C182.3,48.8,181.9,48.6,181.6,48.4z"/>
<path class="st0" d="M190,49v-1h-3.3v-0.5l3.3-2.6h0.5v2.6h0.7V48h-0.7v1H190z M187.5,47.5h2.5v-2L187.5,47.5z"/>
<path class="st0" d="M57.5,109h-0.4c-0.6-1.7-1.3-3.5-2.1-5.6c-0.7-1.7-1.1-2.7-1.2-2.8c-0.1-0.1-0.1-0.2-0.2-0.3
	c-0.3-0.1-0.7-0.2-1-0.3v-0.4c0.9,0,1.5,0.1,1.8,0.1s1,0,1.8-0.1v0.4h-0.2c-0.3,0-0.5,0.1-0.8,0.3c-0.1,0.1-0.1,0.1-0.1,0.2
	c0,0,0,0.1,0,0.2c0.1,0.3,0.4,1.3,1,2.8l1.2,3.4c0.5-1.4,1-2.7,1.4-3.8c0.5-1.5,0.8-2.3,0.8-2.4c0,0,0-0.1,0-0.1
	c0-0.1,0-0.2-0.1-0.2c-0.3-0.2-0.6-0.3-0.9-0.3v-0.4h0.5h1.3c0.4,0,0.8,0,1.3-0.1v0.5c-0.3,0.1-0.6,0.2-0.9,0.3
	c-0.2,0.2-0.3,0.4-0.4,0.6c-0.3,0.6-0.9,2.4-2,5.3L57.5,109z"/>
<path class="st0" d="M77.1,99.6v0.4l-0.3,0.1c-0.3,0-0.7,0.1-1,0.3c-0.1,0.2-0.2,0.4-0.1,0.6v0.2v2.6v3.8c0,0.3,0,0.5,0.1,0.6
	c0.3,0.1,0.6,0.2,0.9,0.2l0.4,0.1v0.4c-0.7,0-1.4-0.1-2-0.1s-1.4,0-2.2,0.1v-0.4l0.3-0.1c0.3,0,0.7-0.1,1-0.3
	c0.1-0.1,0.1-0.3,0.1-0.6v-0.3v-2.4c0-2.4,0-3.8,0-4.1c0-0.1,0-0.2-0.1-0.3c-0.3-0.2-0.7-0.3-1-0.3l-0.3-0.1v-0.4
	c0.9,0,1.7,0.1,2.2,0.1S76.3,99.6,77.1,99.6z"/>
<path class="st0" d="M98.8,104.1v0.3l-1,0.2c-0.1,0-0.2,0.1-0.2,0.1c-0.1,0.1-0.1,0.1-0.1,0.2c0,0.5,0,1,0,1.5c0,0.5,0,1.1,0,1.9
	c-0.2,0-0.6,0.1-1.2,0.3c-0.8,0.2-1.3,0.3-1.6,0.3c-0.4,0.1-0.9,0.1-1.3,0.1c-1.3,0.1-2.6-0.4-3.5-1.2c-0.8-0.9-1.3-2.1-1.2-3.3
	c-0.1-1.4,0.5-2.7,1.4-3.7c1-1,2.4-1.5,3.8-1.4c0.4,0,0.8,0,1.1,0.1l2.2,0.4c0,0.2,0,0.4,0,0.6c0,0.6,0,1.2,0.1,2h-0.5
	c-0.1-0.5-0.3-1-0.6-1.5c-0.2-0.3-0.5-0.5-0.8-0.6c-0.5-0.2-1.1-0.3-1.7-0.3c-1.2-0.1-2.3,0.5-3,1.5c-0.5,0.8-0.7,1.7-0.7,2.6
	c-0.1,1.1,0.3,2.2,1.1,3c0.8,0.7,1.8,1,2.8,1c0.8,0,1.5-0.2,2.3-0.4c0-0.5,0-1.2,0-2.1c0-0.3,0-0.6,0-0.9c0-0.1-0.1-0.2-0.2-0.2
	c-0.3-0.1-0.6-0.2-0.9-0.2l-0.3-0.1V104h2.2C97.6,104.1,98.2,104.1,98.8,104.1z"/>
<path class="st0" d="M109.6,100v-0.4c0.6,0,1,0.1,1.3,0.1s0.7,0,1.4-0.1l1.8,2.3l3.9,4.7v-1.3c0-0.6,0-1.8,0-3.5
	c0-0.4,0-0.9-0.1-1.3c0-0.1-0.1-0.1-0.2-0.2c-0.3-0.1-0.6-0.2-0.9-0.2l-0.3-0.1v-0.4c0.8,0,1.4,0.1,1.8,0.1s1,0,1.8-0.1v0.4H120
	c-0.3,0-0.7,0.1-1,0.2c0,0-0.1,0.1-0.1,0.1c-0.1,0.1-0.1,0.3-0.1,0.4c0,0.1,0,0.7,0,1.8c0,1.1,0,2.2,0,3.2c0,1.2,0,2.2,0.1,3.1
	l-0.4,0.2l-2.7-3.4l-3.6-4.3v3.8c0,1.7,0,2.6,0.1,2.7c0,0.1,0.1,0.1,0.1,0.2c0.3,0.2,0.7,0.3,1,0.3l0.3,0.1v0.4
	c-0.7,0-1.2-0.1-1.7-0.1s-1,0-2,0.1v-0.4l0.3-0.1c0.3,0,0.6-0.1,0.9-0.3c0.1-0.1,0.1-0.1,0.1-0.2c0-0.2,0.1-1,0.1-2.3
	c0-1.8,0-2.9,0-3.3c0-0.6,0-1.2,0-1.8c0-0.1-0.1-0.2-0.2-0.2c-0.4-0.1-0.8-0.2-1.2-0.3H109.6z"/>
<path class="st0" d="M131.7,104.3c0-1.3,0.5-2.6,1.4-3.5c0.9-0.9,2.2-1.4,3.5-1.4c1.2-0.1,2.3,0.4,3.2,1.2c0.8,0.9,1.3,2.1,1.2,3.3
	c0.1,1.4-0.4,2.7-1.3,3.7c-0.9,0.9-2.2,1.4-3.5,1.4c-1.2,0.1-2.4-0.4-3.2-1.2C132.1,106.8,131.6,105.5,131.7,104.3z M133.1,104.1
	c-0.1,1.2,0.3,2.3,0.9,3.2c0.6,0.7,1.5,1.1,2.4,1.1c0.6,0,1.2-0.2,1.7-0.5c0.5-0.4,0.9-0.9,1.1-1.5c0.3-0.7,0.4-1.4,0.4-2.1
	c0-0.8-0.1-1.7-0.5-2.4c-0.3-0.6-0.7-1-1.2-1.4c-0.5-0.3-1-0.4-1.6-0.4c-0.6,0-1.2,0.2-1.7,0.5c-0.5,0.4-0.9,0.9-1.1,1.5
	C133.2,102.7,133.1,103.4,133.1,104.1z"/>
<path class="st0" d="M152.6,100v-0.4c0.8,0,1.5,0.1,2.2,0.1h1.4h1.1c0.7-0.1,1.4,0.1,2,0.6c0.4,0.4,0.7,0.9,0.6,1.4
	c0,0.3-0.1,0.7-0.2,1c-0.2,0.3-0.4,0.6-0.7,0.8c-0.3,0.2-0.6,0.4-1,0.4c0.4,0,0.7,0.1,1.1,0.2c0.4,0.1,0.7,0.4,0.9,0.7
	c0.2,0.3,0.4,0.8,0.3,1.2c0,1-0.5,1.8-1.4,2.3c-0.8,0.4-1.8,0.6-2.7,0.6c-0.3,0-0.7,0-1.3,0h-0.7l-1.7,0.1v-0.4l0.3-0.1
	c0.3,0,0.7-0.1,1-0.3c0.1-0.1,0.1-0.2,0.1-0.3c0-0.4,0.1-1.5,0.1-3.4v-2.9c0-0.3,0-0.7-0.1-1c0-0.1-0.1-0.1-0.1-0.1
	c-0.1,0-0.4-0.1-1-0.2L152.6,100z M155.3,103.7h0.7c0.5,0,1.1,0,1.6-0.2c0.3-0.1,0.6-0.3,0.8-0.6c0.2-0.3,0.3-0.7,0.3-1.1
	c0-0.5-0.2-1-0.6-1.3c-0.4-0.2-0.9-0.3-1.4-0.3c-0.4,0-0.8,0-1.3,0.1c0,0.7-0.1,1.6-0.1,2.7L155.3,103.7z M155.3,108.1
	c0.4,0.1,0.8,0.1,1.3,0.1c0.7,0.1,1.3-0.2,1.8-0.6c0.4-0.4,0.6-1,0.6-1.6c0-0.4-0.1-0.8-0.3-1.1c-0.2-0.3-0.5-0.5-0.8-0.6
	c-0.5-0.1-1-0.2-1.5-0.2h-1L155.3,108.1z"/>
<path class="st0" d="M171.8,100v-0.4c1.1,0,1.8,0.1,2.2,0.1c0.2,0,1,0,2.2-0.1v0.4c-0.8,0.1-1.2,0.2-1.4,0.3c-0.1,0-0.2,0.1-0.2,0.1
	c-0.1,0.2-0.1,0.4-0.1,0.6c0,0.3,0,1.9,0,4.8c0,0.6,0,1.3,0,2.3h2.9c0.3,0,0.6,0,0.8-0.1c0.2-0.1,0.3-0.2,0.4-0.3
	c0.3-0.4,0.5-0.9,0.8-1.3h0.6l-0.5,1.4c-0.1,0.3-0.2,0.6-0.3,1.1c-1.8,0-3.4-0.1-4.7-0.1c-0.9,0-1.8,0-2.6,0.1v-0.4
	c0.4-0.1,0.8-0.1,1.2-0.3c0.1,0,0.2-0.1,0.2-0.2c0.1-0.2,0.1-0.5,0.1-0.7v-4v-2.6c0-0.1,0-0.3-0.1-0.4c-0.3-0.2-0.7-0.2-1-0.3
	L171.8,100z"/>
<path class="st0" d="M193.8,103.6h1.6c0.4,0,0.7,0,1.1,0c0.1,0,0.2-0.1,0.3-0.2c0.1-0.3,0.2-0.6,0.3-0.9c0,0,0-0.1,0.1-0.2h0.4
	c0,0.7-0.1,1.3-0.1,1.7s0,1,0.1,1.6h-0.4c-0.1-0.6-0.2-1-0.2-1c0-0.1-0.1-0.2-0.2-0.2c-0.3-0.1-0.7-0.1-1-0.1h-1.8v3.8h3
	c0.2,0,0.5,0,0.7,0c0.2-0.1,0.3-0.1,0.4-0.3c0.3-0.3,0.5-0.7,0.7-1.1l0.2-0.3h0.4c-0.1,0.1-0.3,1-0.8,2.4c-1.6,0-3-0.1-4.3-0.1
	c-0.9,0-1.9,0-3,0.1v-0.4l1.1-0.2c0.1,0,0.2-0.1,0.3-0.2c0.1-0.2,0.1-0.3,0.1-0.5v-0.1V106c0-0.3,0-0.9,0-1.7c0-1.3,0-2.2,0-2.8
	c0-0.3,0-0.7-0.1-1c0-0.1-0.1-0.1-0.1-0.1c-0.2-0.1-0.4-0.1-0.6-0.2l-0.7-0.2v-0.4c0.8,0,1.8,0.1,2.9,0.1c0.6,0,2.1,0,4.4-0.1
	c0,0.7,0.1,1.5,0.2,2.2h-0.4c-0.1-0.4-0.3-0.8-0.4-1.2c-0.1-0.1-0.2-0.2-0.3-0.3c-0.3-0.1-0.6-0.1-0.9-0.1h-2.6l-0.1,2.1
	L193.8,103.6z"/>
<path class="st0" d="M216.6,102.1h-0.5c-0.1-0.4-0.2-0.8-0.4-1.2c-0.1-0.3-0.4-0.5-0.6-0.6c-0.3-0.2-0.7-0.2-1-0.2
	c-0.5,0-0.9,0.1-1.2,0.4c-0.3,0.3-0.4,0.6-0.5,1c0,0.4,0.1,0.7,0.4,0.9c0.5,0.4,1.2,0.8,1.8,1c0.8,0.3,1.4,0.7,2,1.3
	c0.3,0.4,0.5,1,0.5,1.5c0,1-0.6,2-1.6,2.4c-0.5,0.3-1.1,0.4-1.7,0.4c-0.4,0-0.8,0-1.2-0.1c-0.5-0.1-1-0.2-1.5-0.4
	c0.1-0.8,0.1-1.6,0.1-2.4h0.5c0.1,0.5,0.2,0.9,0.4,1.4c0.2,0.3,0.4,0.5,0.7,0.6c0.3,0.2,0.7,0.2,1,0.3c0.5,0,1-0.1,1.3-0.4
	c0.4-0.3,0.6-0.7,0.6-1.2c0-0.4-0.1-0.8-0.4-1.1c-0.5-0.5-1.2-0.9-1.8-1.1c-0.7-0.3-1.3-0.7-1.9-1.2c-0.3-0.4-0.5-0.8-0.5-1.3
	c0-0.5,0.1-0.9,0.4-1.3c0.3-0.4,0.7-0.8,1.1-1c0.5-0.2,1-0.4,1.5-0.4c0.8,0,1.6,0.2,2.3,0.5c0,0.6,0,1,0,1.2
	S216.6,101.6,216.6,102.1z"/>
<path class="st0" d="M16.3,63.5l-0.2,0.3c-0.9,1.6-1.7,3.2-2.4,4.9L13.5,69l-0.2-0.1c-0.2-1.4-0.7-2.7-1.7-3.8
	c-0.8-0.9-2-1.4-3.2-1.4c-1.3,0-2.6,0.6-3.3,1.7c-1.1,1.4-1.7,3.9-1.7,7.3c-0.1,2.4,0.4,4.9,1.5,7c0.8,1.6,2.5,2.5,4.3,2.5
	c1.3,0.1,2.6-0.5,3.5-1.5c1-1.2,1.5-2.7,1.6-4.2c0-0.4,0.2-0.7,0.5-0.7s0.6,0.3,0.6,1c0,1.1-0.2,2.2-0.7,3.1c-1,2.3-3,3.4-6,3.4
	c-2.5,0.1-4.9-0.9-6.4-2.8c-1.7-2.2-2.5-5-2.4-7.8c-0.1-2.7,0.8-5.4,2.5-7.5c1.5-1.9,3.8-3,6.2-3c1.4,0,2.7,0.3,4,0.9
	c0.6,0.3,1.3,0.4,1.9,0.5c0.5,0,1-0.2,1.5-0.5L16.3,63.5z M16.9,76.9c0,2.2-0.8,4.2-2.2,5.9c-1.4,1.4-3.4,2.1-5.4,2
	c-1.7,0-3.4-0.5-4.8-1.6v-0.1c1.4,0.9,3.1,1.4,4.8,1.3c1.9,0.1,3.7-0.7,5-2c0.6-0.6,1.1-1.4,1.4-2.2c0.4-1,0.6-2.1,0.6-3.2v-0.3
	L16.9,76.9z M11.8,66.2c-0.7-0.7-1.7-1.1-2.7-1.2C6.4,65,5,67.6,5,72.7c0,2,0.3,4,1,5.8c0.4,1.3,1.4,2.4,2.6,3v0.2
	c-1.4-0.4-2.5-1.5-2.9-2.8c-0.8-2-1.2-4.1-1.1-6.2c0-5.4,1.5-8.1,4.4-8.1c1.1,0.1,2.1,0.6,2.7,1.4V66.2z M17.4,64.2l-0.2,0.3
	c-1,1.7-1.9,3.5-2.7,5.3l-0.4-0.2l0.2-0.4c0.5-1.1,1-2,1.4-2.7l1.3-2.2l0.2-0.3L17.4,64.2z"/>
<path class="st0" d="M18.7,67.1h5.9l-1.7,1.7v5.4c0.2,0,0.5,0.1,0.7,0.1v-5.4l1.4-1.4l0.3,0.2l-1.3,1.3v5.3h0.4
	c0.6,0.1,1.3,0.1,1.9,0.1c0.8,0,1.5,0,2.3-0.1v-5.8l-1.5-1.4h5.8L31,68.8v13.1l1.5,1.4h-5.8l1.7-1.5v-5.3c-0.7,0.2-1.4,0.3-2.2,0.3
	c-0.7,0-1.4,0-2.2-0.1h-0.2v5.3l2.1,2.4h-6.5L19.1,84h6.1l-1.7-1.9v-5.8h0.4c1.1,0.1,1.9,0.1,2.4,0.1c0.7,0,1.4-0.1,2.1-0.3v-0.4
	c-0.9,0.1-1.8,0.2-2.8,0.2c-0.6,0-1,0-1.2,0l-1.3-0.1h-0.3v6.2l1.6,1.4h-5.8l1.7-1.5v-5.5c-0.7,0-1.3,0.3-1.7,0.8L18.4,77
	c0.5-0.6,1.2-1,2-1v-0.5c-0.9,0-1.7,0.4-2.2,1.1L18,76.4c0.4-1.1,1.3-1.9,2.4-2.1v-5.7L18.7,67.1z M33.2,67.8L32,69.1v12.8l2,2.4
	h-6.5L27.2,84h6.1l-1.7-1.9V68.9l1.4-1.4L33.2,67.8z"/>
<path class="st0" d="M46.2,67.1l-1.3,1.5l2.1,5.5l0.5-0.3l-1.9-5l1.3-1.5l0.3,0.1L46,68.9l1.8,4.7l0.2-0.1l0.4-0.3
	c0.2-0.1,0.3-0.3,0.5-0.4c0.2,0.9,0.5,1.8,1,2.6h-0.5c-0.6,0-1.2,0.1-1.8,0.4l2.3,6.2l1.9,1.5h-6.4l1.7-1.5l-1.4-3.7
	c-0.8,0.8-1.5,1.7-2.1,2.7l-0.3-0.1c0.6-1,1.4-1.9,2.2-2.7l0.1-0.1l-0.2-0.6c-1,0.8-1.8,1.8-2.5,2.9l-0.2-0.4
	c-0.4-0.7-1-1.5-1.7-2.4l-0.1-0.2c-0.6,1.1-0.9,2.3-1,3.5c0,0.5,0.1,0.9,0.3,1.3c0.4,0.6,0.8,1.3,1.3,1.8l0.3,0.3h-6.8L34.7,84h6.4
	l-0.2-0.3c-0.4-0.5-0.8-1-1.1-1.6c-0.2-0.4-0.3-0.9-0.3-1.3c0.1-1.3,0.4-2.6,1-3.8L40,76.4c-0.1,0.3-0.3,0.7-0.4,1.2l-0.4,1.3
	c-0.2,0.5-0.3,1.1-0.3,1.7c0,0.4,0.1,0.8,0.2,1.2c0.3,0.5,0.6,0.9,1,1.3l0.2,0.2H34c1.2-0.6,2.1-1.4,2.8-2.5
	c0.9-1.5,1.7-3.1,2.2-4.8l0-0.2c-0.6-0.4-1.2-0.7-2-0.7c0.4-0.7,0.8-1.4,1.1-2.2l0.2,0.2l0.6,0.5c0.2,0.2,0.4,0.4,0.7,0.6l0.2-0.6
	l-0.2-0.1c-0.4-0.4-0.8-0.7-1-0.9l-0.1-0.1l0.2-0.3c0.5,0.3,0.9,0.6,1.3,1l1.7-4.7l-1.3-1.4L46.2,67.1z M43.4,63.7l-1.5,1.8h-1.1
	l-0.2-0.3h1.2l1.5-1.7l-0.3-0.4l-1.3,1.5h-1.3l2.1-2.5h1.6l2.2,2.5h-2L43.4,63.7z M42.5,69.7l-2,5.3c0.6,0.6,1.2,1.3,1.7,1.9
	l0.6,0.8l0.1,0.2c0,0,0.1-0.1,0.1-0.1l0.2-0.2l0.1-0.2c-0.6-0.9-1.2-1.7-2-2.5l1.6-4.3L42.5,69.7z M43.1,71.1l-1.4,3.7l0.1,0.2
	l0.5,0.6c0.4,0.4,0.7,0.9,1,1.4l0.1,0.2c0.4-0.5,0.8-0.9,1.3-1.3L43.1,71.1z M47.9,65.4H45l-0.2-0.3h2.5l-2.2-2.5l0.5,0.1L47.9,65.4
	z M49.9,73.3c0.3,1.1,0.8,2.1,1.4,3.1H51l-1-0.1c-0.3,0-0.7-0.1-1-0.1h-0.3l2.1,5.6l2.8,2.5h-7.3L46.1,84h6.7l-2.3-2l-2.2-6
	c0.3-0.1,0.7-0.1,1-0.1c0.5,0,1,0,1.5,0.1l-0.2-0.3c-0.5-0.8-0.8-1.7-1.1-2.7L49.9,73.3z"/>
<path class="st0" d="M68.1,67.1l-0.2,0.3l-0.8,1.5c-0.3,0.6-0.6,1.3-0.8,2V71l-0.1-0.1v-0.2c-0.1-0.8-0.5-1.5-1-2
	c-0.6-0.4-1.4-0.6-2.1-0.5c-0.4,0-0.8,0-1.1,0h-0.2v13.7l1.5,1.4h-5.8l1.8-1.5V69.3h-0.9c-1.1-0.2-2.2,0.5-2.5,1.6
	c-0.1,0.2-0.1,0.5,0,0.7h-0.3c0-0.8,0.3-1.5,0.8-2.1c0.6-0.4,1.3-0.6,2.1-0.6h0.9v-0.6c-0.4,0-0.8-0.1-1.2-0.1
	c-0.8-0.1-1.7,0.2-2.3,0.7c-0.5,0.6-0.8,1.4-0.8,2.2h-0.2c-0.5-1.3-1-2.7-1.7-3.9l-0.1-0.1H68.1z M65.5,69.9
	c-0.7-0.4-1.5-0.6-2.3-0.6c-0.2,0-0.4,0-0.6,0l0,12.6l2,2.4h-6.4L58,84h6l-1.7-2V68.9H63c0.6,0,1.2,0,1.7,0.2
	C65.1,69.3,65.4,69.5,65.5,69.9z M68.9,67.9c-0.8,1.1-1.4,2.4-1.8,3.7v0.1l-0.3-0.2v-0.1c0.4-1.3,1-2.5,1.8-3.6l0.1-0.1L68.9,67.9z"
	/>
<path class="st0" d="M82.6,67.1l-0.2,0.2c-0.9,1.1-1.5,2.3-2,3.6l-0.2-0.4c-0.3-0.8-0.8-1.5-1.5-2c-0.9-0.4-1.9-0.5-2.8-0.4
	c-0.6,0-1.4,0-2.3,0.1V74h0.8v-5.1c0.6-0.1,1.2-0.1,1.8-0.1c0.8,0,1.6,0.1,2.4,0.3c0.6,0.3,1,0.8,1.3,1.3l-0.3-0.2
	c-0.4-0.4-0.9-0.7-1.5-1c-0.6-0.1-1.2-0.2-1.8-0.2L75,69.2h-0.3V74H77l1.6-2.2v5.4L77,75.1h-3.4v7.1h0.8v-6.5h2.7l0.3,0.3h-2.8v6.1
	c1.2,0.1,2.5-0.1,3.7-0.4c0.7-0.2,1.3-0.8,1.7-1.4l0.7-1.2c0-0.1,0.1-0.2,0.2-0.3c0.2,0.8,0.4,1.5,0.8,2.2c0.4,0.7,1,1.4,1.6,1.9
	H69.2l1.9-1.5V76c-0.7,0.1-1.3,0.3-1.9,0.7L69,76.4c0.6-0.4,1.3-0.7,2.1-0.7v-0.6c-0.1,0-0.2,0-0.3,0c-0.9,0-1.7,0.3-2.3,0.9
	c0.3-1.2,1.4-2.1,2.6-2v-5.4l-1.9-1.5H82.6z M84.7,83.1l-0.7,1.1H70.3l-0.2-0.3h13.8l0.4-0.8c-1.1-1-2-2.2-2.6-3.6l0.4,0.2
	c0.5,1.3,1.3,2.4,2.3,3.3L84.7,83.1z M79.5,72.1v5.6l-0.3-0.2V72L79.5,72.1z M83.2,68l-0.1,0.1c-0.8,1.1-1.5,2.2-2.1,3.5l-0.2-0.3
	c0.5-1.3,1.3-2.5,2.1-3.6L83.2,68z"/>
<path class="st0" d="M96.6,67.1l-1.3,1.5l2.1,5.5l0.5-0.3l-1.9-5l1.3-1.5l0.3,0.1l-1.3,1.5l1.8,4.7l0.2-0.1l0.4-0.3
	c0.2-0.1,0.3-0.3,0.5-0.4c0.2,0.9,0.5,1.8,1,2.6h-0.5c-0.6,0-1.2,0.1-1.8,0.4l2.3,6.2l1.9,1.5h-6.3l1.7-1.5l-1.4-3.7
	c-0.8,0.8-1.5,1.7-2.1,2.7l-0.3-0.1c0.6-1,1.4-1.9,2.2-2.7l0.1-0.1l-0.2-0.6c-1,0.8-1.8,1.8-2.5,2.9l-0.2-0.4
	c-0.4-0.7-1-1.5-1.7-2.4l-0.1-0.2c-0.6,1.1-0.9,2.3-1,3.5c0,0.5,0.1,0.9,0.3,1.3c0.4,0.6,0.8,1.3,1.3,1.8l0.3,0.3h-6.8L85.1,84h6.4
	l-0.2-0.3c-0.4-0.5-0.8-1-1.1-1.6C90,81.7,90,81.3,90,80.8c0.1-1.3,0.4-2.6,1-3.8l-0.6-0.6c-0.1,0.3-0.3,0.7-0.4,1.2l-0.4,1.3
	c-0.2,0.5-0.3,1.1-0.3,1.7c0,0.4,0.1,0.8,0.2,1.2c0.3,0.5,0.6,0.9,1,1.3l0.2,0.2h-6.3c1.2-0.6,2.1-1.4,2.8-2.5
	c0.9-1.5,1.6-3.2,2.1-4.9v-0.2c-0.5-0.4-1.2-0.7-1.9-0.7c0.4-0.7,0.8-1.4,1.1-2.2l0.2,0.2l0.6,0.5c0.2,0.2,0.5,0.4,0.7,0.6l0.2-0.6
	l-0.2-0.1c-0.4-0.4-0.8-0.7-1.1-0.9L89,72.5l0.2-0.3c0.5,0.3,0.9,0.6,1.3,1l1.7-4.7l-1.3-1.4L96.6,67.1z M93,69.7L91,75
	c0.6,0.6,1.1,1.3,1.7,1.9l0.6,0.8c0,0,0,0.1,0.1,0.2c0,0,0.1-0.1,0.1-0.1l0.2-0.2l0.1-0.2c-0.6-0.9-1.2-1.7-2-2.5l1.6-4.3L93,69.7z
	 M93.6,71.1l-1.4,3.7l0.1,0.2l0.5,0.6c0.4,0.4,0.7,0.9,1.1,1.4l0.1,0.2c0.4-0.5,0.8-0.9,1.3-1.3L93.6,71.1z M100.4,73.3
	c0.3,1.1,0.8,2.1,1.4,3.1h-0.3l-1-0.1c-0.3,0-0.7-0.1-1-0.1h-0.3l2.1,5.6l2.8,2.5h-7.4L96.5,84h6.7l-2.2-2l-2.3-6
	c0.3-0.1,0.7-0.1,1-0.1c0.5,0,1,0,1.5,0.1l-0.2-0.3c-0.5-0.8-0.8-1.7-1.1-2.7L100.4,73.3z"/>
<path class="st0" d="M118.9,67.1l-2.3,1.8V77c0,1.1,0,2.2-0.2,3.2c-0.1,0.6-0.3,1.1-0.6,1.6c-0.7,1.1-2.1,1.6-4.2,1.6
	s-3.8-0.4-4.6-1.6c-0.7-0.8-1-2.5-1-4.9v-8.3l-1.7-1.5h5.9l-1.7,1.7V77v1.9c-0.1,1,0.2,1.9,0.8,2.7c0.7,0.6,1.7,0.9,2.6,0.8
	c1.1,0.1,2.1-0.3,2.8-1.2c0.4-0.7,0.6-2,0.6-4.2v-8.1l-2-1.8L118.9,67.1z M119.4,68l-1.7,1.4v7.8c0,2.6-0.2,4.2-0.6,5
	c-0.8,1.6-2.4,2.4-4.8,2.4c-1.7,0.1-3.4-0.4-4.7-1.6h0.1l0.4,0.3c1.2,0.7,2.6,1,4,0.9c2.3,0,3.8-0.7,4.6-2.2
	c0.5-1.5,0.7-3.1,0.6-4.8v-8l1.9-1.5L119.4,68z M110.9,67.8l-1.2,1.2v10.3l0.4,1.6c0.3,0.4,0.7,0.8,1.1,1.2v0.1
	c-0.6-0.2-1.1-0.7-1.5-1.2c-0.3-0.8-0.5-1.7-0.4-2.5v-9.4l1.4-1.4L110.9,67.8z"/>
<path class="st0" d="M126.7,63h7.5l-2.2,2.1v16.7h0.1h0.6h0.1V65.3l1.7-1.7l0.2,0.3l-1.5,1.5v16.4c0.5,0,0.9,0.1,1.3,0.1
	c1.3,0.1,2.7-0.3,3.8-1.1c1-1,1.5-2.3,1.7-3.6c0.6,2.1,1.6,4.1,3,5.8h-16.3l2.2-1.8V65L126.7,63z M144.5,82.9l-0.7,1.4h-16.3
	l-0.4-0.4h16.5l0.5-1c-1.2-1.4-2.1-3-2.8-4.7l-0.1-0.2l0.5,0.2l0.1,0.3c0.7,1.5,1.5,2.9,2.5,4.3L144.5,82.9z"/>
<path class="st0" d="M155.7,67.1l-1.3,1.5l2.1,5.5l0.5-0.3l-1.9-5l1.3-1.5l0.3,0.1l-1.3,1.5l1.8,4.7l0.2-0.1l0.4-0.3
	c0.2-0.1,0.3-0.3,0.5-0.4c0.2,0.9,0.5,1.8,1,2.6h-0.5c-0.6,0-1.2,0.1-1.8,0.4l2.3,6.2l1.9,1.5h-6.4l1.7-1.5l-1.4-3.7
	c-0.8,0.8-1.5,1.7-2.1,2.7l-0.3-0.1c0.6-1,1.4-1.9,2.2-2.7l0.1-0.1l-0.2-0.6c-1,0.8-1.8,1.8-2.5,2.9l-0.2-0.4
	c-0.4-0.7-1-1.5-1.7-2.4l-0.1-0.2c-0.6,1.1-0.9,2.3-1,3.5c0,0.5,0.1,0.9,0.3,1.3c0.4,0.6,0.8,1.3,1.3,1.8c0.1,0.1,0.2,0.2,0.3,0.3
	h-6.8l-0.3-0.3h6.4l-0.2-0.3c-0.4-0.5-0.8-1-1.1-1.6c-0.2-0.4-0.3-0.9-0.3-1.3c0.1-1.3,0.4-2.6,1-3.8l-0.6-0.6
	c-0.1,0.3-0.3,0.7-0.4,1.2l-0.4,1.3c-0.2,0.5-0.3,1.1-0.3,1.7c0,0.4,0.1,0.8,0.2,1.2c0.3,0.5,0.6,0.9,1,1.3l0.2,0.2h-6.3
	c1.2-0.6,2.1-1.4,2.9-2.5c0.9-1.5,1.6-3.1,2.1-4.8v-0.2c-0.6-0.4-1.2-0.7-1.9-0.7c0.4-0.7,0.8-1.4,1.1-2.2c0.1,0.1,0.1,0.1,0.2,0.2
	l0.6,0.5c0.2,0.2,0.4,0.4,0.7,0.6l0.2-0.6l-0.1-0.1c-0.4-0.4-0.8-0.7-1.1-0.9l-0.1-0.1l0.2-0.3c0.5,0.3,0.9,0.6,1.3,1l1.7-4.7
	l-1.3-1.4L155.7,67.1z M152.1,69.7l-2,5.3c0.6,0.6,1.2,1.3,1.6,1.9l0.6,0.8l0.1,0.2l0.1-0.1l0.2-0.2c0-0.1,0.1-0.1,0.1-0.2
	c-0.6-0.9-1.2-1.7-2-2.5l1.6-4.3L152.1,69.7z M152.6,71.1l-1.4,3.7l0.1,0.2l0.5,0.6c0.4,0.4,0.7,0.9,1.1,1.4l0.1,0.2
	c0.4-0.5,0.8-0.9,1.3-1.3L152.6,71.1z M159.5,73.3c0.3,1.1,0.8,2.1,1.4,3.1h-0.3l-1-0.1c-0.3,0-0.7-0.1-1-0.1h-0.3l2.1,5.6l2.8,2.5
	h-7.3l-0.2-0.3h6.7l-2.3-2l-2.2-6c0.3-0.1,0.7-0.1,1-0.1c0.5,0,1,0,1.5,0.1l-0.2-0.3c-0.5-0.8-0.8-1.7-1.1-2.7L159.5,73.3z"/>
<path class="st0" d="M177.9,67.1c-0.7,0.3-1.3,0.8-1.9,1.4c-0.5,0.9-0.7,1.9-0.6,2.9v11.9h-2.1l-5.9-11.5v7.4l0.1,1.8
	c0.1,0.7,0.5,1.4,1.1,1.9l0.1,0.1c-1.2-0.4-1.7-1.6-1.7-3.7v-8.1l-0.7-1.3V77c-0.1,1.5,0.1,3,0.5,4.5c0.4,0.8,1.2,1.4,2.2,1.6
	l1.1,1.2h-6.8L163,84h6.3l-0.7-0.7h-5.9c0.8-0.2,1.5-0.8,2-1.5c0.4-1,0.6-2.1,0.5-3.2V68.5l-1.7-1.4h6.4l-1.8,1.2l6.1,11.9v-1.5
	l-5.2-10.2l1.8-1.2l0.2,0.2l-1.6,1.1l4.9,9.4v-6.6c0.1-1-0.1-2-0.4-2.9c-0.4-0.6-1-1.1-1.8-1.4H177.9z M178.4,68l-0.2,0.4
	c-0.5,0.1-1,0.4-1.3,0.8c-0.3,0.7-0.4,1.4-0.3,2.1v13h-2.7l-0.2-0.3h2.5V71.4c-0.1-0.8,0.1-1.7,0.5-2.5
	C177,68.4,177.7,68.1,178.4,68z"/>
<path class="st0" d="M186.1,67c1.9-0.1,3.7,0.8,4.9,2.3c1.3,1.8,1.9,4,1.8,6.2c0.1,2.1-0.5,4.2-1.8,5.8c-1.2,1.4-3,2.2-4.9,2.2
	c-1.6,0-3.1-0.5-4.3-1.5c-1.8-1.5-2.8-3.7-2.8-6.7c-0.1-2.2,0.6-4.3,1.9-6C182.3,67.7,184.2,66.9,186.1,67z M186.1,68.1
	c-2.8,0-4.3,2.5-4.3,7.5c0,4.6,1.4,6.9,4.2,6.9c1.3,0,2.4-0.7,3-1.8c0.8-1.7,1.1-3.5,1-5.3c0-2.7-0.3-4.5-1-5.6
	C188.5,68.6,187.3,68,186.1,68.1L186.1,68.1z M190.1,67.6c1.3,0.6,2.3,1.7,2.8,3c0.7,1.5,1.1,3.2,1,4.9c0.1,2.3-0.6,4.6-1.9,6.5
	c-1.3,1.6-3.3,2.6-5.4,2.5c-1.5,0-2.9-0.5-4-1.4V83c1.1,0.8,2.5,1.2,3.9,1.2c2,0,3.9-0.8,5.2-2.4c1.4-1.7,2.1-3.9,2-6.1
	c0-1.7-0.3-3.3-0.9-4.8c-0.5-1.3-1.4-2.3-2.6-3.1L190.1,67.6z M188.8,70l-0.2-0.1c-0.7-0.4-1.4-0.6-2.2-0.7c-2.2,0-3.3,2.2-3.3,6.5
	c0,3.2,0.7,5.3,2.1,6.3l-0.1,0.1c-0.8-0.6-1.5-1.4-1.8-2.3c-0.4-1.3-0.6-2.6-0.5-3.9c0-4.7,1.2-7,3.7-7
	C187.3,68.7,188.2,69.1,188.8,70L188.8,70z"/>
<path class="st0" d="M211.9,63.1l0.1,0.1c-1.1,1-2,2.1-2.7,3.4c-1,1.8-1.8,3.7-2.5,5.7l-3.7,9.7l1.5,1.3h-5.8l1.7-1.4L196,68.8
	l-2-1.7h6.3l-1.8,1.8l4.1,11.8l0.5-1.2l-3.7-10.5l1.3-1.3l0.2,0.2l-1.1,1.1l3.5,10L206,72c0.6-1.4,1-2.9,1.2-4.4
	c0-0.8-0.3-1.6-0.9-2.2h0.2C208.5,65,210.3,64.3,211.9,63.1z M212.6,63.9l0.1,0.3c-1.6,1.3-3.3,4.1-4.9,8.6l-3.5,9.3l2,2.3h-6.5
	l-0.3-0.3h6l-1.6-1.9l3.6-9.4l0.7-1.8c0.6-1.5,1.3-2.9,2.1-4.2C210.9,65.6,211.7,64.7,212.6,63.9L212.6,63.9z"/>
<path class="st0" d="M224.7,67.1l-0.2,0.2c-0.9,1.1-1.5,2.3-2,3.6c-0.1-0.2-0.1-0.3-0.2-0.4c-0.3-0.8-0.8-1.5-1.5-2
	c-0.9-0.4-1.9-0.5-2.9-0.4c-0.6,0-1.4,0-2.3,0.1V74h0.8v-5.1c0.7-0.1,1.3-0.1,1.8-0.1c0.8,0,1.6,0.1,2.4,0.3c0.6,0.3,1,0.8,1.4,1.3
	l-0.3-0.2c-0.4-0.4-0.9-0.7-1.5-1c-0.6-0.1-1.2-0.2-1.8-0.2h-1.4h-0.3V74h2.3l1.6-2.2v5.4l-1.6-2.1h-3.4v7.1h0.8v-6.5h2.7l0.3,0.3
	h-2.7v6.1c1.2,0.1,2.5-0.1,3.6-0.4c0.7-0.2,1.3-0.8,1.7-1.4l0.7-1.2l0.1-0.3c0.2,0.8,0.4,1.5,0.8,2.2c0.5,0.7,1,1.4,1.6,1.9h-14.2
	l1.9-1.5V76c-0.7,0.1-1.3,0.3-1.9,0.7l-0.2-0.3c0.6-0.4,1.3-0.7,2.1-0.7v-0.6c-0.1,0-0.2,0-0.3,0c-0.9,0-1.7,0.3-2.3,0.9
	c0.3-1.2,1.4-2.1,2.6-2v-5.4l-1.9-1.5H224.7z M226.9,83.1l-0.6,1.1h-13.7l-0.2-0.3H226l0.4-0.8c-1.1-1-2-2.2-2.6-3.6l0.4,0.2
	c0.6,1.3,1.4,2.4,2.4,3.3L226.9,83.1z M221.6,72.1v5.6l-0.3-0.2V72L221.6,72.1z M225.3,67.9l-0.1,0.1c-0.8,1.1-1.5,2.2-2.1,3.5
	l-0.2-0.2c0.6-1.3,1.3-2.5,2.2-3.6L225.3,67.9z"/>
<path class="st0" d="M227.1,67.1h6l-1.8,1.7v13.4h0.1h0.4h0.1V69l1.4-1.4l0.2,0.3l-1.2,1.2v13.2c0.4,0,0.7,0,1.1,0
	c1.1,0.1,2.1-0.2,3-0.9c0.8-0.8,1.3-1.8,1.4-2.9c0.5,1.7,1.3,3.3,2.4,4.7h-13.1l1.7-1.4V68.7L227.1,67.1z M241.5,83.1l-0.6,1.1
	h-13.1l-0.3-0.3h13.3l0.4-0.8c-0.9-1.1-1.7-2.4-2.2-3.8l-0.1-0.1l0.4,0.2l0.1,0.2c0.5,1.2,1.2,2.4,2,3.4L241.5,83.1z"/>
<path class="st0" d="M241.2,67.1h6l-1.8,1.7v13.4h0.1h0.4h0.1V69l1.4-1.4l0.2,0.3l-1.2,1.2v13.2c0.4,0,0.7,0,1.1,0
	c1.1,0.1,2.1-0.2,3-0.9c0.8-0.8,1.3-1.8,1.4-2.9c0.5,1.7,1.3,3.3,2.4,4.7h-13.1l1.8-1.4V68.7L241.2,67.1z M255.6,83.1l-0.6,1.2
	h-13.1l-0.3-0.3h13.3l0.4-0.8c-0.9-1.1-1.7-2.4-2.2-3.8l-0.1-0.1l0.4,0.2l0.1,0.2c0.5,1.2,1.2,2.4,2,3.4L255.6,83.1z"/>
<path class="st0" d="M269,67.1l-0.2,0.2c-0.9,1.1-1.5,2.3-2,3.6l-0.2-0.4c-0.3-0.8-0.8-1.5-1.5-2c-0.9-0.4-1.9-0.5-2.8-0.4
	c-0.6,0-1.4,0-2.3,0.1V74h0.8v-5.1c0.6-0.1,1.2-0.1,1.8-0.1c0.8,0,1.6,0.1,2.4,0.3c0.6,0.3,1.1,0.7,1.4,1.3l-0.3-0.2
	c-0.4-0.4-0.9-0.7-1.5-1c-0.6-0.1-1.2-0.2-1.8-0.2h-1.4h-0.3V74h2.3l1.5-2.2v5.4l-1.6-2.1h-3.4v7.1h0.8v-6.5h2.7l0.3,0.3h-2.8v6.1
	c1.2,0.1,2.5-0.1,3.6-0.4c0.7-0.2,1.3-0.8,1.7-1.4l0.7-1.2c0-0.1,0.1-0.2,0.1-0.3c0.2,0.8,0.4,1.5,0.8,2.2c0.4,0.7,1,1.4,1.6,1.9
	h-14.1l1.9-1.5V76c-0.7,0.1-1.3,0.3-1.9,0.7l-0.2-0.3c0.6-0.4,1.3-0.7,2.1-0.7v-0.6c-0.1,0-0.2,0-0.3,0c-0.9,0-1.7,0.3-2.3,0.9
	c0.3-1.2,1.4-2.1,2.6-2v-5.4l-1.9-1.5H269z M271.1,83.1l-0.7,1.1h-13.8l-0.2-0.3h13.8l0.4-0.8c-1.1-1-2-2.2-2.6-3.6l0.4,0.2
	c0.5,1.3,1.3,2.4,2.3,3.3L271.1,83.1z M265.9,72.1v5.6l-0.3-0.2V72L265.9,72.1z M269.6,67.9l-0.1,0.1c-0.8,1.1-1.5,2.2-2,3.5
	l-0.2-0.3c0.6-1.3,1.3-2.5,2.2-3.6L269.6,67.9z"/>
</svg>
