<?xml version="1.0" encoding="utf-8"?>
<!-- Generator: Adobe Illustrator 22.1.0, SVG Export Plug-In . SVG Version: 6.00 Build 0)  -->
<svg version="1.1" id="Layer_1" xmlns="http://www.w3.org/2000/svg" xmlns:xlink="http://www.w3.org/1999/xlink" x="0px" y="0px"
	 viewBox="0 0 271.1 109" style="enable-background:new 0 0 271.1 109;" xml:space="preserve">
<style type="text/css">
	.st0{fill:#B6AD9E;}
</style>
<title>chateau lanovelle logo</title>
<path class="st0" d="M135.2,38.4c-8.7,0-15.8-8.6-15.8-19.2S126.4,0,135.2,0S151,8.6,151,19.2S143.9,38.4,135.2,38.4z M135.2,0.7
	C126.8,0.7,120,9,120,19.2s6.8,18.5,15.1,18.5s15.1-8.3,15.1-18.5S143.5,0.7,135.2,0.7z"/>
<path class="st0" d="M135.2,35.9c-7.3,0-13.3-7.5-13.3-16.7s6-16.7,13.3-16.7s13.3,7.5,13.3,16.7S142.5,35.9,135.2,35.9z M135.2,2.8
	c-7.1,0-12.9,7.3-12.9,16.3s5.8,16.3,12.9,16.3s12.9-7.3,12.9-16.3S142.3,2.8,135.2,2.8z"/>
<g>
	<path class="st0" d="M132.8,22.9C132.8,22.9,132.8,22.9,132.8,22.9C132.8,22.9,132.8,22.9,132.8,22.9L132.8,22.9z"/>
	<path class="st0" d="M135.1,9.9c0.1,0,0.3,0,0.4,0l0.1-0.1V9.7c-0.2,0-0.3,0-0.5,0c-0.1,0-0.2,0.1-0.3,0.1c0,0,0,0.1-0.1,0.2h0.2
		C135,9.9,135,9.9,135.1,9.9z"/>
	<path class="st0" d="M133.8,8.6L133.8,8.6C133.8,8.5,133.8,8.6,133.8,8.6z"/>
	<path class="st0" d="M136.1,22.4c-0.1,0.3-0.1,0.6-0.1,0.9C136,23,136.1,22.7,136.1,22.4C136.1,22.4,136.1,22.4,136.1,22.4z"/>
	<polygon class="st0" points="131.8,12 131.8,12 131.8,12 131.8,12 	"/>
	<path class="st0" d="M131.3,11.5L131.3,11.5l-0.2-0.1c-0.1,0-0.1,0.1-0.2,0.1l0.1,0.1L131.3,11.5z"/>
	<path class="st0" d="M132.4,9.5l0.1-0.1V9.2l-0.4,0.1c0-0.1,0-0.1,0-0.2L131.8,9c-0.1-0.1-0.3-0.2-0.5-0.2c0.3,0.1,0.5,0.3,0.7,0.6
		l-0.4,0.4c0-0.1-0.1-0.1-0.1-0.1h-0.1v0.1l0.3,0.3c0,0,0,0,0-0.1C131.9,9.8,132.1,9.7,132.4,9.5z"/>
	<path class="st0" d="M132.6,9.7l0.1-0.1c-0.4,0.1-0.6,0.3-0.9,0.6l0.1,0.1c0,0,0-0.1,0.1-0.1C132.2,10,132.4,9.9,132.6,9.7z"/>
	<path class="st0" d="M133.7,16.8C133.7,16.8,133.7,16.8,133.7,16.8C133.7,16.8,133.7,16.8,133.7,16.8L133.7,16.8z"/>
	<path class="st0" d="M134.1,10.7L134.1,10.7C134.1,10.7,134.1,10.7,134.1,10.7L134.1,10.7z"/>
	<path class="st0" d="M131.9,10.3c0,0,0.1,0.1,0.1,0.1C132.1,10.5,132,10.4,131.9,10.3L131.9,10.3z"/>
	<path class="st0" d="M135,19.9l0.4-1.1c0-0.1,0-0.2,0.1-0.2h-0.1C135.2,19.1,134.8,19.4,135,19.9z"/>
	<path class="st0" d="M138.2,19.2c0,0,0-0.1,0-0.1c0-0.3,0-0.5,0.1-0.8c0,0,0,0,0,0C138.1,18.6,138.1,18.9,138.2,19.2z"/>
	<path class="st0" d="M127.6,16.9L127.6,16.9c0,0-0.1,0-0.1-0.1C127.5,16.9,127.6,16.9,127.6,16.9z"/>
	<path class="st0" d="M130.9,15.6C130.9,15.6,130.9,15.6,130.9,15.6c0,0,0,0.1,0,0.2c0.1-0.1,0.1-0.1,0.2-0.1
		C131.1,15.6,131,15.6,130.9,15.6z"/>
	<path class="st0" d="M138.3,16.6l-0.2-0.2c0,0-0.1,0-0.1,0.1c0,0,0,0.1,0,0.1H138.3z"/>
	<path class="st0" d="M137.9,16.6C137.9,16.6,137.8,16.7,137.9,16.6C137.9,16.7,137.9,16.7,137.9,16.6z"/>
	<path class="st0" d="M137.9,18.2l-0.2,0.9h0.2C137.9,18.8,138,18.6,137.9,18.2C138.1,18.2,138,18.1,137.9,18.2L137.9,18.2z"/>
	<path class="st0" d="M131.2,8.9c0,0.1,0,0.1,0,0.1c-0.3-0.2-0.6-0.4-1-0.3c-0.1,0-0.2,0-0.2,0c0.1,0.1,0.1,0.1,0.2,0.2
		c0.4,0.2,0.7,0.6,0.8,1c-0.2,0-0.5,0-0.7,0.1c-0.1,0.1-0.1,0.1,0,0.2c0.2,0.1,0.3,0.2,0.4,0.3c0.1,0.1,0.2,0.2,0.3,0.3
		c-0.1,0-0.1,0-0.2,0l-0.5-0.1c-0.2-0.1-0.4-0.1-0.6-0.1c-0.1,0.1-0.2,0.2-0.2,0.2l0.3,0.1c0.1,0,0.2,0.1,0.1-0.1l0.9,0.1
		c-0.1,0.1-0.2,0.2-0.3,0.3c-0.1,0.1-0.1,0.1-0.2,0.1l0.3,0c0,0,0-0.1,0.1-0.1c0.2-0.1,0.3-0.2,0.5-0.3c0.1-0.1,0.1-0.1,0-0.2
		c-0.1-0.1-0.1-0.1-0.1-0.1l-0.2-0.4l-0.4-0.3c0.2-0.1,0.4-0.1,0.6,0c0.1-0.1,0.1-0.2,0-0.3c-0.2-0.2-0.3-0.5-0.5-0.7
		c0,0-0.1,0-0.1-0.2c0.2,0,0.4,0.1,0.6,0.2c0.1,0.1,0,0.2,0.2,0.2S131.3,9,131.2,8.9L131.2,8.9C131.2,8.8,131.2,8.8,131.2,8.9z"/>
	<path class="st0" d="M132.1,18.2c-0.1,0.1-0.1,0.1-0.2,0.2l-0.4,0.5l0.1,0.4c0.1-0.5,0.5-0.8,0.8-1.1
		C132.3,18.1,132.2,18.1,132.1,18.2z"/>
	<path class="st0" d="M132.8,18c0,0.1-0.1,0.1-0.1,0.2L132.8,18C132.8,18.1,132.8,18.1,132.8,18z"/>
	<path class="st0" d="M139.5,20.8c0,0,0.1,0.1,0.1,0.1c0-0.1,0-0.1,0-0.2c0,0,0,0,0,0C139.5,20.7,139.5,20.8,139.5,20.8z"/>
	<path class="st0" d="M133.1,17.4c0.1,0,0.2-0.1,0.2-0.1c0,0,0,0,0-0.1L133.1,17.4z"/>
	<path class="st0" d="M132.6,17.7L132.6,17.7h0.2c0,0.2,0,0.3,0,0.3c0.1-0.1,0.2-0.3,0.3-0.4l-0.2-0.1l0.2-0.1c0,0,0,0-0.1,0
		C132.9,17.4,132.7,17.6,132.6,17.7z"/>
	<path class="st0" d="M131.4,9.5c0.1-0.1,0.2-0.2,0.3-0.3c-0.2,0.1-0.4,0.2-0.5,0.3C131.3,9.6,131.3,9.6,131.4,9.5z"/>
	<polygon class="st0" points="128.1,11.7 127.4,12.3 127.5,12.3 	"/>
	<path class="st0" d="M125.2,16.9c0.2-0.2,0.3-0.5,0.5-0.7v-0.1c0,0,0-0.1-0.1-0.1c-0.1,0-0.2,0.1-0.3,0.1h0c0,0.1-0.1,0.2-0.1,0.3
		c0,0.1-0.1,0.6-0.2,0.9s0,0.2,0.1,0.2c0.1,0,0.1,0,0.1,0C125.1,17.3,125.1,17.1,125.2,16.9z"/>
	<path class="st0" d="M135.2,28.3c0.1-0.5,0.3-1,0.4-1.5l-0.1-0.1c-0.1,0.4-0.3,0.8-0.4,1C135,27.9,135.1,28.1,135.2,28.3z"/>
	<path class="st0" d="M128.4,11h0.3c-0.2-0.1-0.1-0.2,0-0.3l0.2-0.1c-0.1,0-0.3,0-0.4,0.1l0,0C128.4,10.8,128.4,10.9,128.4,11z"/>
	<path class="st0" d="M130.8,10.3l0.6-0.2C131.3,10,131,10,130.8,10.3z"/>
	<path class="st0" d="M131.7,10.3c0,0,0.1-0.1,0.1-0.1l-0.1-0.1C131.6,10.1,131.6,10.2,131.7,10.3z"/>
	<path class="st0" d="M144.5,23.5c0-0.3-0.1-0.6-0.3-0.9c-0.1-0.2-0.3-0.4-0.4-0.6c-0.2-0.2-0.6-0.4-0.5-0.8c0,0,0-0.1,0.1-0.1
		c0.1,0,0.2,0,0.4,0c0.3,0,0.6-0.2,0.8-0.4c0.5-0.5,0.6-1.1,0.4-1.8c-0.1-0.6-0.4-1.2-0.9-1.8c-0.2-0.3-0.5-0.4-0.8-0.4
		c-0.1,0-0.3,0-0.3-0.1c-0.3-0.3-0.6-0.6-1-0.8c-0.3-0.1-0.5-0.2-0.7-0.3c-0.4-0.3-0.8-0.6-1.1-1c-0.2-0.2-0.3-0.4-0.2-0.7
		c0-0.1,0-0.1,0-0.2c0.1-0.3,0.1-0.7,0.2-1c0.1-0.4,0.2-0.8,0.3-1.2c0.1-0.4,0.2-0.6,0.3-1c0,0,0-0.1,0-0.2c0-0.1,0-0.4,0-0.6
		c0-0.2,0-0.5,0-0.7c0-0.2-0.3-0.3-0.4-0.2C140.2,9,140.1,9,140,9c-0.2,0-0.3,0.1-0.4,0.2l-1,1.1c0.3,0.2,0.4,0.6,0.4,1h-0.7h-0.1
		c-0.1-0.1-0.3-0.3-0.4-0.4c-0.1-0.1-0.1-0.2-0.2-0.3c-0.1-0.2-0.2-0.4-0.2-0.7c-0.1-0.4-0.1-0.9,0-1.3c0.1-0.2,0.1-0.4,0.1-0.6
		c0.1-0.5,0.3-1,0.7-1.4c0.3-0.4,0.8-0.6,1.3-0.6c0.3,0,0.8,0.4,0.9,0.7c0.1,0.5-0.2,1-0.6,1.3l-0.3,0.2c-0.3,0.2-0.7,0.2-0.8-0.2
		c0-0.1-0.1-0.3-0.1-0.4V7.4h-0.1c-0.1,0.1-0.1,0.2-0.2,0.3c-0.1,0.4,0,0.7,0.2,1c0,0.1,0.1,0.1,0.2,0.1c0.5,0.1,1.1,0,1.5-0.4
		c0.2-0.2,0.3-0.3,0.5-0.5c0.4-0.5,0.4-1.3-0.1-1.7c-0.2-0.2-0.4-0.3-0.7-0.5h-0.1c-0.2,0-0.4,0-0.6,0l-0.3,0.1
		c-0.3,0.1-0.5,0.2-0.7,0.5c-0.2,0.2-0.4,0.4-0.5,0.7c-0.2,0.3-0.3,0.6-0.4,1c-0.1,0.3-0.1,0.6-0.1,0.8s0,0.5,0,0.7
		c0,0.3,0.1,0.6,0.1,0.8c0.1,0.3,0.1,0.6,0.4,0.8c0,0,0.1,0.1,0.1,0.2h-0.3c-0.1-0.3-0.2-0.5-0.3-0.8c-0.3-0.5-0.4-1-0.3-1.5
		c0-0.8,0.2-1.5,0.6-2.2c0.1-0.2,0.2-0.4,0.3-0.5c-0.4,0.5-0.7,0.9-0.9,1.6c-0.2,0.5-0.2,1.1-0.2,1.6s0.1,1,0.3,1.4
		c0.1,0.3,0.2,0.5,0.3,0.8c-0.1,0.1-0.3,0.1-0.5,0.2c-0.1,0-0.3,0-0.4,0c-0.1,0-0.1-0.1-0.1-0.1c0-0.1,0-0.3,0.1-0.4
		c0.1-0.3,0.2-0.7,0.2-1.1c0-0.1-0.1-0.1-0.1-0.2c0-0.1-0.1-0.1-0.1-0.2c0-0.1,0.1-0.2,0.1-0.3c0.1-0.2,0-0.4-0.2-0.4L136,9
		c0-0.2,0-0.4,0-0.5c0-0.1,0-0.2-0.1-0.2c0,0-0.2,0-0.2,0.1c0,0.1-0.2,0.2-0.3,0.3c0,0,0-0.1-0.1-0.1l-0.2-0.2l-0.2,0.2v0.1
		c0,0.2,0,0.4,0,0.5c-0.1-0.3-0.2-0.5-0.3-0.8c-0.1-0.2-0.1-0.3-0.4-0.2c-0.1-0.2-0.1-0.4-0.2-0.6c-0.1-0.2-0.1-0.2-0.2-0.2
		c-0.1,0-0.2,0.1-0.3,0.2l-0.1-0.1c-0.3-0.3-0.7-0.5-1.1-0.4c-0.1,0-0.1,0.1-0.2,0.2c0,0.1,0,0.2,0,0.2c0,0.2,0.1,0.5,0.2,0.7
		c-0.1,0-0.2-0.1-0.2-0.1c-0.1,0-0.2,0-0.2,0.1c0,0.1,0,0.1,0,0.2c0,0,0,0.1,0,0.1l0.3,0.1l0.2,0.1l0,0c0-0.1,0-0.1,0-0.2
		c0-0.2,0-0.4-0.1-0.6c0-0.1,0-0.1-0.1-0.2c-0.1-0.1,0-0.2,0.1-0.2c0.2,0,0.4,0.1,0.5,0.2c0.2,0.1,0.3,0.3,0.5,0.4
		c0.1,0,0.1,0.1,0.2,0.1c0-0.1,0-0.1,0.1-0.2c0,0,0,0,0-0.1h0.1c0.1,0.2,0.2,0.4,0.2,0.6l-0.1,0.1c0,0,0,0,0.1,0
		c0.1,0.1,0.2,0,0.3-0.2c0.1,0.3,0.2,0.6,0.3,0.8v0.1v0.1c0.1,0.1,0.1,0.1,0.2,0.2h0.1c0.1,0,0.2,0,0.2-0.1c0-0.2,0-0.4,0-0.5
		c0-0.1,0-0.2,0-0.3l0.3,0.3l0.3-0.2l0.2-0.2c0.1,0.2,0.1,0.4,0,0.6h-0.1c-0.1,0.1-0.3,0.1-0.4,0.1c-0.1,0.1-0.2,0.1-0.2,0.2v0.1
		l0.1-0.1c0.1,0,0-0.1,0.2-0.1s0.4,0,0.6,0l-0.1-0.1c0.1,0,0.2,0,0.3,0c0,0.1,0,0.1,0,0.2c-0.1,0.2-0.2,0.4-0.3,0.6h0.1
		c0.3,0,0.3,0,0.3,0.3c-0.1,0.3-0.2,0.7-0.3,1c0,0.2,0,0.4,0,0.6c-0.1,0-0.1,0-0.2,0l-0.1-0.1c0.2-0.3,0.2-0.5,0.1-0.8
		c0-0.1,0.2-0.3,0.2-0.4c0-0.1,0.1-0.1,0-0.2c-0.1-0.1-0.2-0.1-0.2-0.1c0,0.1-0.1,0.1-0.1,0.2c0,0.2-0.2,0.3-0.4,0.3
		c0,0.2,0,0.3,0,0.4h-0.9v-0.1c-0.1-0.2,0-0.3,0.2-0.3c0-0.3,0.3-0.4,0.4-0.4s0.4,0,0.4,0s0-0.1,0.1-0.1c-0.2,0-0.3,0-0.5,0
		s-0.4,0.1-0.5-0.1c0,0.1-0.1,0.2-0.1,0.3l-0.3,0.1c0.1,0,0.1,0,0.2,0c0,0.1,0,0.3-0.1,0.4c0,0,0,0.1-0.1,0.1l-0.5,0.1
		c-0.1-0.1,0-0.3,0.1-0.4c0,0,0,0,0.1,0l0.3-0.2l-0.5,0.2c-0.1-0.2,0-0.3,0.1-0.4c0-0.1,0-0.2,0.1-0.2c0.1-0.1,0.2-0.2,0.3-0.2
		c0.1-0.1,0.1-0.1,0-0.2l-0.6,0.3c0-0.3,0-0.4,0.3-0.5c0.1,0,0.2-0.1,0.3-0.1c0.1,0,0.1-0.1,0.1-0.1V9.4l-0.6,0.3
		c-0.2-0.3-0.1-0.4,0.2-0.5c0.1-0.1,0.2-0.1,0.4-0.2c-0.2-0.1-0.4,0-0.8,0.2c-0.1-0.1-0.1-0.2,0-0.3c0.1-0.1,0.3-0.2,0.4-0.3
		l-0.7,0.3c-0.1-0.1-0.1-0.3,0.1-0.3l0.4-0.2c-0.1-0.1-0.4,0-0.7,0.2c0-0.1-0.1-0.1-0.1-0.2l-0.1-0.1c0,0.1,0,0.1,0,0.2v0.1
		c-0.1,0-0.2,0.1-0.3,0.1l0,0l0,0h0v0.1h0.1c0.1,0,0.1-0.1,0.2-0.1L133,9l0.1,0.1l0.1,0.1c-0.1,0.2,0.1,0.3,0.1,0.4
		c-0.2,0.1-0.4,0.2-0.6,0.4s-0.4,0.3-0.6,0.5c0,0,0,0,0,0c0.1,0.1,0.1,0.1,0.1,0.2c0,0.1,0.1,0.1,0.1,0.2c-0.5,0-1.1,0.2-1.5,0.5
		l0.3,0.1c0,0,0.1,0,0.1-0.1l0.4-0.2c0.1,0,0.2,0,0.2,0.1l-0.5,0.3v0l-0.5,0.2v-0.1l0.1-0.1c-0.3-0.2-0.4,0.3-0.7,0.2l0.4-0.2
		l-0.1-0.1c0,0,0,0,0,0c0,0-0.1,0.1-0.2,0.1c-0.1,0.1-0.2,0.3-0.4,0.3l-0.2,0.5l0.2-0.2c0-0.1,0.1-0.1,0.2-0.2l-0.2,0.3
		c0.1,0,0.2,0,0.2-0.1c0.1-0.2,0.3-0.3,0.5-0.3l-0.4,0.4v0.1h0.1c0.1-0.1,0.2-0.2,0.3-0.3c0.1-0.2,0.4-0.2,0.6-0.2l-0.8,0.6v0.1
		c0.1-0.1,0.1-0.1,0.2-0.1c0.3-0.2,0.7-0.4,1-0.6c-0.1,0-0.2-0.1-0.2-0.1s0.1-0.1,0.1-0.2c0.4-0.2,0.8-0.3,1.2-0.3
		c0,0,0.1,0,0.1,0.1c-0.2,0.1-0.4,0.1-0.6,0.1c-0.2,0.1-0.3,0.2-0.5,0.3l-0.1,0.1c0,0,0.1,0.1,0.2,0.1c0.1-0.3,1.1-0.6,1.4-0.3
		l-1,0.3c-0.1,0.1-0.3,0.1-0.4,0c-0.4,0.2-0.8,0.4-1.1,0.7v0.1h0.2c0.2-0.1,0.3-0.2,0.5-0.3c0.2-0.1,0.3-0.1,0.5-0.2h0.1v0.1
		l-0.4,0.1c-0.3,0.2-0.6,0.4-0.9,0.6c-0.1,0.1-0.2,0-0.3,0c-0.1-0.1-0.3-0.2-0.4-0.3c-0.1,0-0.3-0.1-0.4-0.1
		c-0.4-0.1-0.7-0.1-1.1-0.1c-0.3,0-0.6,0.1-1,0.2c-0.4,0.1-0.6,0.4-0.8,0.7c-0.1,0.2-0.2,0.5-0.3,0.7c0,0.1,0,0.1,0,0.2
		c0-0.1,0.1-0.1,0.1-0.2c0.1-0.4,0.3-0.8,0.7-1.1c-0.2,0.4-0.3,0.7-0.5,1.1l0.1,0.1l0.1-0.1c0.1-0.2,0.3-0.5,0.4-0.8
		c0.1-0.2,0.2-0.3,0.3-0.4c0-0.1,0.1-0.1,0.2-0.1c-0.2,0.5-0.6,0.7-0.6,1.3c0.1-0.1,0.1-0.1,0.2-0.2c0-0.1,0.1-0.3,0.2-0.5
		c0.1-0.1,0.2-0.2,0.3-0.3c0.1-0.1,0.2-0.2,0.3-0.3l-0.1,0.1l-0.5,0.9V14c0.2-0.1,0.4-0.3,0.5-0.5c0.1-0.2,0.2-0.4,0.4-0.5
		c0-0.1,0.1-0.1,0.2-0.1l-0.7,0.9v0.1c0-0.1,0.1-0.1,0.1-0.1c0,0.1,0.1,0.1,0.1,0.1c0.1-0.4,0.5-0.6,0.8-0.8c0.1,0,0.1,0,0.2,0
		c-0.2,0.2-0.3,0.3-0.4,0.5c-0.3,0.3-0.3,0.3-0.3,0.4l0.6-0.7c0.1-0.2,0.3-0.2,0.4-0.1c-0.3,0.4-0.8,0.7-1,1.2c-0.3-0.1-0.7-0.1-1,0
		c-0.5,0.1-0.9,0.3-1.3,0.5l-0.1,0.1l0.2,0.1c-0.1,0.3-0.3,0.5-0.4,0.8h0.2c0.1-0.4,0.5-0.9,0.9-1.1c-0.2,0.3-0.4,0.6-0.5,1
		c0.1,0,0.2-0.1,0.2-0.2c0-0.1,0.1-0.2,0.2-0.3c0.1-0.2,0.2-0.3,0.3-0.5c0.1-0.1,0.1-0.2,0.2-0.2l0.1-0.1c-0.1,0.1-0.2,0.2-0.3,0.3
		c-0.1,0.2-0.2,0.3-0.3,0.5c0,0.1-0.1,0.2-0.1,0.3c0.1,0.1,0.2,0,0.2-0.1c0.1-0.3,0.4-0.5,0.6-0.8c0,0,0,0,0,0
		c0.1-0.1,0.1-0.1,0.2-0.2c-0.1,0.1-0.1,0.2-0.2,0.2c-0.2,0.3-0.4,0.6-0.5,1c0,0,0.1,0.1-0.1,0.1s-0.2,0.1-0.3,0.2
		c-0.3,0.2-0.6,0.3-0.9,0.3c-0.1,0-0.1,0.1-0.2,0.1c0,0.2,0,0.2,0,0.3c-0.1,0,0,0,0,0.1c0,0.1,0,0.1,0,0.2s-0.1,0.3-0.1,0.4
		l-0.3,0.1c0,0,0,0,0.1,0l0.7-0.3c0,0.1,0,0.1,0,0.2c0,0.1,0.1,0.1,0.1,0.2l0.2-0.4l0.2,0.3l-0.1,0.1c0.1,0,0.2,0,0.3-0.1
		c0.2-0.1,0.4-0.2,0.6-0.3c0,0.1,0,0.1,0,0.2c0,0.1,0,0.2,0,0.2s0.2,0.1,0.3,0.1c0.4-0.2,0.9-0.5,1.3-0.7c0,0.1,0,0.1,0.1,0.2
		c0.1,0.1,0.1,0.2,0.2,0.1c0.2-0.1,0.3-0.1,0.4-0.2c0.3-0.3,0.7-0.7,1-1l0.1-0.1c0.1,0,0.2,0,0.3,0.1c0.2,0.1,0.3,0.1,0.4,0
		c0.1-0.1,0.3-0.3,0.4-0.5l0.1-0.1c-0.1,0.2-0.2,0.3-0.3,0.5c-0.1,0.2-0.1,0.4,0.2,0.4h0.1c0,0.1-0.1,0.2-0.1,0.3
		c-0.1,0.2-0.3,0.4-0.1,0.6l-0.2,0.2c-0.7,0.6-1,1.5-1,2.4c0,0.3,0.1,0.6,0.3,0.8c0.2,0.2,0.3,0.4,0.6,0.4c-0.3-0.1-0.4-0.4-0.5-0.7
		c-0.2-0.6-0.1-1.2,0.2-1.7v0.1c-0.2,0.5-0.3,1.1-0.1,1.6c0.1,0.2,0.2,0.4,0.3,0.5c0.1,0.1,0.3,0.2,0.5,0.3c-0.1,0-0.1,0-0.2,0h0
		l0,0c-0.1,0.3-0.2,0.7-0.2,1c0,0.4,0.2,0.7,0.5,0.9c0.1,0,0.1,0.1,0.1,0.2c0,0.4,0,0.8,0.1,1.3c0.1,0.4,0.4,0.8,0.8,1
		c0.2,0.1,0.3,0.2,0.5,0.2s0.4-0.1,0.6-0.2c0.1-0.1,0.3-0.2,0.4-0.3c0.1,0.2,0.2,0.3,0.4,0.5c-0.2,0.3-0.4,0.6-0.4,1
		c-0.1,0.2-0.1,0.3-0.1,0.5c0.1-0.3,0.1-0.5,0.2-0.8c0.1-0.1,0.1-0.3,0.3-0.3c0.1,0,0.2,0,0.1-0.1c-0.1-0.1,0-0.2,0.1-0.2
		c0.2-0.1,0.5-0.2,0.7-0.3c0.1,0,0.3,0,0.4,0c0,0.2-0.1,0.3-0.3,0.4c-0.2,0.1-0.2,0.3-0.1,0.3c0.1,0,0.1,0.1,0.1,0.2l0.1-0.2
		c0.1,0.1-0.1,0.2,0.1,0.3c0.1,0,0.1-0.1,0.1-0.1c0,0.2,0.1,0.3,0.1,0.4c0,0.1,0,0.2-0.1,0.2s-0.2,0.1-0.2,0.3c0,0.2,0,0.4-0.1,0.6
		c-0.1,0.2-0.2,0.4-0.3,0.6c-0.1,0.2-0.2,0.3-0.3,0.5c0.1-0.2,0.1-0.4,0.2-0.6c0.2-0.4,0.3-0.9,0.4-1.3c0.1,0,0-0.1,0-0.1l-0.1,0.1
		l-0.4,1.3c0,0,0,0,0,0.1c0,0.1,0,0.2-0.1,0.2c-0.1,0.1-0.2,0.1-0.3,0c-0.3-0.3-0.2-0.7,0-0.9l0.1-0.1c0.1-0.4,0.3-0.7,0.4-1
		c0-0.1-0.1-0.2-0.1-0.3c-0.3,0.4-0.5,0.9-0.6,1.4c0-0.2,0-0.3,0-0.5c0-0.5,0.2-1,0.6-1.3c0.1-0.1,0.1-0.2,0.1-0.3
		c-0.3,0.2-0.6,0.5-0.7,0.8c-0.1,0.4-0.2,0.8-0.3,1.2c0,0.3,0,0.6,0.1,0.9c0.1,0.4,0.5,0.6,0.9,0.6c0.2,0,0.3,0,0.5-0.1
		c0,0,0.1-0.1,0.1-0.1c0.4-0.4,0.8-0.9,0.9-1.5c0.1-0.1,0.1-0.3,0.2-0.4c-0.1-0.1-0.1-0.1-0.1-0.2l-0.2-0.1
		c-0.1,0.1-0.1,0.1-0.1,0.2c0,0.4-0.1,0.8-0.4,1.1c-0.1,0.1-0.1,0.2-0.2,0.3c0.3-0.6,0.5-1.2,0.5-1.9l0.2,0.1c0-0.1,0-0.2,0-0.2
		c-0.1-0.2-0.2-0.5-0.3-0.7c0,0,0-0.1-0.1-0.1l0.1-0.1l0.3,0.2c0,0.1,0.1,0.1,0.1,0.2c0.2,0.4,0.3,0.8,0.2,1.2c0,0,0,0,0,0
		c-0.1,0.6-0.3,1.2-0.8,1.7c-0.1,0.2-0.3,0.3-0.4,0.3c0,0-0.1,0.1-0.1,0.1c0,0,0,0,0,0l0.5-0.1c0,0,0-0.1,0-0.1c0,0,0,0.1,0,0.1h0
		c0,0.4,0,0.7,0.3,0.9c0.1,0.1,0.3,0.2,0.4,0.2c0,0,0.1,0,0.1,0c0.1,0,0.2,0,0.2,0c0,0,0,0,0,0c0,0,0,0,0,0c0.1-0.1,0.2-0.2,0.3-0.3
		c0,0,0,0,0-0.1c0-0.2,0.1-0.3,0.1-0.5c0,0.2,0,0.3,0,0.5c0,0.1-0.1,0.2-0.1,0.3c-0.1,0.1-0.2,0.1-0.3,0.1c0,0,0,0,0,0c0,0,0,0,0,0
		c-0.1,0-0.2,0-0.2,0c-0.1,0-0.2,0-0.4,0c0.2,0.1,0.5,0.2,0.8,0.3c0.1-0.1,0.2-0.2,0.4-0.4c-0.1,0.2-0.2,0.4-0.2,0.6
		c-0.2,0.5-0.1,1.1,0.3,1.5c0.3,0.3,0.7,0.5,1.1,0.3c0.1,0.1,0.3,0,0.4-0.2l0.2-0.2c0,0.4-0.3,0.7-0.7,0.8c-0.2,0.1-0.3,0-0.5,0
		c0.4,0.2,0.9,0.1,1.3-0.2c0.2-0.1,0.3-0.3,0.4-0.5c0-0.1,0.1-0.2,0.1-0.4c0-0.2,0.1-0.5,0.1-0.7c0-0.2-0.1-0.6,0.3-0.8
		c-0.2,0-0.3,0-0.5-0.1c-0.1,0.3-0.3,0.6-0.6,0.8c-0.1,0.1-0.2,0.1-0.4,0.1l-0.1-0.1c0.3-0.1,0.6-0.2,0.7-0.5
		c0.2-0.3,0.3-0.6,0.4-0.9c0.1-0.5,0.1-1,0-1.5c0,0,0,0,0-0.1c-0.1-0.2-0.2-0.4-0.2-0.6c-0.1,0.1-0.2,0.1-0.3,0.2l-0.1,0.1
		c0,0.4,0,0.8,0,1.1c0,0.5-0.1,0.9-0.2,1.4c0.1-0.9,0-1.7,0.1-2.6h-0.1h-0.1c0,0.9-0.1,1.9-0.3,2.8H139c0-0.2,0-0.5,0-0.7v-0.1
		c-0.1-0.3-0.1-0.6,0-0.9c0-0.4,0.1-0.7,0.2-1c0-0.1-0.1-0.1-0.1-0.3c-0.1,0.3-0.1,0.6-0.2,0.8s-0.1,0.7-0.1,1
		c0,0.1-0.1,0.3-0.1,0.4c0,0.1,0,0.2,0,0.3c0.1,0.3,0.1,0.3-0.1,0.4c0,0.1,0,0.1,0.1,0.1c0.1,0-0.1,0.1-0.1,0.2
		c-0.2,0-0.3-0.2-0.3-0.3c-0.2-0.5-0.2-1.1-0.1-1.7c0.1-0.3,0.2-0.6,0.3-0.8c0-0.1,0.1-0.1,0.1-0.2c0,0,0,0,0,0c0-0.1,0-0.1,0.1-0.1
		c0,0,0,0.1,0,0.1h0c0,0.1,0,0.1,0,0.2c-0.2,0.5-0.3,1.1-0.3,1.6c0-0.2,0.1-0.4,0.1-0.6c0.1-0.4,0.2-0.8,0.3-1.2
		c0-0.1,0.1-0.3,0.3-0.3c0.2,0,0.3-0.1,0.5-0.2c0.2-0.1,0.3,0,0.4,0.2c0,0,0,0.1,0.1,0.1c0,0,0,0,0,0c0.2,0.2,0.2,0.4,0.2,0.6
		c0,0.1,0.1,0.2,0.1,0.3c0.1,0.1,0.1,0.3,0.2,0.5c-0.1,0.5-0.2,0.9-0.3,1.4c0,0,0.1-0.1,0.2-0.1h0.1l0.5-0.2
		c0.2-0.1,0.4-0.3,0.4-0.6c0-0.1,0-0.2,0.1-0.2c0.1,0,0.1-0.1,0.2-0.1c0,0.5-0.3,1-0.8,1.2c0,0-0.1,0-0.1,0c0.3,0,0.5,0,0.8-0.2
		c0.4-0.2,0.6-0.6,0.7-1.1c0-0.2,0.1-0.5,0.3-0.6c0.1-0.1,0.1-0.2,0.2-0.3c0.2-0.4,0.3-0.9,0.3-1.3c0-0.2,0-0.5-0.1-0.7
		c0-0.1,0-0.1,0-0.2c0-0.1,0-0.2,0.1-0.3c-0.1,0-0.2,0-0.3-0.1c0,0,0,0-0.1-0.1c0.1,0,0.1,0,0.2,0c0.1,0,0.1,0.1,0.2,0.1
		c0,0,0-0.1,0-0.1l0.1-0.1v0h0l0,0c0.1,0,0.2,0,0.2,0.1c0.1,0,0.1-0.1,0.2-0.1c0.1-0.1,0.1-0.1,0.2-0.2c0.1-0.1,0.1-0.2,0.2-0.4
		c0.1-0.4,0.1-0.7,0.1-1.1c-0.1-0.5-0.3-0.9-0.6-1.2c-0.1-0.1-0.1-0.2-0.1-0.2c0.1,0.1,0.2,0.2,0.3,0.3c0.2,0.3,0.4,0.6,0.5,0.9
		c-0.1-0.1,0,0,0,0.2c0,0.3,0,0.6,0,1c-0.1,0.3-0.2,0.6-0.5,0.8c0,0-0.1,0-0.1,0.1c0.1,0,0.2,0,0.3-0.1c0.6-0.3,0.9-0.8,0.9-1.4
		C144.5,24,144.5,23.7,144.5,23.5z M139.5,8.4c-0.3,0.1-0.6,0.2-0.9,0.2c-0.1,0-0.2-0.1-0.2-0.2V8.3c0.2,0.2,0.5,0.2,0.7,0.1
		c0.2-0.1,0.3-0.1,0.5-0.2l0.3-0.1C139.8,8.2,139.7,8.3,139.5,8.4z M140.3,6.2c0.4,0.4,0.4,1,0,1.4c0.2-0.4,0.3-0.8,0.1-1.2
		c-0.2-0.3-0.6-0.6-1.1-0.6C139.5,5.6,140.1,5.9,140.3,6.2z M140.1,28c0,0.2,0,0.5,0,0.7l-0.1-0.9C140,27.8,140.1,27.9,140.1,28z
		 M144.2,20.6c0.2-0.3,0.4-0.7,0.6-1.2C144.8,19.9,144.6,20.4,144.2,20.6z M140.3,15.1c0.3,0.2,0.6,0.5,0.9,0.7
		c0.1,0.1,0.3,0.1,0.4,0.2c0.5,0.2,0.9,0.5,1.1,0.8c0,0,0,0,0,0.1c-0.1-0.1-0.2-0.2-0.2-0.2l-0.1,0.2c0,0,0.1,0,0.1,0.1l-0.2,0.2
		l0.1,0.1h0.2c0.1,0,0.1,0,0.2,0l0,0.3l0.2-0.1c0.1,0.1,0.1,0.2,0.2,0.2c0,0,0.1,0.1,0.1,0c0,0,0.1,0,0.1-0.1c0-0.1,0-0.1,0-0.2
		s0-0.2-0.1-0.4c0.3,0,0.5,0.1,0.7,0.3c0.1,0.2,0.3,0.4,0.4,0.5c0.2,0.4,0.4,0.8,0.5,1.2c0,0.1,0,0.2,0,0.2c-0.2,0-0.2-0.2-0.2-0.3
		c0-0.2,0-0.5-0.2-0.7c-0.2-0.3-0.4-0.6-0.6-0.9l-0.1-0.1c-0.1,0.2-0.1,0.4,0.1,0.6c0.2,0.3,0.4,0.6,0.4,1c0.1,0,0.3,0,0.3,0.2
		c0,0.2,0,0.3,0,0.5c0,0.1-0.1,0.2-0.2,0.2s-0.2-0.1-0.2-0.3s0-0.3,0-0.4c0-0.1,0-0.3-0.1-0.4c0,0-0.1-0.1-0.1-0.2
		c-0.1-0.2-0.1-0.4-0.2-0.6c0,0.1-0.1,0.1-0.1,0.1c0,0.1,0.1,0.3,0.1,0.4c0.1,0.3,0.2,0.5,0.2,0.8c0,0.1,0.1,0.2,0.1,0.4
		c0,0.1,0,0.1,0,0.2l-0.2-0.8l-0.1,0.1c0-0.2-0.2-0.3-0.1-0.5c0.1-0.2-0.3-0.4-0.4-0.4c-0.1,0-0.1,0.1-0.1,0.1v0.1
		c0.2,0.3,0.4,0.7,0.4,1.1c0.1,0.2,0.1,0.5,0.2,0.7h-0.1c-0.1-0.1-0.1-0.2-0.2-0.4c-0.1-0.4-0.3-0.7-0.4-1.1
		c-0.1-0.1-0.1-0.2-0.2-0.3c0,0,0,0-0.1-0.1c0-0.2-0.2-0.3-0.4-0.5c0-0.2,0-0.3-0.1-0.4l-0.2,0.3c-0.4-0.7-1-1.1-1.8-1.4
		c0-0.1,0.1-0.3,0.1-0.5c0.1,0.1,0.2,0.1,0.3,0.2c0.3,0.3,0.8,0.6,1.2,0.7c0.2,0.1,0.3,0.2,0.5,0.3c0-0.1,0.1-0.1,0.2-0.2
		c0,0,0,0,0,0c-0.2-0.1-0.4-0.3-0.6-0.3c-0.5-0.2-0.9-0.5-1.3-0.8c-0.1-0.1-0.2-0.3-0.4-0.2c0-0.1,0-0.3-0.2-0.2c0,0-0.1,0-0.1-0.1
		l-0.2-0.2c-0.1-0.1-0.2-0.2-0.1-0.3c0.1-0.1,0-0.1,0-0.2C139.8,14.6,140.1,14.8,140.3,15.1z M141.8,26.3
		C141.8,26.3,141.8,26.4,141.8,26.3c-0.2-0.5-0.2-1.2-0.3-1.9c-0.1,0-0.2,0.1-0.2,0.2c0.1,0.3,0.1,0.7,0,1c0,0.2,0,0.5,0,0.7
		c0,0,0-0.1-0.1-0.1c0-0.2,0-0.4-0.1-0.6c-0.1-0.2-0.1-0.6-0.1-1l-0.1-0.1c0,0.4,0,0.8,0,1.3c-0.2-0.6-0.3-1.3-0.2-2
		c0,0.1,0.1,0.2,0.1,0.3c0.2-0.1,0.3-0.1,0.2-0.3c0-0.1,0-0.1,0-0.2h0.1c0,0.1,0.1,0.2,0.1,0.3c0.3-0.1,0.1-0.4,0.2-0.6h0.1
		c0,0.1,0,0.2,0.1,0.3c0.1,0.1,0.1,0.1,0.2,0.2h0.1l-0.1-0.5h0.1c0.1,0.1,0.1,0.1,0.2,0.2c0.3,0.5,0.4,1.1,0.3,1.7
		c0,0.3,0,0.5-0.1,0.8l-0.3-1.8l-0.2-0.1c0,0.1,0,0.2-0.1,0.3C141.7,25,141.8,25.7,141.8,26.3z M141.3,27.3c0,0.2,0,0.5,0.1,0.7
		c0,0.2,0,0.3,0,0.5c0,0-0.1,0-0.1,0.1C141.2,28.1,141.2,27.6,141.3,27.3L141.3,27.3C141.2,27.2,141.3,27.2,141.3,27.3z M141.1,28.5
		c-0.2-0.4-0.3-0.9-0.2-1.4C141,27.6,141.1,28,141.1,28.5z M140.6,25.6c-0.2-0.4-0.2-0.8-0.1-1.2C140.7,24.8,140.7,25.2,140.6,25.6z
		 M141.8,22.1l0.2,0.7C141.8,22.7,141.7,22.4,141.8,22.1z M141.8,21.9c0-0.1-0.1-0.1-0.1-0.2c0,0,0,0,0,0c0,0.4,0,0.8-0.2,1.2
		c-0.4,0.6-1,0.9-1.6,0.8c-0.2-0.1-0.3-0.1-0.4-0.2c0,0,0,0,0,0c0,0-0.1,0-0.1-0.1c0.1,0,0.1,0,0.1,0.1c0.1,0,0.1,0.1,0.2,0.1
		c0.3,0.1,0.6,0,0.9-0.1c0.3-0.1,0.5-0.3,0.6-0.6c0.2-0.4,0.2-0.9,0.2-1.4c0-0.2,0-0.3,0-0.5h0.1c0.1,0.1,0.1,0.2,0.1,0.3
		c0-0.1,0-0.2,0-0.2V21c0-0.1,0.1-0.2,0-0.2c-0.1-0.1-0.2-0.2-0.2-0.3c0.2-0.1,0.3,0,0.4,0.2c0,0.1,0.1,0.1,0.1,0.2
		C142,21,142,21,142,21.1c0,0.1,0,0.2,0.1,0.3c0.1,0.3,0.2,0.6,0.3,0.9v0.1l-0.4-1.1l-0.2,0.1c0.2,0.5,0.4,1,0.5,1.5h-0.1
		c0-0.1,0-0.2-0.1-0.3c-0.1-0.1-0.1-0.3-0.1-0.4C141.9,22.1,141.9,22,141.8,21.9z M139.7,26.3c-0.1-0.8-0.3-1.7-0.5-2.5h0.1
		C139.6,24.6,139.8,25.5,139.7,26.3z M138.7,21.6L138.7,21.6c0.1,0.1,0.2,0.2,0.2,0.3c0,0.4,0,0.8,0,1.2c-0.1,0-0.1,0.2-0.2,0.3
		c0-0.3,0.1-0.6,0.1-0.9S138.7,21.9,138.7,21.6z M138.6,20.8c-0.2,0-0.3,0-0.5-0.1c-0.3-0.2-0.6-0.5-0.7-0.8
		c-0.1-0.1-0.1-0.2-0.1-0.3c0-0.1,0-0.3,0-0.5c-0.1-0.3-0.1-0.7-0.1-1c0-0.1,0-0.3,0.1-0.4c0-0.1,0-0.2,0.1-0.2
		c0.1-0.4,0.3-0.6,0.5-0.8c0,0-0.1,0-0.1,0c-0.1-0.1-0.2-0.1-0.2-0.2c-0.2-0.3-0.3-0.3-0.4-0.1c-0.1,0.1-0.2,0.1-0.3,0.2l0.3-0.1
		c-0.1,0.2-0.1,0.3-0.1,0.5l-0.3-0.3l0.1-0.1l-0.4,0.2c0-0.1,0-0.3,0.1-0.3c0.3-0.1,0.6-0.3,1-0.4c0.1-0.1,0.2,0.1,0.3,0.1
		c0.1,0.1,0.1,0.3,0.1,0.4c0,0,0,0,0,0c0,0,0,0,0,0c0,0,0.1-0.1,0.1-0.1c0-0.1,0.1-0.1,0.1-0.1l0,0c0.1,0,0.2-0.1,0.3-0.1
		c0.1,0,0.2,0,0.2,0.1c-0.2-0.4-0.4-0.6-0.7-0.9l0.5-0.5c0.1,0.5,0.1,0.9,0.2,1.4c0,0,0,0,0,0c0,0.1,0,0.2-0.1,0.3
		c-0.1,0.1-0.1,0.1-0.2,0.2c-0.1,0.1-0.1,0.1,0,0.2c0,0.3,0.1,0.4,0.4,0.4v-0.1l0.1-0.1c0,0.1,0,0.2,0,0.3h0.4c0-0.1,0-0.1,0-0.2
		c0.3,0.7,0.3,1.5,0.2,2.3c-0.1-0.2-0.2-0.3-0.1-0.5c0-0.4,0-0.8-0.1-1.2c-0.2,0-0.2,0.2-0.2,0.3c0,0.4,0,0.8,0,1.2
		c-0.1-0.4-0.2-0.9-0.2-1.3c-0.1-0.1-0.2,0-0.2,0.1c0,0.4,0,0.8,0,1.2c0,0.1,0,0.1,0,0.2c-0.1,0-0.1-0.1-0.1-0.1c0-0.2,0-0.3,0-0.5
		c0.1-0.3,0-0.5,0-0.8c0-0.1,0-0.2-0.1-0.2c-0.1,0-0.1,0.1-0.1,0.2v0c0,0.1,0.1,0.1,0.1,0.1c0,0.4,0,0.8-0.1,1.1
		c0-0.1-0.1-0.2-0.1-0.3c0,0.2,0,0.4,0,0.7c0-0.1-0.1-0.2-0.1-0.3c-0.3,0.2-0.5,0.1-0.6-0.2l-0.1-0.1c0.1-0.2,0.1-0.5,0.1-0.7
		c0-0.3,0.1-0.5,0.2-0.8c0.1-0.1,0-0.2,0-0.3c-0.1,0.3-0.2,0.5-0.3,0.7c0-0.3,0.1-0.6,0.3-0.9c0.1-0.1,0.2-0.2,0.3-0.4
		c-0.2,0.1-0.4,0.2-0.5,0.4c-0.1,0.1-0.2,0.3-0.3,0.4c0,0.1-0.1,0.3-0.1,0.4c0,0.1,0,0.1,0,0.2c0,0.3,0,0.5,0.1,0.8
		c0,0.1,0.1,0.3,0.1,0.4c0.2,0.6,0.7,1,1.3,1.1c0.2,0.1,0.5,0,0.7-0.1C139,20.8,138.8,20.8,138.6,20.8z M138.1,24
		c0.1-0.4,0.2-0.7,0.2-1.1c0-0.1,0-0.3,0-0.4c0-0.3,0-0.5,0-0.8c0.1,0.4,0,0.8,0,1.2c0,0.1,0,0.2,0,0.3
		C138.4,23.4,138.3,23.7,138.1,24z M137.3,23c0,0.1,0,0.2,0,0.3c0.1,0.1,0,0.3-0.1,0.4c-0.2,0-0.3,0-0.4-0.1c-0.1-0.3-0.1-0.6,0-0.9
		c0.1-0.3,0.2-0.5,0.3-0.8c0.1-0.2,0.2-0.4,0.3-0.6h0.1c-0.1,0.2-0.2,0.4-0.3,0.6c-0.1,0.2-0.1,0.3-0.2,0.5c0,0.1,0.1,0.1,0.1,0.2
		c0.2-0.4,0.3-0.8,0.5-1.2h0.1v0.1C137.6,22,137.4,22.5,137.3,23z M137.7,22.2c0,0.6-0.1,1.1-0.2,1.7h-0.1
		C137.6,23.3,137.7,22.8,137.7,22.2z M136.6,23.6c-0.1,0.1,0,0.2,0.1,0.4c-0.1,0-0.1,0-0.2-0.1c-0.1-0.2-0.2-0.4-0.2-0.7
		c-0.1-0.6,0.1-1.3,0.4-1.8c0,0,0-0.1,0.1-0.1c0,0,0,0,0.1,0c-0.1,0.3-0.2,0.5-0.3,0.7c0,0.1,0,0.1,0,0.2
		C136.5,22.7,136.5,23.1,136.6,23.6z M134.6,21.3c-0.2-0.2-0.3-0.4-0.4-0.6c-0.1-0.1-0.1-0.3-0.1-0.4h0.1c0,0.1,0.1,0.2,0.1,0.3
		c0.1,0.3,0.3,0.6,0.5,0.8c0.2,0.2,0.5,0.2,0.8,0.1c0.4-0.1,0.6-0.5,0.8-0.9c0.1-0.4,0.3-0.7,0.3-1.1c0-0.2,0.1-0.3,0.1-0.5
		c0.2,0.5,0.1,1.1-0.2,1.6c-0.2,0.4-0.4,0.7-0.8,0.9C135.4,21.7,134.9,21.6,134.6,21.3z M135.6,21.9l-0.2,0.5c0-0.2,0.1-0.4,0.1-0.5
		H135.6z M134.3,21.8c-0.2-0.2-0.3-0.3-0.4-0.2c0.1,0.1,0,0.3,0.1,0.4c0.1,0.1,0.1,0.2,0.3,0.1c0,0.2,0,0.4-0.1,0.6
		c-0.2,0.3-0.2,0.7-0.3,1c-0.1,0.4-0.1,0.7-0.2,1c0,0.1-0.1,0.2-0.2,0.3c0-0.4,0-0.9,0.1-1.3c0.1-0.4,0.2-0.8,0.3-1.2h-0.1
		c-0.3,0.8-0.5,1.6-0.6,2.5c0-0.4,0-0.7,0.1-1.1c0.1-0.4,0.2-0.9,0.4-1.3c0.1-0.1,0-0.2-0.1-0.2c-0.1,0.3-0.2,0.6-0.4,1
		c-0.2,0.4-0.2,0.7-0.3,1.1l-0.2-0.1c-0.1-0.1-0.2-0.1-0.2-0.2c-0.1-0.4-0.1-0.8,0.1-1.2c0-0.2,0.1-0.2,0.2-0.1
		c0.1-0.4,0.3-0.7,0.5-1l-0.5,1c0,0,0.1,0,0.1,0c0.2-0.3,0.4-0.6,0.5-1c0.1-0.1,0-0.3,0-0.5c-0.3,0.2-0.6,0.5-0.7,0.8
		c-0.1,0.4-0.2,0.7-0.4,1v-0.1c0.1-0.6,0.4-1.2,0.9-1.6c0.2-0.3,0.7-0.4,1-0.2v0.2C134.2,21.6,134.1,21.7,134.3,21.8
		c0.1-0.1,0.1-0.1,0.1-0.1L134.3,21.8z M134.6,22.2L134.6,22.2c0,0.6-0.1,1.2-0.3,1.8C134.4,23.4,134.5,22.8,134.6,22.2z M133.9,24
		l0.2-0.9c0,0.6-0.1,1.3-0.3,2c0-0.2,0-0.4,0.1-0.6C134,24.3,133.9,24.2,133.9,24z M132.6,21.4c0.3-0.3,0.6-0.9,1-1L132.6,21.4z
		 M133.7,20.5h0.1v0.1c-0.1,0.3-0.4,0.4-0.7,0.6L133.7,20.5z M134.6,13.7c-0.3,0.1-0.5,0.3-0.8,0.3c-0.1,0-0.1-0.1-0.1-0.2
		C134,13.8,134.3,13.5,134.6,13.7z M133.1,13.3c-0.2,0-0.5,0.1-0.7,0.1l0.2-0.2c0.1,0.1,0.2,0.1,0.3,0c0.2-0.1,0.3-0.1,0.5-0.1
		c0.1,0,0.3,0.1,0.4,0.1v0.1C133.5,13.3,133.3,13.3,133.1,13.3z M134.8,14.7c0.1,0,0.3,0,0.3-0.1c0,0.1,0,0.2-0.2,0.2l-0.3,0.1
		C134.6,14.8,134.6,14.7,134.8,14.7z M134.7,14.5c0.1-0.2,0.2-0.3,0.3-0.4C134.9,14.4,134.9,14.4,134.7,14.5z M135.5,13.6
		C135.4,13.7,135.4,13.6,135.5,13.6c0.2-0.1,0.5-0.2,0.8-0.1c-0.1,0.1-0.2,0.2-0.3,0.3c0,0.1-0.2,0.4-0.4,0.4l0.2,0.1
		c0.2,0.2,0.3,0,0.5,0.1l-0.4,0.4l0.1,0.1c0.2-0.1,0.4-0.1,0.6-0.2v0.1l-0.9,0.6l-0.1-0.1l-0.1-0.8l-0.1-0.1c0,0-0.1-0.2,0-0.3
		C135.3,13.9,135.4,13.8,135.5,13.6z M139.2,11.2c0-0.1,0-0.2-0.1-0.3c0.2-0.1,0.3-0.2,0.5-0.2c0,0.1,0.1,0.1,0.1,0.1v0.1
		C139.6,11.1,139.4,11.2,139.2,11.2z M139.7,11.3c-0.1,0.1-0.2,0.2-0.3,0.3c-0.1,0.1-0.1,0-0.1-0.1c0-0.1,0.1-0.1,0.1-0.1
		C139.4,11.3,139.4,11.3,139.7,11.3L139.7,11.3z M139.2,11.8c0.1,0,0.2-0.1,0.2-0.1s0.3,0.1,0.5,0c0.1,0.1,0,0.2,0,0.4
		c-0.1-0.1-0.4-0.1-0.5,0c-0.1,0.1-0.2,0.1-0.3-0.1C139.1,11.9,139.2,11.9,139.2,11.8z M139.4,12.2c0,0.1,0.1,0.1,0.1,0.2
		c0,0.1-0.1,0.1-0.2,0.2l-0.2-0.2L139.4,12.2z M139.6,13.1c0,0.2,0,0.2-0.1,0.3C139.4,13.3,139.4,13.3,139.6,13.1z M139.5,13.6v0.1
		c0,0,0,0.1-0.1,0.1c-0.2-0.1-0.3-0.2-0.5-0.3c-0.2-0.1-0.1-0.1,0-0.3c0.1,0.1,0.2,0.1,0.2,0.2C139.2,13.5,139.3,13.6,139.5,13.6
		L139.5,13.6z M140.2,17.1c0-0.1,0-0.1-0.1-0.2l0.3,0.1c0.1-0.3-0.2-0.4-0.2-0.6c0.2,0,0.5,0.1,0.6,0.3c0.3,0.2,0.6,0.5,0.8,0.7
		c0.2,0.2,0.3,0.4,0.3,0.6s0.1,0.3,0.1,0.5s0,0.3,0,0.5s-0.2,0.5-0.4,0.6c-0.1,0-0.1,0.1-0.2,0.1l0.1-0.1c0.3-0.3,0.4-0.7,0.3-1.1
		c0-0.1,0-0.1,0-0.2c-0.1-0.4-0.3-0.8-0.6-1.1c-0.1-0.1-0.2-0.3-0.4-0.4c-0.1,0.1-0.1,0.3,0,0.4c0,0,0.1,0.1,0.1,0.1c0,0,0,0,0,0
		l0.2,0.4c0.1,0.2,0.2,0.3,0.3,0.5c0,0,0,0,0,0.1l-0.3-0.6c-0.1-0.1-0.1-0.2-0.2-0.4c-0.1,0.1-0.1,0.2,0,0.3c0.2,0.5,0.5,1,0.7,1.5
		c0,0.1,0,0.1,0,0.2h-0.1c-0.1-0.1-0.1-0.2-0.2-0.4c-0.1-0.2-0.2-0.4-0.3-0.6c-0.1-0.2-0.2-0.4-0.4-0.6c0-0.1-0.2-0.2-0.3-0.1
		c0.1,0.1,0.2,0.3,0.3,0.4c0.1,0.3,0.3,0.6,0.5,0.9V19H141c-0.4-0.6-0.8-1.3-1.1-2h0.1l0,0.2L140.2,17.1z M142.3,20.7L142.3,20.7
		c0.1,0.3,0.3,0.5,0.4,0.7c0,0.2,0.1,0.3,0.1,0.5c0,0.1,0,0.2,0,0.4c0,0.1-0.1,0.1-0.2,0.1c-0.1,0-0.1-0.1-0.1-0.1s0,0,0-0.1
		c0.2-0.4-0.1-0.7-0.2-1c-0.1-0.3-0.3-0.5-0.4-0.7C142.1,20.5,142.2,20.6,142.3,20.7z M142.2,19.5c0-0.1,0-0.2,0-0.3
		c0-0.1,0-0.2,0-0.3c0.2,0.5,0.4,0.9,0.5,1.5l-0.1-0.1C142.5,20,142.3,19.8,142.2,19.5z M141.2,20.2c0.2-0.3,0.7-0.2,1,0.1
		C141.8,20.2,141.5,20,141.2,20.2z M140.5,21.4c0.1,0.3,0.2,0.6,0.3,0.9c0,0.1,0,0.2,0.1,0.3h-0.1c-0.2-0.5-0.3-1-0.5-1.5
		c-0.1,0.1-0.1,0.3-0.1,0.5c0.1,0.4,0.2,0.9,0.3,1.3c0,0,0,0,0,0.1l-0.5-1.6c-0.2,0-0.2,0-0.2,0.2c0.1,0.4,0.2,0.7,0.4,1
		c0,0.1,0,0.2,0,0.4c-0.2-0.3-0.3-0.7-0.4-1.1c-0.2-0.3-0.4-0.7-0.6-1c0,0,0.1-0.1,0.1-0.1c0,0,0,0,0,0c0.3-0.3,0.6-0.7,0.8-1.2
		c0,0.3,0,0.5-0.2,0.7c-0.1,0.1-0.1,0.1-0.2,0.2l0.1,0.1c0.3,0.1,0.3,0,0.3-0.1c0-0.1,0-0.1,0-0.2h0.1l0.1,0.1l0.1-0.1l-0.2-0.2
		c0.1,0,0.1,0.1,0.2,0.1c0.1,0.1,0.3,0.3,0.4,0.5c0.1,0.2,0,0.1,0,0.2V21l0.2,0.6v0.1c-0.2-0.1-0.3-0.3-0.3-0.6
		c0-0.1-0.1-0.3-0.2-0.4C140.4,20.9,140.4,21.2,140.5,21.4z M139.6,18.5c0-0.3-0.1-0.6-0.2-1c-0.1,0-0.1-0.1-0.2-0.2l-0.1-0.1
		c0.1,0,0.2,0.1,0.3,0.3c0.2,0.5,0.4,1,0.4,1.6h-0.1C139.7,18.9,139.7,18.7,139.6,18.5z M140.9,20.3c-0.3-0.3-0.5-0.3-0.6-0.5
		C140.8,19.9,140.9,20,140.9,20.3c0.4,0,0.3,0.3,0.4,0.5C141.2,20.8,141.2,20.8,140.9,20.3z M140.4,18.9c0.2,0,0.6,0.7,0.5,0.8
		L140.4,18.9z M139.7,17c-0.1-0.3-0.1-0.4,0.1-0.4l0.1,0.3L139.7,17z M139.9,15.8c0,0.1-0.1,0.2-0.1,0.4s-0.1,0.1-0.2,0.3
		c-0.1-0.4-0.1-0.9,0-1.3c0.1,0.1,0.2,0.3,0.3,0.4C140,15.7,139.9,15.7,139.9,15.8z M139.8,17.4c0.2,0.4,0.4,0.9,0.4,1.4
		c0,0.2,0,0.4-0.1,0.7c0,0,0,0-0.1,0.1c0-0.2,0-0.4,0-0.5c0-0.3,0-0.7-0.2-1c-0.1-0.2-0.2-0.3-0.2-0.5c-0.1-0.2-0.3-0.4-0.5-0.5
		c-0.1,0-0.2-0.2-0.2-0.3c0.2,0,0.2,0.1,0.3,0.2c0.1,0.1,0.2,0,0.2,0.1C139.6,17.1,139.7,17.3,139.8,17.4z M139.2,15.2
		c0,0.1,0,0.1,0,0.2l-0.4-0.3l0.1-0.1L139.2,15.2z M139,14.7c0-0.1,0-0.1,0-0.2c0.2,0,0.3,0,0.2,0.3L139,14.7z M138.8,13.8L139,14
		l-0.3,0.1C138.6,13.9,138.7,13.9,138.8,13.8z M138.9,17.1c-0.2-0.2-0.3-0.5-0.3-0.7C138.8,16.6,138.9,16.8,138.9,17.1z M138.4,14.6
		l-0.1-0.2l0.2-0.3C138.7,14.3,138.7,14.3,138.4,14.6z M138.2,14.9l-0.4,0.3c-0.1,0.1-0.1,0.2,0,0.4c0.2,0.2,0.3,0.4,0.4,0.6
		l-0.1-0.1c-0.1-0.1-0.2-0.3-0.4-0.3c-0.1,0-0.1-0.2-0.2-0.4c-0.1-0.2-0.1-0.1-0.2-0.1c0,0-0.1,0.1-0.2,0.1
		c-0.3,0.2-0.5,0.3-0.9,0.4c-0.2,0.1-0.2,0.1-0.2,0.3c0,0.3,0,0.6,0,1c0,0,0,0.1-0.1,0.1c0-0.4,0-0.8,0-1.2c0-0.1,0-0.2-0.1-0.2
		c-0.1,0-0.2,0-0.3,0.1c-0.3,0.1-0.5,0.2-0.8,0.3c-0.3,0.1-0.5,0.1-0.8,0.1c-0.1-0.2,0.1-0.2,0.2-0.2c0.3-0.1,0.5-0.1,0.8-0.1
		c0.2,0,0.4,0,0.6-0.1c0,0,0.1,0,0.1,0c0.1,0,0.1,0,0.2,0c0.3-0.1,0.6-0.2,1-0.3c0.1,0,0.2-0.1,0.3-0.1c0,0,0.1,0,0.1-0.1
		c0,0,0,0,0,0c0.3-0.2,0.6-0.4,0.9-0.7C138.4,14.7,138.4,14.8,138.2,14.9z M137.4,15.9l-1,0.4c0,0,0-0.1,0.1-0.1l0.8-0.3
		C137.3,15.9,137.3,15.9,137.4,15.9z M136.6,16.9c-0.1,0.1-0.1,0.3-0.1,0.4c0,0.1-0.1,0-0.1,0.1c-0.1-0.1-0.1-0.2-0.1-0.2
		C136.3,17,136.3,16.9,136.6,16.9z M135.5,16.4C135.5,16.4,135.5,16.4,135.5,16.4l-0.2,0.1L135.5,16.4c-0.1-0.1-0.1-0.2-0.2-0.1
		c-0.3,0.1-0.7,0.2-1,0.3c0,0-0.1,0-0.1,0l0,0l0.1,0c0,0.1,0,0.1,0,0.1l0,0.1c0,0,0,0,0,0c-0.1,0.2-0.3,0.3-0.5,0.5
		c-0.1,0.5-0.1,0.4-0.1,0.2c0-0.1,0-0.2,0-0.3c0.1-0.1,0.2-0.3,0.4-0.4c0.1,0,0.1,0,0.2,0c0,0,0,0,0-0.1l-0.1-0.1l-0.3,0.2
		c-0.1,0-0.1,0-0.2,0c0,0.1-0.1,0.2-0.2,0.3c0.1-0.2,0.2-0.4,0.3-0.6c0,0.1,0,0.2-0.1,0.3l0.1-0.1c0.2,0,0.3-0.1,0.5-0.1
		c0.4-0.2,0.9-0.3,1.3-0.4L135.5,16.4C135.5,16.3,135.5,16.3,135.5,16.4l0.2-0.2c0,0.2,0,0.4,0,0.6c0,0.1-0.1,0.2-0.2,0.2l-0.4,0.1
		c-0.2-0.3-0.3,0.1-0.4,0.1c-0.1-0.2-0.1-0.3-0.1-0.5l0.6-0.2l-0.2,0.1v0.1L135.5,16.4z M134.1,15.9l0.9-0.3h0.1h0.1l-0.1,0.1
		L134.1,15.9L134.1,15.9z M136.9,15.2c-0.2,0.1-0.5,0.2-0.7,0.3H136v-0.1c0.2-0.1,0.3-0.3,0.6-0.3c0.1,0,0.2-0.1,0.3-0.1
		c0.1,0,0,0.1,0.1,0.1C137,15.2,136.9,15.2,136.9,15.2z M135.4,15C135.4,15.1,135.4,15.1,135.4,15l-0.9,0.4v-0.1
		C134.5,15.1,135,15.2,135.4,15z M134.4,14.5c-0.1,0-0.3,0-0.4-0.1c0.1-0.2,0.3-0.3,0.5-0.2l0.1,0.1L134.4,14.5z M134.1,14.7
		c0,0.2-0.4,0.4-0.7,0.3C133.6,14.8,133.8,14.6,134.1,14.7z M133.6,15.2c0.1,0.1,0.3,0.1,0.4,0.2c-0.1,0.1-0.1,0.2-0.3,0.1
		c-0.2-0.1-0.3,0-0.5-0.1C133.3,15.3,133.4,15.2,133.6,15.2z M133.5,16.5c-0.2,0.1-0.5,0.1-0.7,0.1c-0.1,0-0.3,0.1-0.4,0.1h-0.1
		v-0.1l0.1-0.1c0.1-0.2,0.3-0.2,0.4-0.2l0.3-0.1h0.1c0.1,0,0.1,0.1,0.2,0.1s0.2,0,0.3,0C133.6,16.5,133.6,16.5,133.5,16.5z
		 M133.6,16.6c-0.2,0.4-0.2,0.4-0.7,0.2L133.6,16.6z M133.5,17.5c0.1,0.1,0.2,0.2,0.2,0.4c-0.1,0-0.1,0.1-0.1,0.1L133.5,17.5
		L133.5,17.5z M133.3,19.5c0.1-0.4,0.1-0.9,0.2-1.4C133.7,18.6,133.6,19.1,133.3,19.5z M133.7,19.2c0-0.1,0-0.1,0-0.2l0.1-0.6v-0.1
		l0.5-0.4l0.1,0.1c0,0.3-0.1,0.6-0.3,0.9c-0.1,0.3-0.2,0.6-0.3,0.9h-0.4C133.5,19.6,133.6,19.4,133.7,19.2z M134.1,19.9
		c0-0.6,0.3-1.2,0.6-1.7c0.2-0.3,0.5-0.5,0.9-0.6h0.1h0.1c-0.1,0.2-0.2,0.4-0.3,0.6c0.1,0.2,0.3,0.3,0.4,0.2l0.1,0.1l0.1-0.5h0.1
		l-0.1-0.1l0.2-0.4c0,0,0,0.1,0.1,0.1c0,0,0.1,0.1,0.2,0.1c0.1,0,0.2,0.1,0.3,0.2c0.1,0.1,0,0,0,0.1c0.1,0.1-0.1,0.3-0.1,0.5
		c-0.1-0.2-0.2-0.3-0.2-0.5s-0.2-0.2-0.4,0c-0.1,0.2-0.2,0.5-0.2,0.7c0,0,0,0,0,0c0,0.1,0,0.1-0.1,0.2c0,0.2-0.1,0.4-0.1,0.6
		c-0.1,0.5-0.3,1-0.4,1.2c0.1-0.6,0.3-1.2,0.5-1.8c0-0.1,0-0.1,0-0.2c-0.1,0-0.2,0-0.2,0.1c-0.2,0.5-0.3,1-0.5,1.5l-0.1,0.3h-0.1
		l0.1-0.2c0.1-0.5,0.3-1,0.5-1.5c0.1-0.1,0-0.2-0.1-0.2c-0.3,0.5-0.5,1-0.6,1.6c0,0.1,0,0.3-0.2,0.3c-0.2,0-0.3,0-0.3-0.2
		c0-0.3,0.1-0.5,0.1-0.8c0,0,0-0.1,0.1-0.1c0.2,0,0.2-0.2,0.3-0.3c0.1-0.1,0.2-0.3,0.3-0.5c0-0.1,0-0.2-0.1-0.3l-0.5,1
		c0.1-0.5,0.3-1.1,0.6-1.5c-0.4,0.2-0.7,0.6-0.8,1c-0.2,0.4-0.3,0.8-0.4,1.2C134.1,20,134.1,19.9,134.1,19.9z M136.8,17.4l0.3,0.2
		l-0.1,0.1C136.9,17.6,136.9,17.5,136.8,17.4z M137.3,21.3l-0.5,1.1C136.8,22,137,21.6,137.3,21.3z M136.5,18.2
		c0.1,0.2,0.2,0.4,0.2,0.6c-0.1,0.7-0.3,1.4-0.7,2.1C136.4,20.1,136.6,19.1,136.5,18.2z M135.7,20.9c0-0.2,0.1-0.3,0.1-0.5
		c0-0.2,0-0.3,0.1-0.5c0.1-0.2,0.1-0.2,0.1-0.3l0.3-1.2C136.3,19.3,136.1,20.1,135.7,20.9z M137.4,21c-0.2,0.1-0.3,0.2-0.4,0.3
		c0.1-0.2,0.2-0.3,0.4-0.4c0.2-0.1,0.4,0,0.5,0.1C137.7,21,137.5,20.9,137.4,21z M137.8,22.1c0-0.2,0.1-0.4,0.1-0.6
		C137.9,21.6,137.9,21.8,137.8,22.1C137.7,22.2,137.7,22.1,137.8,22.1z M138.1,21.6c0.1,0.7,0,1.4-0.3,2
		C137.9,22.9,138,22.2,138.1,21.6z M137.3,17.2l0.1-0.4l0.2,0.1L137.3,17.2z M139.3,21.1c0.3,0.6,0.5,1.3,0.6,2
		c-0.2-0.7-0.5-1.4-0.8-2H139.3z M142.4,23c0.1,0.1,0.2,0,0.2-0.1c0-0.1,0-0.1,0.1-0.1c0.1,0,0.2-0.3,0.2-0.5
		c0.1-0.1,0.1-0.2,0.2-0.3c0,0.5-0.3,1-0.6,1.3c-0.1-0.1-0.1-0.1-0.2-0.3H142.4z M143,19.8c-0.1-0.3-0.3-0.6-0.4-1
		c-0.3-0.1-0.3-0.4-0.2-0.8l0.1,0.1c0,0.1,0.1,0.1,0.1,0.2c0.3,0.6,0.5,1.3,0.6,2c0-0.1-0.1-0.2-0.1-0.2C143.1,20,143,19.9,143,19.8
		z M139.8,11.3L140,11C140.2,11.2,140.1,11.3,139.8,11.3z M140,10.3c0-0.1,0.1-0.3,0.1-0.4C140.3,10,140.3,10.2,140,10.3z
		 M138.9,10.3c0.3-0.3,0.5-0.6,0.8-0.9c0.1-0.1,0.2-0.2,0.4-0.2c0,0.1-0.1,0.2-0.1,0.2c-0.4,0.3-0.7,0.6-0.9,0.9
		C139.1,10.3,139,10.4,138.9,10.3L138.9,10.3z M138.9,10.7l0.6-0.4c0,0,0.1,0,0.1,0C139.5,10.6,139.2,10.7,138.9,10.7z M139.2,12.6
		l0.2,0.2c-0.1,0-0.1,0.1-0.2,0.1s-0.2,0-0.2-0.1S139.1,12.7,139.2,12.6z M139.3,13.2C139.3,13.3,139.2,13.3,139.3,13.2
		c-0.2,0-0.3,0-0.4-0.1L139,13C139.1,13,139.3,13.1,139.3,13.2z M138.9,11.7l-0.1,0.2c-0.1-0.1,0-0.2-0.1-0.3L138.9,11.7z
		 M138.8,12.6c-0.1-0.1-0.1-0.2-0.2-0.3C138.8,12.3,138.9,12.3,138.8,12.6z M138.3,11.6c0.2-0.1,0.3-0.1,0.2,0.3h-0.2V11.6z
		 M138.4,12.4c0.1,0.1,0.2,0.3,0.3,0.4c0.1,0.2,0.1,0.4,0,0.6c-0.2-0.4-0.4-0.7-0.6-1.1C138.2,12.2,138.3,12.2,138.4,12.4z
		 M138.1,11.6l0.1,0.2l-0.4,0.1c0-0.1,0-0.2-0.1-0.3H138.1z M137.9,12.3C137.9,12.3,137.9,12.3,137.9,12.3c0.2,0.5,0.4,0.9,0.5,1.4
		c0,0.1,0,0.3-0.1,0.4c-0.2,0.2-0.4,0.5-0.6,0.7c-0.1,0-0.2,0.1-0.2,0.1l-1-0.9l0.5-0.1c0-0.1,0-0.2-0.1-0.3
		c-0.1-0.2-0.2-0.4-0.3-0.6c-0.1-0.1,0-0.3,0.1-0.3c0-0.1,0-0.1,0.1-0.2l0.8-0.3C137.7,12.1,137.9,12.2,137.9,12.3z M137.6,11.8
		c0.1,0.1,0.1,0.1-0.2,0.2l-0.1-0.2H137.6z M137.1,11.9l0.1,0.2c-0.2,0.1-0.4,0-0.6,0.1L137.1,11.9z M136.2,12.3
		c0.1,0,0.3,0,0.4,0.1l-0.7,0.1C136,12.4,136.1,12.3,136.2,12.3z M136.2,12.6c-0.1,0.3-0.4,0.1-0.6,0.3
		C135.7,12.7,135.6,12.6,136.2,12.6z M136,13c0,0.1,0,0.1-0.3,0.3l-0.4,0.2C135.3,13.2,135.4,13.1,136,13z M135.2,11.7L135.2,11.7
		l-0.1,0.1c-0.1,0-0.3,0.1-0.5,0.1c-0.1,0-0.1-0.1-0.1-0.2C134.7,11.5,135,11.5,135.2,11.7z M135.2,12.7c-0.2,0.3-0.2,0.3-0.7,0.2
		C134.6,12.7,134.8,12.6,135.2,12.7z M134.8,13.3c0,0.1-0.1,0.2-0.2,0.2c-0.2,0-0.4,0-0.6,0C134.3,13.1,134.4,13,134.8,13.3z
		 M133.8,11.5c0.1-0.2,0.3-0.3,0.5-0.3c-0.1,0.3-0.1,0.6-0.2,0.9h-0.3l0.3-0.3v-0.1l-0.4,0.3C133.7,11.8,133.7,11.6,133.8,11.5z
		 M134.1,12.8c-0.1,0.2-0.3,0-0.4,0.1C133.7,12.7,133.7,12.7,134.1,12.8z M133.6,12.9L133,13C133.2,12.7,133.5,12.7,133.6,12.9z
		 M132.4,10.5c0.2-0.3,0.5-0.6,0.9-0.7c0.1,0.1,0,0.2-0.1,0.3c-0.2,0.1-0.4,0.3-0.6,0.5c-0.1,0.1-0.1,0.1-0.2,0.2
		C132.3,10.7,132.3,10.6,132.4,10.5z M132.8,11c-0.1,0-0.1,0.1-0.2,0.1L132.8,11c-0.3-0.1-0.2-0.2-0.1-0.3c0.2-0.2,0.4-0.4,0.7-0.5
		c0,0.2-0.1,0.3-0.2,0.4C133.1,10.7,132.9,10.9,132.8,11z M133.1,11.1L133.1,11.1c0-0.2,0.1-0.3,0.2-0.3c0,0.1-0.1,0.2-0.1,0.3
		H133.1z M133.2,11.8c0.1,0,0.1,0.1,0.2,0.1c-0.4,0.1-0.8,0.2-1.1,0.4l1-0.2v0.1c-0.1,0.1-0.2,0.1-0.3,0.1c-0.2,0.1-0.4,0.1-0.6,0.1
		s-0.3-0.1-0.3-0.2C132.5,12,132.9,11.9,133.2,11.8z M131.9,12.7L131.9,12.7l-1.1,0.4L131.9,12.7z M132,13.1
		C132,13.1,132,13.1,132,13.1c0.1,0,0.1-0.1,0.1,0C132.1,13.1,132,13.1,132,13.1c-0.4,0.1-0.8,0.4-1.2,0.6
		C131.2,13.3,131.5,13.2,132,13.1z M130.1,14.3c0.1-0.1,0.1-0.2,0.2-0.3l0.2-0.4c0.2,0.2,0.4,0.2,0.6,0c0.2-0.1,0.4-0.2,0.6-0.2
		c0,0.2-0.2,0.3-0.3,0.3l-0.5,0.2c-0.1,0.1-0.2,0.2-0.3,0.2l0.6-0.1l-1.5,0.7l0.3-0.2C130,14.4,130.1,14.4,130.1,14.3z M129,14.6
		l0.2-0.1c0.1,0.1,0.2,0.2,0.3,0.3c0,0,0,0.1-0.1,0.2L129,14.6z M129.4,15.2l-0.1,0.1c0,0.1-0.1,0.1-0.2,0l-0.4-0.4l0.2-0.1
		L129.4,15.2z M129.5,14.3h0.1c0.1,0.1,0.1,0.2,0,0.3C129.5,14.5,129.4,14.3,129.5,14.3z M129.7,15c0.3-0.1,0.5-0.2,0.8-0.3
		c0.3-0.1,0.3-0.1,0.5-0.1c0,0.1-0.1,0.2-0.1,0.2c-0.2,0.1-0.4,0.1-0.6,0.2l-0.8,0.3C129.6,15.2,129.6,15.1,129.7,15z M128.9,14.1
		c0.2-0.2,0.5-0.5,0.8-0.7c0-0.1,0.1-0.1,0.1,0l-1.2,1.1C128.7,14.4,128.8,14.2,128.9,14.1z M128.2,14.7L128.2,14.7l-0.3,0.4
		C128,15,128.1,14.8,128.2,14.7z M128,14.7c-0.2,0.3-0.4,0.6-0.7,0.9C127.3,15.3,127.7,14.7,128,14.7z M125.7,16.9
		c-0.1-0.3,0.1-0.2,0.3-0.3l0.2,0.5C126,17.1,125.8,17.2,125.7,16.9z M126.7,17.2c-0.1-0.1-0.3-0.3-0.4-0.4c-0.1-0.1-0.1-0.2,0-0.2
		h0.1l0.3,0.5C126.8,17,126.8,17.1,126.7,17.2L126.7,17.2z M129.1,17.1c0-0.1,0-0.2,0.1-0.3h0.2L129.1,17.1z M129.5,16.5
		c-0.1,0-0.2,0-0.3,0c-0.1,0-0.2,0-0.3,0c0,0,0,0,0,0c-0.1,0-0.2,0-0.4,0l0.1-0.1c0,0,0,0-0.1,0c-0.1,0-0.2,0-0.3,0
		c0.1,0.2,0.3,0.2,0.4,0.4h-0.1c-0.1,0-0.3-0.1-0.4-0.1c-0.1,0-0.2,0-0.2,0l0.5,0.4c-0.3,0-0.5-0.1-0.7-0.2
		c-0.1,0.3,0.1,0.3,0.3,0.4c-0.1,0.1-0.3,0.1-0.4-0.1c0,0,0-0.1-0.1-0.1c0-0.1-0.1-0.1-0.1-0.1c-0.2,0-0.5-0.1-0.6-0.4l-0.1-0.1
		l0.2-0.2c0.2,0.2,0.3,0.4,0.5,0.5l0.1-0.1l-0.3-0.1l-0.1-0.3l0.1-0.1c0.1,0.2,0.2,0.4,0.4,0.5l0.1-0.1c-0.2,0-0.3-0.1-0.3-0.2
		c0-0.1-0.1-0.3,0.1-0.3l0.4,0.4h0.1c-0.1-0.1-0.2-0.3-0.3-0.4c0-0.1,0-0.2,0.1-0.3l0.2,0.3c0.1,0.2,0.2,0.2,0.4,0.1l-0.4-0.4
		l0.1-0.1l0.1-0.1c0.2,0.3,0.3,0.4,0.4,0.3l-0.3-0.4l0.2-0.2l0.6,0.5l-0.5,0.6c0.1,0,0.2,0.1,0.3,0.1c0.3,0,0.6,0,0.9-0.2
		C129.8,16.4,129.7,16.5,129.5,16.5z M129.9,16.1c-0.3,0.1-0.7,0.1-1,0.1h-0.1c0.1-0.1,0.2-0.2,0.3-0.2c0.1,0,0.2-0.1,0.3,0
		c0,0.1,0.2,0,0.3,0c0.1-0.1,0.3-0.1,0.5-0.1C130.1,16,130,16.1,129.9,16.1z M130.3,15.6c-0.2,0-0.5,0.1-0.7,0.1l-0.1,0.1h-0.2
		c0-0.2,0.2-0.3,0.4-0.3c0.1,0,0.1-0.1,0.2-0.1c0.3-0.1,0.5-0.2,0.8-0.1C130.6,15.5,130.5,15.6,130.3,15.6z M131.8,15.1
		c-0.2,0-0.4,0.1-0.5,0.3h0.1l0.1,0.1l-0.1,0.1c0,0-0.1,0-0.2,0c0.1,0,0.1,0,0.1,0.1l-0.3,0.2c0,0,0-0.1-0.1-0.1c0,0,0,0,0,0
		c0,0-0.1,0-0.1-0.1v-0.1c0,0-0.1-0.1,0,0c0,0,0-0.1,0-0.1c0-0.1,0.1-0.1,0.1-0.2s0.2-0.1,0.2-0.2c0.1-0.2,0.2-0.4,0.4-0.5
		c0.1-0.1,0.1-0.2,0.1-0.2c0.1-0.1,0.1-0.1,0.2-0.2c0.1-0.1,0.2-0.1,0.1-0.2s0.1-0.1,0.1-0.2c0.1-0.1,0.2-0.2,0.4-0.1
		c0.1,0,0.3,0,0.4,0c0.2-0.1,0.4,0,0.7,0.1c-0.1,0-0.1,0.1-0.2,0.1c-0.2,0-0.5,0-0.7,0.1c-0.2,0.1-0.2,0.1-0.3,0.2v0.1h0.5v0.1
		c-0.1,0.1-0.2,0.1-0.3,0.1c-0.2,0-0.4,0-0.5,0.1c-0.1,0.1-0.1,0.1-0.2,0.2l0.4,0.1V15C132.1,15,132,15.1,131.8,15.1z M132.4,15.6
		c0-0.1,0.1-0.1,0.1-0.2c0.2-0.2,0-0.1,0.1-0.2c0,0,0,0,0-0.1l0,0l0.1-0.1c0,0,0,0,0,0c0.1-0.2,0.2-0.4,0.4-0.6
		c0-0.1,0.2-0.2,0.3-0.3v0.1l0.4-0.1l-0.4,0.4h-0.1l-0.2,0.1h0.1l-0.1,0.4c-0.1,0.1-0.2,0.1-0.4,0c0,0,0,0.1-0.1,0.1l0.2,0.1
		C132.7,15.4,132.5,15.5,132.4,15.6c-0.1,0.1-0.2,0.3-0.4,0.4l-0.1-0.3C132,15.7,132.2,15.6,132.4,15.6z M131.8,16.3
		c0-0.2,0.2-0.3,0.4-0.3c0.2,0.1,0.3,0,0.4-0.1c0.2-0.2,0.4-0.3,0.7-0.3c0.1,0,0.2,0.1,0.3,0.2v0.1h-0.1c-0.2-0.1-0.4,0-0.4,0.1
		c0,0-0.2,0-0.3,0l-0.3,0.1c-0.1,0-0.2,0.1-0.3,0c-0.1,0-0.1,0-0.2,0C132,16.2,132,16.3,131.8,16.3z M131.7,20.7
		c0-0.2,0-0.5,0.1-0.7c0.1-0.7,0.4-1.3,0.9-1.8c-0.3,0.1-0.5,0.3-0.6,0.6c-0.2,0.4-0.4,0.7-0.5,0.9v0.1c0.1,0.2-0.1,0.4-0.2,0.6
		c-0.1-0.1-0.1-0.1-0.2-0.2c0-0.1-0.1-0.2-0.1-0.3c-0.1-0.4,0.1-0.9,0.4-1.2l0.7-0.7l-0.1-0.2l-0.5,0.5l0.9-1l-0.1-0.1
		c-0.2,0.2-0.4,0.3-0.6,0.5c-0.2,0.1-0.3,0.3-0.5,0.5c0.2-0.2,0.3-0.4,0.5-0.6c0.2-0.2,0.4-0.3,0.6-0.5c0.3-0.2,0.7-0.2,1,0
		c0,0.1-0.1,0.1-0.1,0.2c-0.1,0.2,0,0.4,0.1,0.5c0.1,0.2,0.1,0.4,0,0.6c-0.1,0.4-0.1,0.7-0.2,1.1c0,0.2-0.2,0.3-0.3,0.3
		c0-0.2,0.1-0.3,0.1-0.4c-0.1-0.1,0-0.4,0.1-0.7c0-0.1,0.1-0.1,0.1-0.2c0-0.1,0-0.1,0-0.2c-0.1,0-0.1,0-0.2,0.1
		c-0.2,0.6-0.4,1.1-0.6,1.7c0,0.1-0.1,0.1-0.1,0.2c0-0.2,0.1-0.3,0.1-0.5s0.1-0.5,0.1-0.7c0.1-0.3,0.2-0.5,0.4-0.8
		c0-0.1,0.1-0.1,0.1-0.2l-0.5,0.7c-0.3,0.5-0.5,1.1-0.6,1.6c0,0.1,0,0.2,0,0.3H131.7L131.7,20.7z M131.9,22.8
		c-0.1-0.1-0.2-0.3-0.2-0.5c0-0.4,0.1-0.7,0.3-1.1c0.3-0.6,0.8-1,1.4-1.1c0.1,0,0.3-0.1,0.4-0.1c0.1,0,0.1,0,0.2,0.1
		c-0.4,0-0.7,0-1,0.2c-0.5,0.4-0.8,0.9-1,1.5C131.8,22.2,131.7,22.5,131.9,22.8z M132,22.2c0,0,0,0,0-0.1c0.1-0.2,0.1-0.3,0.2-0.4
		c0.1-0.5,0.4-0.8,0.8-1.1c-0.2,0.2-0.3,0.4-0.5,0.6l-0.3,0.5c0.2,0.1,0.3,0.3,0.2,0.5c0,0.1-0.1,0.2-0.2,0.2
		C132.1,22.4,132,22.3,132,22.2z M134.4,25c-0.2,0.3-0.5,0.6-0.9,0.6c-0.4,0.1-0.8-0.1-1-0.5c-0.3-0.5-0.4-1.2-0.3-1.8v0.1
		c0,0.2,0,0.4,0,0.6c0,0.4,0.2,0.8,0.4,1c0.1,0.2,0.4,0.4,0.6,0.4c0.3,0,0.6-0.2,0.8-0.5c0.3,0,0.4-0.2,0.6-0.4l-0.1,0.3L134.4,25z
		 M134.9,25.8c-0.3-0.1-0.4-0.4-0.3-0.6C134.7,25.3,134.8,25.5,134.9,25.8L134.9,25.8z M134.9,24.5V25
		C134.8,24.9,134.8,24.7,134.9,24.5z M135,23.4c0,0.4-0.1,0.4-0.1,0.6h-0.1c0-0.3,0.1-0.5,0.1-0.8c0-0.4,0-0.8,0-1.1
		c0-0.1-0.1-0.3-0.2-0.3c-0.1,0-0.2-0.2-0.1-0.3c0.3,0.2,0.5,0.5,0.5,0.9C135.1,22.7,135,23,135,23.4z M136,24.7
		c-0.1,0.2-0.2,0.3-0.2,0.4c0-0.6,0.1-1.2,0.1-1.8c-0.1,0.3-0.1,0.5-0.1,0.8h-0.2c0,0,0,0.1,0,0.1c0,0.1,0,0.3,0.1,0.4
		c0,0.1,0.1,0.3-0.1,0.3c-0.1,0-0.2,0-0.3,0c0,0,0,0.1,0,0.1v-0.1c0,0,0,0,0,0c0-0.4,0-0.7,0.1-1c0-0.2,0.1-0.3,0.1-0.5
		c0.1-0.4,0.2-0.8,0.3-1.2h0.1c-0.1,0.6-0.2,1.2-0.3,1.9h0c0.1-0.6,0.2-1,0.3-1.5c0,0,0.1-0.1,0.2-0.2c0-0.2,0.1-0.4,0.1-0.7h0.1
		c0,0,0,0.1,0,0.1c0,0.1,0,0.2,0,0.3c0,0.1,0,0.1,0,0.2c0,0.2-0.1,0.5-0.1,0.7s-0.1,0.5-0.1,0.8S136,24.4,136,24.7l0.2-1.1h0.1
		C136.3,24,136.2,24.4,136,24.7z M136.4,26.4c0.1,0.7-0.1,1.5-0.5,2.1c0.2-0.4,0.2-0.7,0.3-1.1C136.3,27,136.3,26.7,136.4,26.4z
		 M136.2,25.9h-0.1c0.2-0.1,0.1-0.4,0.3-0.4C136.4,25.6,136.3,25.8,136.2,25.9z M136.5,24.5l-0.2,0.7h-0.1
		C136.3,25,136.3,24.8,136.5,24.5L136.5,24.5c-0.1-0.1-0.1-0.2-0.1-0.4C136.5,24.3,136.6,24.4,136.5,24.5z M136.6,25.5l0.3-0.8
		l0.1,0.1L136.6,25.5z M137.1,25.4c-0.1-0.2,0-0.4,0.2-0.5h0.1c0,0,0.1-0.1,0.2-0.1C137.5,25,137.3,25.2,137.1,25.4z M137.8,26.2
		c-0.1,0.1-0.1,0.5-0.5,0.5l0.5-0.8h0.1C137.9,26,137.9,26.1,137.8,26.2z M138,26.3c0,0.1,0,0.1,0,0.2l-0.4,1
		c-0.1,0.1-0.1,0.3-0.1,0.4c0,0.1-0.1,0.1-0.1,0.2c0-0.1,0.1-0.2,0.1-0.3s0-0.2,0.1-0.3v-0.1C137.7,27,137.9,26.7,138,26.3z
		 M137.4,26.1h-0.1c0.1-0.2,0.3-0.4,0.5-0.7L137.4,26.1z M137.2,26c0-0.4,0.2-0.7,0.5-0.9L137.2,26z M137.2,29.1l-0.1,0.6
		c0,0.1-0.1,0.2-0.2,0.2c0,0,0,0-0.1,0c-0.2-0.1-0.3-0.2-0.3-0.4v-0.1c0.1-0.1,0.1-0.3,0.2-0.4c0-0.1,0.1-0.1,0.1-0.2h0.1
		c0,0.1,0,0.2-0.1,0.3c-0.1,0.2,0,0.3,0.1,0.4c0.1-0.3,0.1-0.6,0.3-0.8h0.1C137.3,28.8,137.2,29,137.2,29.1z M137.5,30L137.5,30
		c-0.1-0.4,0-0.9,0.1-1.3c0,0,0.1-0.1,0.2-0.1C137.8,29.1,137.7,29.5,137.5,30z M136.8,28.5c0.1-0.1,0.1-0.2,0.3-0.1
		c0.4,0.1,0.8,0,1-0.4C138.1,28.4,137.2,28.7,136.8,28.5z M139.7,31.4l-0.1,0.6h-0.1L139.7,31.4z M139.1,32c0-0.2,0.1-0.3,0.1-0.5
		c0,0,0.1,0,0.1-0.1c0-0.1,0.1,0.1,0,0.1c0,0.3,0,0.6-0.1,0.9c0,0.1-0.1,0.2-0.1,0.2H139C139,32.4,139,32.2,139.1,32z M139.1,30.9
		l-0.1,0.2c0-0.3-0.2-0.1-0.3-0.2C138.9,30.7,139,30.9,139.1,30.9z M138.2,30.7h0.1c0,0.1,0,0.1,0,0.2c0,0.1-0.1,0.2-0.1,0.3
		c-0.1,0.2,0,0.4,0.2,0.5c0.1-0.2,0.1-0.5,0.1-0.7h0.1c0,0.1,0,0.1,0,0.2c0,0.2-0.1,0.4-0.1,0.6c-0.1,0.1,0,0.3,0.1,0.3
		c0,0,0,0,0.1,0c0.1-0.3,0.2-0.6,0.3-0.8c0.1,0.4,0,0.9-0.2,1.3c0-0.1,0-0.2,0-0.3l-0.4,0.2c-0.4-0.3-0.6-0.8-0.3-1
		C138,31.2,138.2,31,138.2,30.7z M138,27.2c0,0.1-0.1,0.2-0.1,0.3l-0.2,0.1c0.1-0.4,0.3-0.7,0.4-1h0.1c0,0,0.1,0.1,0,0.1
		C138.1,26.7,138,27.1,138,27.2z M138.4,26.9L138.4,26.9c0,0.2-0.1,0.4-0.2,0.6L138.4,26.9z M138.4,27.6c0.1-0.1,0.1-0.3,0.2-0.4
		c0.1-0.1,0.2-0.1,0.2,0L138.4,27.6z M140.2,26.5c-0.2,0.4-0.6,0.6-1.1,0.5c-0.4,0-0.7-0.3-0.8-0.6c-0.1-0.1-0.2-0.2-0.1-0.4
		c-0.2-0.1-0.1-0.3-0.1-0.5l0,0.1c0-0.1,0-0.1,0-0.2l0.1,0.4c0.4-0.1,0.5-0.2,0.4-0.4c0-0.1-0.1-0.2-0.1-0.3c0.2,0.1,0,0.4,0.3,0.5
		l-0.2-0.9c0,0,0,0,0,0c-0.4,0-0.8,0-1.2-0.1c-0.2-0.1-0.4-0.2-0.6-0.3c-0.1,0-0.1-0.1,0-0.2c0.2,0.3,0.5,0.5,0.9,0.4
		c0.6,0,1.1-0.4,1.3-1c0.1-0.2,0.1-0.4,0.2-0.6c0-0.2,0-0.5,0-0.7c-0.1-0.2-0.1-0.5-0.2-0.7c0-0.1-0.1-0.1-0.1-0.2h0.2
		c0.1,0.2,0.1,0.4,0.2,0.6c0.1,0.2,0.1,0.3,0,0.5c0,0,0,0,0,0.1c0.1,0.2,0.1,0.5,0,0.8c-0.1,0.3-0.2,0.5-0.3,0.8
		c-0.1,0.1-0.1,0.2-0.2,0.3c0.1,0.4,0.3,0.7,0.3,1.1c0.1,0.3,0.1,0.7,0.1,1l-0.1,0.1l-0.1-0.1c0,0,0-0.3-0.1-0.4
		c-0.1,0.1-0.1,0.3-0.2,0.5c0-0.2-0.1-0.2-0.2-0.3c-0.2-0.1-0.3-0.2-0.3-0.4l0,0.1c0.1,0.3,0.3,0.5,0.5,0.7c0.1,0,0.1,0.1,0.2,0.1
		l0.2,0.2c0.1,0,0.3-0.1,0.4-0.1c0.1,0,0.3-0.2,0.4-0.3l0.2-0.1H140.2c0-0.1,0-0.2,0-0.3C140.3,26.3,140.3,26.4,140.2,26.5z
		 M138.2,24.8h0.1c-0.1,0.2-0.1,0.3-0.2,0.4C138,25.1,138.1,24.9,138.2,24.8z M140.4,26.1c-0.3-0.6-0.4-1.3-0.2-1.9
		c0,0.1,0,0.1,0,0.2c-0.1,0.5,0,1.1,0.3,1.5C140.5,26,140.5,26,140.4,26.1z M140.6,27c0,0.1,0.1,0.3,0.1,0.5
		C140.5,27.4,140.5,27.2,140.6,27z M140.6,26.1l0.3,0.3c-0.1,0-0.1,0-0.2,0C140.6,26.3,140.6,26.2,140.6,26.1z M140.8,29.9
		c0.1-0.3,0.1-0.5,0.2-0.7C141.1,29.4,141,29.7,140.8,29.9z M141.3,29.3c0,0.1,0,0.3-0.1,0.4C141.2,29.6,141.2,29.4,141.3,29.3
		C141.3,29.2,141.4,29.1,141.3,29.3C141.3,29.2,141.4,29.2,141.3,29.3z M142.5,27.1c0,0.1-0.1,0.3-0.1,0.4c0,0,0,0,0,0.1l0,0
		c-0.1,0.2-0.1,0.5-0.2,0.7c-0.1,0.2-0.2,0.3-0.3,0.4c0,0.1-0.1,0.1-0.1,0.2c-0.2,0.2-0.5,0.2-0.8,0.1c0.2,0,0.3,0,0.5,0
		s0.3-0.2,0.4-0.3c0.1-0.2,0.3-0.5,0.4-0.8l-0.5,0.7c-0.1-0.4-0.1-0.9-0.1-1.3c0.2,0.1,0,0.4,0.2,0.5c0.2-0.2,0.2-0.4,0.2-0.7h0.1
		c0,0.1,0,0.3,0,0.4l0.2,0.1c0,0,0,0,0-0.1c-0.1-0.4,0-0.7,0.1-0.9C142.5,26.8,142.5,26.9,142.5,27.1z M142.6,25.7
		c-0.1,0.1-0.1,0.2-0.1,0.3c0-0.2,0-0.4,0-0.6v-0.1l0.1,0.1C142.6,25.5,142.6,25.6,142.6,25.7z M142.7,25.1
		c-0.2-0.3-0.2-0.5-0.2-0.7c0-0.2-0.1-0.5-0.1-0.7v0.1l-0.4-0.6l0.1-0.1C142.6,23.3,142.8,24.6,142.7,25.1z M142.8,24.8l-0.2-1.2
		c0.1,0.3,0.2,0.6,0.3,0.9C142.9,24.6,142.8,24.7,142.8,24.8z M143.7,22.7c0.2,0.3,0.3,0.7,0.3,1.1v0.1c0.2,0.2,0.1,0.5-0.1,0.7
		c-0.2,0.1-0.3,0-0.3-0.1c-0.1-0.1-0.1-0.3-0.1-0.4c0-0.2-0.2-0.3-0.2-0.5h-0.1c0.2,0.4,0.2,0.8,0.2,1.3c0,0,0,0,0,0V25
		c0,0,0-0.1,0-0.1c0-0.2,0-0.3-0.1-0.5c-0.2-0.3-0.3-0.7-0.4-1c0-0.1,0.1-0.2,0.1-0.2s0.1,0,0.1-0.1c0-0.1,0-0.2,0.2-0.2
		c0-0.1,0.1-0.3,0.1-0.5h0.1C143.6,22.5,143.6,22.6,143.7,22.7z"/>
	<path class="st0" d="M143.5,23.5c0,0.1,0.1,0.2,0.1,0.3s0,0.3,0,0.4c0.2-0.2,0.2-0.6-0.1-0.9C143.5,23.4,143.5,23.5,143.5,23.5z"/>
	<path class="st0" d="M125.4,14.7l0.2-0.2c0.2-0.3,0.5-0.6,0.8-0.8c0.1,0,0.1,0,0.1-0.1l-0.1-0.1H126v-0.1l-0.2,0.3
		c0,0.1-0.1,0.2-0.2,0.3c-0.1,0.1-0.2,0.3-0.3,0.4c-0.1,0.1-0.1,0.2-0.1,0.3C125.2,14.8,125.3,14.8,125.4,14.7z"/>
	<path class="st0" d="M127,12.7c0.1,0,0.1-0.1,0.2-0.2l0.2-0.2h0c0.1-0.1,0.2-0.3,0.4-0.5c0.1-0.1,0.2-0.3,0.4-0.2
		c0.2-0.2,0.2-0.4,0-0.5L128,11l0.4-0.3c0,0,0,0,0,0c-0.1,0-0.1,0-0.2,0c-0.2,0-0.3,0.1-0.4,0.1c-0.1,0.1-0.1,0.2,0,0.2l0.1,0.1
		c-0.1,0.1-0.2,0.2-0.2,0.2c-0.5,0.1-1,0.4-1.5,0.7l-0.1,0.1c0.1,0,0.1,0.1,0.2,0.1l0.5,0.1c-0.2,0.2-0.4,0.4-0.5,0.5
		c-0.1,0.1-0.3,0.3-0.4,0.4c-0.1,0.1,0,0.2,0,0.2h0.1v0C126.3,13.1,126.6,12.9,127,12.7z M126.4,12.1c0.2-0.2,0.4-0.3,0.6-0.4
		c0.2-0.1,0.5-0.1,0.7-0.2v0.1l-0.7,0.7L126.4,12.1z"/>
	<path class="st0" d="M128.2,12.2L128.2,12.2l0.2-0.1C128.4,12.1,128.3,12.2,128.2,12.2z"/>
	<path class="st0" d="M128.8,11.8l0.2-0.2C128.9,11.7,128.8,11.7,128.8,11.8z"/>
	<path class="st0" d="M125.4,15.5c0.2-0.2,0.4-0.4,0.6-0.6c0.1-0.1,0.1-0.2,0-0.2s-0.2,0-0.3,0c0,0-0.1,0-0.1,0
		c-0.2,0.4-0.4,0.7-0.6,1v0.1c0.1,0,0.1,0.1,0.2,0.1C125.3,15.8,125.3,15.6,125.4,15.5z"/>
	<path class="st0" d="M127.8,12.1v0.1h0.1c0.1-0.1,0.1-0.1,0.2-0.2l0.4-0.4C128.3,11.8,128.1,12,127.8,12.1z"/>
	<path class="st0" d="M128.6,12.5l0.9-0.8C129.3,11.7,128.6,12.4,128.6,12.5z"/>
	<path class="st0" d="M137.6,31.9c0,0,0-0.1,0-0.1C137.6,31.8,137.6,31.8,137.6,31.9z"/>
	<path class="st0" d="M129.3,11.2c0.1,0,0.1,0,0.2,0L129.3,11.2C129.4,11.2,129.3,11.2,129.3,11.2z"/>
	<path class="st0" d="M139.1,25.9c-0.1-0.5-0.2-1-0.3-1.5c0,0-0.1,0.1-0.1,0.1c-0.2,0.1-0.1,0.1-0.1,0.2c0.1,0.2,0.1,0.4,0.2,0.5
		C138.9,25.4,138.8,25.7,139.1,25.9z"/>
	<path class="st0" d="M129.4,10.9c0,0-0.1,0.1-0.1,0.1C129.3,11,129.4,11,129.4,10.9L129.4,10.9z"/>
	<path class="st0" d="M129.4,11.1L129.4,11.1c-0.1-0.1-0.1-0.1-0.1-0.1c-0.2,0.1-0.3,0.2-0.4,0.4c0.1,0,0.2,0,0.3-0.1
		C129.2,11.3,129.3,11.2,129.4,11.1C129.3,11.2,129.3,11.2,129.4,11.1C129.3,11.2,129.4,11.2,129.4,11.1z"/>
	<path class="st0" d="M133.3,22.3c-0.3,0.5-0.4,1-0.4,1.6c0.2-0.4,0.4-0.9,0.6-1.4c0.1,0,0-0.1-0.1-0.2H133.3z"/>
	<path class="st0" d="M129.5,10.8l-0.2,0l0.1,0.1C129.4,10.9,129.4,10.9,129.5,10.8C129.4,10.9,129.4,10.9,129.5,10.8z"/>
	<path class="st0" d="M129.4,11.1c0,0,0.1-0.1,0.1-0.1C129.5,11.1,129.5,11.1,129.4,11.1z"/>
	<path class="st0" d="M129.9,11.3c0.2,0.1,0.3,0.1,0.3,0L129.9,11.3C129.9,11.3,129.9,11.3,129.9,11.3z"/>
	<path class="st0" d="M131.3,10.8l0.5-0.2c-0.1,0-0.3,0-0.5,0C131.3,10.7,131.3,10.7,131.3,10.8z"/>
	<path class="st0" d="M130.2,10.9c-0.1,0.1-0.3,0.1-0.4,0.2c-0.1,0.1-0.2,0.1-0.3,0.1l0,0l0.4,0.1c0.2-0.1,0.3-0.2,0.5-0.3
		C130.3,11,130.3,10.9,130.2,10.9z"/>
</g>
<path class="st0" d="M79.3,49v-4.3h0.5l1.8,2.7l1.8-2.7h0.5V49h-0.5v-3.4l-1.7,2.6L80,45.6V49H79.3z"/>
<path class="st0" d="M85.6,49l2.1-4.3h0.4l2.2,4.3h-0.6l-0.6-1.2h-2.4L86.2,49H85.6z M87,47.3h1.9l-1-1.9L87,47.3z"/>
<path class="st0" d="M92.2,49v-4.3h0.5V49H92.2z"/>
<path class="st0" d="M94.8,48.4l0.3-0.5c0.3,0.2,0.6,0.4,1,0.5c0.3,0.1,0.7,0.2,1,0.2c0.4,0,0.7-0.1,1-0.3c0.2-0.1,0.4-0.4,0.4-0.7
	c0-0.2-0.1-0.4-0.3-0.5C98,47,97.8,47,97.5,46.9h-0.3c-0.5,0-1-0.1-1.5-0.3c-0.2-0.1-0.3-0.2-0.4-0.4s-0.2-0.3-0.2-0.5
	c0-0.3,0.2-0.7,0.5-0.8c0.4-0.2,0.8-0.4,1.2-0.3c0.4,0,0.7,0.1,1.1,0.2c0.4,0.1,0.7,0.3,1,0.5l-0.3,0.5c-0.3-0.2-0.5-0.4-0.8-0.5
	s-0.6-0.2-0.9-0.2s-0.6,0.1-0.8,0.2c-0.2,0.1-0.3,0.3-0.3,0.5c0,0.1,0,0.1,0,0.2c0,0.1,0.1,0.1,0.2,0.2c0.4,0.2,0.8,0.3,1.2,0.2h0.6
	c0.4,0,0.7,0.2,1,0.4s0.4,0.5,0.4,0.9s-0.2,0.8-0.5,1c-0.4,0.3-0.9,0.4-1.4,0.4c-0.4,0-0.8-0.1-1.2-0.2
	C95.5,48.8,95.2,48.6,94.8,48.4z"/>
<path class="st0" d="M103.2,49.1c-0.6,0-1.2-0.2-1.6-0.7c-0.4-0.4-0.7-1-0.6-1.6c0-0.6,0.2-1.2,0.6-1.6c0.9-0.9,2.3-0.9,3.2,0
	c0.4,0.4,0.7,1,0.6,1.6c0,0.6-0.2,1.2-0.6,1.6C104.3,48.9,103.8,49.1,103.2,49.1z M103.2,48.6c0.5,0,0.9-0.2,1.2-0.5
	c0.3-0.3,0.5-0.8,0.5-1.3s-0.2-0.9-0.5-1.3c-0.7-0.7-1.8-0.7-2.4,0l0,0c-0.3,0.3-0.5,0.8-0.5,1.3s0.2,0.9,0.5,1.3
	C102.3,48.5,102.7,48.6,103.2,48.6z"/>
<path class="st0" d="M107.6,49v-4.3h0.3l2.8,3.2v-3.2h0.5V49h-0.3l-2.8-3.2V49H107.6z"/>
<path class="st0" d="M117.6,49v-4.3h3.4v0.5h-2.9v1.3h1.7V47h-1.7v2H117.6z"/>
<path class="st0" d="M124.6,49.1c-0.6,0-1.2-0.2-1.6-0.7c-0.4-0.4-0.7-1-0.6-1.6c0-0.6,0.2-1.2,0.6-1.6c0.9-0.9,2.3-0.9,3.2,0
	c0.4,0.4,0.7,1,0.6,1.6C126.8,48,125.9,49,124.6,49.1C124.7,49.1,124.7,49.1,124.6,49.1z M124.6,48.6c0.5,0,0.9-0.2,1.2-0.5
	c0.3-0.3,0.5-0.8,0.5-1.3s-0.1-0.9-0.5-1.3c-0.7-0.7-1.8-0.7-2.4,0l0,0c-0.3,0.3-0.5,0.8-0.5,1.3s0.2,0.9,0.5,1.3
	C123.7,48.5,124.2,48.6,124.6,48.6z"/>
<path class="st0" d="M129,49v-4.3h0.3l2.8,3.2v-3.2h0.5V49h-0.3l-2.8-3.2V49H129z"/>
<path class="st0" d="M137,44.7c0.6,0,1.2,0.2,1.6,0.6c0.8,0.9,0.8,2.2,0,3.1c-0.4,0.4-1,0.6-1.6,0.6h-1.9v-4.3
	C135.1,44.7,137,44.7,137,44.7z M137,45.2h-1.3v3.3h1.3c0.5,0,0.9-0.1,1.3-0.4c0.3-0.3,0.5-0.8,0.5-1.2c0-0.5-0.2-0.9-0.5-1.2
	C137.9,45.3,137.5,45.2,137,45.2z"/>
<path class="st0" d="M141.4,49v-4.3h3.4v0.5H142v1.3h1.7V47H142v1.6h3V49H141.4z M143.1,44.1h-0.4l0.8-1.4h0.6L143.1,44.1z"/>
<path class="st0" d="M147,49v-4.3h3.4v0.5h-2.9v1.3h1.7V47h-1.7v1.6h3V49H147z"/>
<path class="st0" d="M156.5,49v-4.3h3.4v0.5H157v1.3h1.7V47H157v1.6h3V49H156.5z"/>
<path class="st0" d="M162.1,49v-4.3h0.3l2.8,3.2v-3.2h0.5V49h-0.3l-2.8-3.2V49H162.1z"/>
<path class="st0" d="M172.6,49v-4.1h0.6V49H172.6z"/>
<path class="st0" d="M179.6,46.7c0.2,0.1,0.4,0.2,0.6,0.4c0.1,0.2,0.2,0.4,0.2,0.6c0,0.4-0.2,0.8-0.6,1c-0.5,0.3-1,0.4-1.5,0.4
	s-1.1-0.1-1.5-0.4c-0.3-0.2-0.6-0.6-0.6-1c0-0.2,0.1-0.4,0.2-0.6c0.1-0.2,0.3-0.3,0.6-0.4c-0.1-0.1-0.3-0.2-0.3-0.3
	c-0.1-0.1-0.1-0.3-0.1-0.4c0-0.3,0.2-0.6,0.5-0.8c0.8-0.4,1.8-0.4,2.6,0c0.3,0.2,0.5,0.5,0.5,0.8c0,0.1,0,0.3-0.1,0.4
	C179.8,46.5,179.7,46.6,179.6,46.7z M176.8,47.7c0,0.3,0.2,0.5,0.4,0.7c0.7,0.3,1.5,0.3,2.2,0c0.2-0.1,0.4-0.4,0.4-0.7
	c0-0.2-0.1-0.5-0.4-0.6c-0.4-0.1-0.8-0.2-1.1-0.2c-0.4,0-0.8,0-1.1,0.2C176.9,47.2,176.7,47.5,176.8,47.7z M179.5,45.9
	c0-0.2-0.1-0.4-0.3-0.4c-0.6-0.2-1.2-0.2-1.8,0c-0.2,0.1-0.3,0.2-0.3,0.4s0.1,0.4,0.3,0.4c0.3,0.1,0.6,0.2,0.9,0.1
	c0.3,0,0.6,0,0.9-0.2C179.3,46.2,179.5,46.1,179.5,45.9z"/>
<path class="st0" d="M181.6,48.4l0.3-0.5c0.3,0.2,0.6,0.4,1,0.5c0.3,0.1,0.6,0.2,0.9,0.2c0.4,0,0.7-0.1,1-0.3
	c0.2-0.2,0.4-0.5,0.4-0.8s-0.2-0.5-0.4-0.7c-0.3-0.2-0.6-0.3-1-0.3c-0.2,0-0.5,0-0.7,0.1s-0.5,0.2-0.7,0.3H182v-2.1h3.3v0.5h-2.8
	v0.9c0.2-0.1,0.4-0.1,0.6-0.2c0.2,0,0.4,0,0.6,0c0.5,0,1,0.1,1.4,0.4c0.6,0.4,0.7,1.3,0.3,1.9c-0.1,0.1-0.2,0.2-0.3,0.3
	c-0.4,0.3-0.9,0.5-1.4,0.5c-0.4,0-0.7-0.1-1.1-0.2C182.3,48.8,181.9,48.6,181.6,48.4z"/>
<path class="st0" d="M190,49v-1h-3.3v-0.5l3.3-2.6h0.5v2.6h0.7V48h-0.7v1H190z M187.5,47.5h2.5v-2L187.5,47.5z"/>
<path class="st0" d="M57.5,109h-0.4c-0.6-1.7-1.3-3.5-2.1-5.6c-0.7-1.7-1.1-2.7-1.2-2.8c-0.1-0.1-0.1-0.2-0.2-0.3
	c-0.3-0.1-0.7-0.2-1-0.3v-0.4c0.9,0,1.5,0.1,1.8,0.1s1,0,1.8-0.1v0.4H56c-0.3,0-0.5,0.1-0.8,0.3c-0.1,0.1-0.1,0.1-0.1,0.2
	c0,0,0,0.1,0,0.2c0.1,0.3,0.4,1.3,1,2.8l1.2,3.4c0.5-1.4,1-2.7,1.4-3.8c0.5-1.5,0.8-2.3,0.8-2.4v-0.1c0-0.1,0-0.2-0.1-0.2
	c-0.3-0.2-0.6-0.3-0.9-0.3v-0.4H59h1.3c0.4,0,0.8,0,1.3-0.1v0.5c-0.3,0.1-0.6,0.2-0.9,0.3c-0.2,0.2-0.3,0.4-0.4,0.6
	c-0.3,0.6-0.9,2.4-2,5.3L57.5,109z"/>
<path class="st0" d="M77.1,99.6v0.4l-0.3,0.1c-0.3,0-0.7,0.1-1,0.3c-0.1,0.2-0.2,0.4-0.1,0.6v0.2v2.6v3.8c0,0.3,0,0.5,0.1,0.6
	c0.3,0.1,0.6,0.2,0.9,0.2l0.4,0.1v0.4c-0.7,0-1.4-0.1-2-0.1s-1.4,0-2.2,0.1v-0.4l0.3-0.1c0.3,0,0.7-0.1,1-0.3
	c0.1-0.1,0.1-0.3,0.1-0.6v-0.3v-2.4c0-2.4,0-3.8,0-4.1c0-0.1,0-0.2-0.1-0.3c-0.3-0.2-0.7-0.3-1-0.3l-0.3-0.1v-0.4
	c0.9,0,1.7,0.1,2.2,0.1S76.3,99.6,77.1,99.6z"/>
<path class="st0" d="M98.8,104.1v0.3l-1,0.2c-0.1,0-0.2,0.1-0.2,0.1c-0.1,0.1-0.1,0.1-0.1,0.2c0,0.5,0,1,0,1.5s0,1.1,0,1.9
	c-0.2,0-0.6,0.1-1.2,0.3c-0.8,0.2-1.3,0.3-1.6,0.3c-0.4,0.1-0.9,0.1-1.3,0.1c-1.3,0.1-2.6-0.4-3.5-1.2c-0.8-0.9-1.3-2.1-1.2-3.3
	c-0.1-1.4,0.5-2.7,1.4-3.7c1-1,2.4-1.5,3.8-1.4c0.4,0,0.8,0,1.1,0.1l2.2,0.4c0,0.2,0,0.4,0,0.6c0,0.6,0,1.2,0.1,2h-0.5
	c-0.1-0.5-0.3-1-0.6-1.5c-0.2-0.3-0.5-0.5-0.8-0.6c-0.5-0.2-1.1-0.3-1.7-0.3c-1.2-0.1-2.3,0.5-3,1.5c-0.5,0.8-0.7,1.7-0.7,2.6
	c-0.1,1.1,0.3,2.2,1.1,3c0.8,0.7,1.8,1,2.8,1c0.8,0,1.5-0.2,2.3-0.4c0-0.5,0-1.2,0-2.1c0-0.3,0-0.6,0-0.9c0-0.1-0.1-0.2-0.2-0.2
	c-0.3-0.1-0.6-0.2-0.9-0.2l-0.3-0.1V104H97C97.6,104.1,98.2,104.1,98.8,104.1z"/>
<path class="st0" d="M109.6,100v-0.4c0.6,0,1,0.1,1.3,0.1s0.7,0,1.4-0.1l1.8,2.3l3.9,4.7v-1.3c0-0.6,0-1.8,0-3.5
	c0-0.4,0-0.9-0.1-1.3c0-0.1-0.1-0.1-0.2-0.2c-0.3-0.1-0.6-0.2-0.9-0.2l-0.3-0.1v-0.4c0.8,0,1.4,0.1,1.8,0.1s1,0,1.8-0.1v0.4H120
	c-0.3,0-0.7,0.1-1,0.2l-0.1,0.1c-0.1,0.1-0.1,0.3-0.1,0.4s0,0.7,0,1.8c0,1.1,0,2.2,0,3.2c0,1.2,0,2.2,0.1,3.1l-0.4,0.2l-2.7-3.4
	l-3.6-4.3v3.8c0,1.7,0,2.6,0.1,2.7c0,0.1,0.1,0.1,0.1,0.2c0.3,0.2,0.7,0.3,1,0.3l0.3,0.1v0.4c-0.7,0-1.2-0.1-1.7-0.1s-1,0-2,0.1
	v-0.4l0.3-0.1c0.3,0,0.6-0.1,0.9-0.3c0.1-0.1,0.1-0.1,0.1-0.2c0-0.2,0.1-1,0.1-2.3c0-1.8,0-2.9,0-3.3c0-0.6,0-1.2,0-1.8
	c0-0.1-0.1-0.2-0.2-0.2c-0.4-0.1-0.8-0.2-1.2-0.3h-0.4V100z"/>
<path class="st0" d="M131.7,104.3c0-1.3,0.5-2.6,1.4-3.5s2.2-1.4,3.5-1.4c1.2-0.1,2.3,0.4,3.2,1.2c0.8,0.9,1.3,2.1,1.2,3.3
	c0.1,1.4-0.4,2.7-1.3,3.7c-0.9,0.9-2.2,1.4-3.5,1.4c-1.2,0.1-2.4-0.4-3.2-1.2C132.1,106.8,131.6,105.5,131.7,104.3z M133.1,104.1
	c-0.1,1.2,0.3,2.3,0.9,3.2c0.6,0.7,1.5,1.1,2.4,1.1c0.6,0,1.2-0.2,1.7-0.5c0.5-0.4,0.9-0.9,1.1-1.5c0.3-0.7,0.4-1.4,0.4-2.1
	c0-0.8-0.1-1.7-0.5-2.4c-0.3-0.6-0.7-1-1.2-1.4c-0.5-0.3-1-0.4-1.6-0.4s-1.2,0.2-1.7,0.5c-0.5,0.4-0.9,0.9-1.1,1.5
	C133.2,102.7,133.1,103.4,133.1,104.1z"/>
<path class="st0" d="M152.6,100v-0.4c0.8,0,1.5,0.1,2.2,0.1h1.4h1.1c0.7-0.1,1.4,0.1,2,0.6c0.4,0.4,0.7,0.9,0.6,1.4
	c0,0.3-0.1,0.7-0.2,1c-0.2,0.3-0.4,0.6-0.7,0.8c-0.3,0.2-0.6,0.4-1,0.4c0.4,0,0.7,0.1,1.1,0.2c0.4,0.1,0.7,0.4,0.9,0.7
	c0.2,0.3,0.4,0.8,0.3,1.2c0,1-0.5,1.8-1.4,2.3c-0.8,0.4-1.8,0.6-2.7,0.6c-0.3,0-0.7,0-1.3,0h-0.7l-1.7,0.1v-0.4l0.3-0.1
	c0.3,0,0.7-0.1,1-0.3c0.1-0.1,0.1-0.2,0.1-0.3c0-0.4,0.1-1.5,0.1-3.4v-2.9c0-0.3,0-0.7-0.1-1c0-0.1-0.1-0.1-0.1-0.1
	c-0.1,0-0.4-0.1-1-0.2L152.6,100z M155.3,103.7h0.7c0.5,0,1.1,0,1.6-0.2c0.3-0.1,0.6-0.3,0.8-0.6c0.2-0.3,0.3-0.7,0.3-1.1
	c0-0.5-0.2-1-0.6-1.3c-0.4-0.2-0.9-0.3-1.4-0.3c-0.4,0-0.8,0-1.3,0.1c0,0.7-0.1,1.6-0.1,2.7V103.7z M155.3,108.1
	c0.4,0.1,0.8,0.1,1.3,0.1c0.7,0.1,1.3-0.2,1.8-0.6c0.4-0.4,0.6-1,0.6-1.6c0-0.4-0.1-0.8-0.3-1.1c-0.2-0.3-0.5-0.5-0.8-0.6
	c-0.5-0.1-1-0.2-1.5-0.2h-1L155.3,108.1z"/>
<path class="st0" d="M171.8,100v-0.4c1.1,0,1.8,0.1,2.2,0.1c0.2,0,1,0,2.2-0.1v0.4c-0.8,0.1-1.2,0.2-1.4,0.3c-0.1,0-0.2,0.1-0.2,0.1
	c-0.1,0.2-0.1,0.4-0.1,0.6c0,0.3,0,1.9,0,4.8c0,0.6,0,1.3,0,2.3h2.9c0.3,0,0.6,0,0.8-0.1s0.3-0.2,0.4-0.3c0.3-0.4,0.5-0.9,0.8-1.3
	h0.6l-0.5,1.4c-0.1,0.3-0.2,0.6-0.3,1.1c-1.8,0-3.4-0.1-4.7-0.1c-0.9,0-1.8,0-2.6,0.1v-0.4c0.4-0.1,0.8-0.1,1.2-0.3
	c0.1,0,0.2-0.1,0.2-0.2c0.1-0.2,0.1-0.5,0.1-0.7v-4v-2.6c0-0.1,0-0.3-0.1-0.4c-0.3-0.2-0.7-0.2-1-0.3H171.8z"/>
<path class="st0" d="M193.8,103.6h1.6c0.4,0,0.7,0,1.1,0c0.1,0,0.2-0.1,0.3-0.2c0.1-0.3,0.2-0.6,0.3-0.9c0,0,0-0.1,0.1-0.2h0.4
	c0,0.7-0.1,1.3-0.1,1.7s0,1,0.1,1.6h-0.4c-0.1-0.6-0.2-1-0.2-1c0-0.1-0.1-0.2-0.2-0.2c-0.3-0.1-0.7-0.1-1-0.1H194v3.8h3
	c0.2,0,0.5,0,0.7,0c0.2-0.1,0.3-0.1,0.4-0.3c0.3-0.3,0.5-0.7,0.7-1.1l0.2-0.3h0.4c-0.1,0.1-0.3,1-0.8,2.4c-1.6,0-3-0.1-4.3-0.1
	c-0.9,0-1.9,0-3,0.1v-0.4l1.1-0.2c0.1,0,0.2-0.1,0.3-0.2c0.1-0.2,0.1-0.3,0.1-0.5v-0.1V106c0-0.3,0-0.9,0-1.7c0-1.3,0-2.2,0-2.8
	c0-0.3,0-0.7-0.1-1c0-0.1-0.1-0.1-0.1-0.1c-0.2-0.1-0.4-0.1-0.6-0.2l-0.7-0.2v-0.4c0.8,0,1.8,0.1,2.9,0.1c0.6,0,2.1,0,4.4-0.1
	c0,0.7,0.1,1.5,0.2,2.2h-0.4c-0.1-0.4-0.3-0.8-0.4-1.2c-0.1-0.1-0.2-0.2-0.3-0.3c-0.3-0.1-0.6-0.1-0.9-0.1h-2.6l-0.1,2.1
	L193.8,103.6z"/>
<path class="st0" d="M216.6,102.1h-0.5c-0.1-0.4-0.2-0.8-0.4-1.2c-0.1-0.3-0.4-0.5-0.6-0.6c-0.3-0.2-0.7-0.2-1-0.2
	c-0.5,0-0.9,0.1-1.2,0.4s-0.4,0.6-0.5,1c0,0.4,0.1,0.7,0.4,0.9c0.5,0.4,1.2,0.8,1.8,1c0.8,0.3,1.4,0.7,2,1.3c0.3,0.4,0.5,1,0.5,1.5
	c0,1-0.6,2-1.6,2.4c-0.5,0.3-1.1,0.4-1.7,0.4c-0.4,0-0.8,0-1.2-0.1c-0.5-0.1-1-0.2-1.5-0.4c0.1-0.8,0.1-1.6,0.1-2.4h0.5
	c0.1,0.5,0.2,0.9,0.4,1.4c0.2,0.3,0.4,0.5,0.7,0.6c0.3,0.2,0.7,0.2,1,0.3c0.5,0,1-0.1,1.3-0.4c0.4-0.3,0.6-0.7,0.6-1.2
	c0-0.4-0.1-0.8-0.4-1.1c-0.5-0.5-1.2-0.9-1.8-1.1c-0.7-0.3-1.3-0.7-1.9-1.2c-0.3-0.4-0.5-0.8-0.5-1.3s0.1-0.9,0.4-1.3
	c0.3-0.4,0.7-0.8,1.1-1c0.5-0.2,1-0.4,1.5-0.4c0.8,0,1.6,0.2,2.3,0.5c0,0.6,0,1,0,1.2S216.6,101.6,216.6,102.1z"/>
<path class="st0" d="M16.3,63.5l-0.2,0.3c-0.9,1.6-1.7,3.2-2.4,4.9L13.5,69l-0.2-0.1c-0.2-1.4-0.7-2.7-1.7-3.8
	c-0.8-0.9-2-1.4-3.2-1.4c-1.3,0-2.6,0.6-3.3,1.7c-1.1,1.4-1.7,3.9-1.7,7.3c-0.1,2.4,0.4,4.9,1.5,7c0.8,1.6,2.5,2.5,4.3,2.5
	c1.3,0.1,2.6-0.5,3.5-1.5c1-1.2,1.5-2.7,1.6-4.2c0-0.4,0.2-0.7,0.5-0.7s0.6,0.3,0.6,1c0,1.1-0.2,2.2-0.7,3.1c-1,2.3-3,3.4-6,3.4
	c-2.5,0.1-4.9-0.9-6.4-2.8c-1.7-2.2-2.5-5-2.4-7.8c-0.1-2.7,0.8-5.4,2.5-7.5c1.5-1.9,3.8-3,6.2-3c1.4,0,2.7,0.3,4,0.9
	c0.6,0.3,1.3,0.4,1.9,0.5c0.5,0,1-0.2,1.5-0.5L16.3,63.5z M16.9,76.9c0,2.2-0.8,4.2-2.2,5.9c-1.4,1.4-3.4,2.1-5.4,2
	c-1.7,0-3.4-0.5-4.8-1.6v-0.1c1.4,0.9,3.1,1.4,4.8,1.3c1.9,0.1,3.7-0.7,5-2c0.6-0.6,1.1-1.4,1.4-2.2c0.4-1,0.6-2.1,0.6-3.2v-0.3
	L16.9,76.9z M11.8,66.2c-0.7-0.7-1.7-1.1-2.7-1.2C6.4,65,5,67.6,5,72.7c0,2,0.3,4,1,5.8c0.4,1.3,1.4,2.4,2.6,3v0.2
	c-1.4-0.4-2.5-1.5-2.9-2.8c-0.8-2-1.2-4.1-1.1-6.2c0-5.4,1.5-8.1,4.4-8.1c1.1,0.1,2.1,0.6,2.7,1.4v0.2H11.8z M17.4,64.2l-0.2,0.3
	c-1,1.7-1.9,3.5-2.7,5.3l-0.4-0.2l0.2-0.4c0.5-1.1,1-2,1.4-2.7l1.3-2.2l0.2-0.3L17.4,64.2z"/>
<path class="st0" d="M18.7,67.1h5.9l-1.7,1.7v5.4c0.2,0,0.5,0.1,0.7,0.1v-5.4l1.4-1.4l0.3,0.2L24,69v5.3h0.4
	c0.6,0.1,1.3,0.1,1.9,0.1c0.8,0,1.5,0,2.3-0.1v-5.8l-1.5-1.4h5.8L31,68.8v13.1l1.5,1.4h-5.8l1.7-1.5v-5.3c-0.7,0.2-1.4,0.3-2.2,0.3
	c-0.7,0-1.4,0-2.2-0.1h-0.2V82l2.1,2.4h-6.5L19.1,84h6.1l-1.7-1.9v-5.8h0.4c1.1,0.1,1.9,0.1,2.4,0.1c0.7,0,1.4-0.1,2.1-0.3v-0.4
	c-0.9,0.1-1.8,0.2-2.8,0.2c-0.6,0-1,0-1.2,0l-1.3-0.1h-0.3V82l1.6,1.4h-5.8l1.7-1.5v-5.5c-0.7,0-1.3,0.3-1.7,0.8L18.4,77
	c0.5-0.6,1.2-1,2-1v-0.5c-0.9,0-1.7,0.4-2.2,1.1L18,76.4c0.4-1.1,1.3-1.9,2.4-2.1v-5.7L18.7,67.1z M33.2,67.8L32,69.1v12.8l2,2.4
	h-6.5L27.2,84h6.1l-1.7-1.9V68.9l1.4-1.4L33.2,67.8z"/>
<path class="st0" d="M46.2,67.1l-1.3,1.5l2.1,5.5l0.5-0.3l-1.9-5l1.3-1.5l0.3,0.1L46,68.9l1.8,4.7l0.2-0.1l0.4-0.3
	c0.2-0.1,0.3-0.3,0.5-0.4c0.2,0.9,0.5,1.8,1,2.6h-0.5c-0.6,0-1.2,0.1-1.8,0.4l2.3,6.2l1.9,1.5h-6.4l1.7-1.5l-1.4-3.7
	c-0.8,0.8-1.5,1.7-2.1,2.7l-0.3-0.1c0.6-1,1.4-1.9,2.2-2.7l0.1-0.1l-0.2-0.6c-1,0.8-1.8,1.8-2.5,2.9L42.7,80c-0.4-0.7-1-1.5-1.7-2.4
	l-0.1-0.2c-0.6,1.1-0.9,2.3-1,3.5c0,0.5,0.1,0.9,0.3,1.3c0.4,0.6,0.8,1.3,1.3,1.8l0.3,0.3H35L34.7,84h6.4l-0.2-0.3
	c-0.4-0.5-0.8-1-1.1-1.6c-0.2-0.4-0.3-0.9-0.3-1.3c0.1-1.3,0.4-2.6,1-3.8L40,76.4c-0.1,0.3-0.3,0.7-0.4,1.2l-0.4,1.3
	c-0.2,0.5-0.3,1.1-0.3,1.7c0,0.4,0.1,0.8,0.2,1.2c0.3,0.5,0.6,0.9,1,1.3l0.2,0.2H34c1.2-0.6,2.1-1.4,2.8-2.5
	c0.9-1.5,1.7-3.1,2.2-4.8v-0.2c-0.6-0.4-1.2-0.7-2-0.7c0.4-0.7,0.8-1.4,1.1-2.2l0.2,0.2l0.6,0.5c0.2,0.2,0.4,0.4,0.7,0.6l0.2-0.6
	l-0.2-0.1c-0.4-0.4-0.8-0.7-1-0.9l-0.1-0.1l0.2-0.3c0.5,0.3,0.9,0.6,1.3,1l1.7-4.7l-1.3-1.4H46.2z M43.4,63.7l-1.5,1.8h-1.1
	l-0.2-0.3h1.2l1.5-1.7L43,63.1l-1.3,1.5h-1.3l2.1-2.5h1.6l2.2,2.5h-2L43.4,63.7z M42.5,69.7l-2,5.3c0.6,0.6,1.2,1.3,1.7,1.9l0.6,0.8
	l0.1,0.2l0.1-0.1l0.2-0.2l0.1-0.2c-0.6-0.9-1.2-1.7-2-2.5l1.6-4.3L42.5,69.7z M43.1,71.1l-1.4,3.7l0.1,0.2l0.5,0.6
	c0.4,0.4,0.7,0.9,1,1.4l0.1,0.2c0.4-0.5,0.8-0.9,1.3-1.3L43.1,71.1z M47.9,65.4H45l-0.2-0.3h2.5l-2.2-2.5l0.5,0.1L47.9,65.4z
	 M49.9,73.3c0.3,1.1,0.8,2.1,1.4,3.1H51l-1-0.1c-0.3,0-0.7-0.1-1-0.1h-0.3l2.1,5.6l2.8,2.5h-7.3L46.1,84h6.7l-2.3-2l-2.2-6
	c0.3-0.1,0.7-0.1,1-0.1c0.5,0,1,0,1.5,0.1l-0.2-0.3c-0.5-0.8-0.8-1.7-1.1-2.7L49.9,73.3z"/>
<path class="st0" d="M68.1,67.1l-0.2,0.3l-0.8,1.5c-0.3,0.6-0.6,1.3-0.8,2V71l-0.1-0.1v-0.2c-0.1-0.8-0.5-1.5-1-2
	c-0.6-0.4-1.4-0.6-2.1-0.5c-0.4,0-0.8,0-1.1,0h-0.2v13.7l1.5,1.4h-5.8l1.8-1.5V69.3h-0.9c-1.1-0.2-2.2,0.5-2.5,1.6
	c-0.1,0.2-0.1,0.5,0,0.7h-0.3c0-0.8,0.3-1.5,0.8-2.1c0.6-0.4,1.3-0.6,2.1-0.6h0.9v-0.6c-0.4,0-0.8-0.1-1.2-0.1
	c-0.8-0.1-1.7,0.2-2.3,0.7c-0.5,0.6-0.8,1.4-0.8,2.2h-0.2c-0.5-1.3-1-2.7-1.7-3.9l-0.1-0.1H68.1z M65.5,69.9
	c-0.7-0.4-1.5-0.6-2.3-0.6c-0.2,0-0.4,0-0.6,0v12.6l2,2.4h-6.4L58,84h6l-1.7-2V68.9H63c0.6,0,1.2,0,1.7,0.2
	C65.1,69.3,65.4,69.5,65.5,69.9z M68.9,67.9c-0.8,1.1-1.4,2.4-1.8,3.7v0.1l-0.3-0.2v-0.1c0.4-1.3,1-2.5,1.8-3.6l0.1-0.1L68.9,67.9z"
	/>
<path class="st0" d="M82.6,67.1l-0.2,0.2c-0.9,1.1-1.5,2.3-2,3.6l-0.2-0.4c-0.3-0.8-0.8-1.5-1.5-2c-0.9-0.4-1.9-0.5-2.8-0.4
	c-0.6,0-1.4,0-2.3,0.1V74h0.8v-5.1c0.6-0.1,1.2-0.1,1.8-0.1c0.8,0,1.6,0.1,2.4,0.3c0.6,0.3,1,0.8,1.3,1.3l-0.3-0.2
	c-0.4-0.4-0.9-0.7-1.5-1c-0.6-0.1-1.2-0.2-1.8-0.2L75,69.2h-0.3V74H77l1.6-2.2v5.4L77,75.1h-3.4v7.1h0.8v-6.5h2.7l0.3,0.3h-2.8v6.1
	c1.2,0.1,2.5-0.1,3.7-0.4c0.7-0.2,1.3-0.8,1.7-1.4l0.7-1.2c0-0.1,0.1-0.2,0.2-0.3c0.2,0.8,0.4,1.5,0.8,2.2s1,1.4,1.6,1.9H69.2
	l1.9-1.5V76c-0.7,0.1-1.3,0.3-1.9,0.7L69,76.4c0.6-0.4,1.3-0.7,2.1-0.7v-0.6c-0.1,0-0.2,0-0.3,0c-0.9,0-1.7,0.3-2.3,0.9
	c0.3-1.2,1.4-2.1,2.6-2v-5.4l-1.9-1.5C69.2,67.1,82.6,67.1,82.6,67.1z M84.7,83.1L84,84.2H70.3l-0.2-0.3h13.8l0.4-0.8
	c-1.1-1-2-2.2-2.6-3.6l0.4,0.2c0.5,1.3,1.3,2.4,2.3,3.3L84.7,83.1z M79.5,72.1v5.6l-0.3-0.2V72L79.5,72.1z M83.2,68L83.2,68
	c-0.9,1.2-1.6,2.3-2.2,3.6l-0.2-0.3c0.5-1.3,1.3-2.5,2.1-3.6L83.2,68z"/>
<path class="st0" d="M96.6,67.1l-1.3,1.5l2.1,5.5l0.5-0.3l-1.9-5l1.3-1.5l0.3,0.1l-1.3,1.5l1.8,4.7l0.2-0.1l0.4-0.3
	c0.2-0.1,0.3-0.3,0.5-0.4c0.2,0.9,0.5,1.8,1,2.6h-0.5c-0.6,0-1.2,0.1-1.8,0.4l2.3,6.2l1.9,1.5h-6.3l1.7-1.5l-1.4-3.7
	C95.3,79.1,94.6,80,94,81l-0.3-0.1c0.6-1,1.4-1.9,2.2-2.7l0.1-0.1l-0.2-0.6c-1,0.8-1.8,1.8-2.5,2.9L93.1,80c-0.4-0.7-1-1.5-1.7-2.4
	l-0.1-0.2c-0.6,1.1-0.9,2.3-1,3.5c0,0.5,0.1,0.9,0.3,1.3c0.4,0.6,0.8,1.3,1.3,1.8l0.3,0.3h-6.8L85.1,84h6.4l-0.2-0.3
	c-0.4-0.5-0.8-1-1.1-1.6C90,81.7,90,81.3,90,80.8c0.1-1.3,0.4-2.6,1-3.8l-0.6-0.6c-0.1,0.3-0.3,0.7-0.4,1.2l-0.4,1.3
	c-0.2,0.5-0.3,1.1-0.3,1.7c0,0.4,0.1,0.8,0.2,1.2c0.3,0.5,0.6,0.9,1,1.3l0.2,0.2h-6.3c1.2-0.6,2.1-1.4,2.8-2.5
	c0.9-1.5,1.6-3.2,2.1-4.9v-0.2c-0.5-0.4-1.2-0.7-1.9-0.7c0.4-0.7,0.8-1.4,1.1-2.2l0.2,0.2l0.6,0.5c0.2,0.2,0.5,0.4,0.7,0.6l0.2-0.6
	L90,73.4c-0.4-0.4-0.8-0.7-1.1-0.9H89l0.2-0.3c0.5,0.3,0.9,0.6,1.3,1l1.7-4.7l-1.3-1.4H96.6z M93,69.7L91,75
	c0.6,0.6,1.1,1.3,1.7,1.9l0.6,0.8c0,0,0,0.1,0.1,0.2l0.1-0.1l0.2-0.2l0.1-0.2c-0.6-0.9-1.2-1.7-2-2.5l1.6-4.3L93,69.7z M93.6,71.1
	l-1.4,3.7l0.1,0.2l0.5,0.6c0.4,0.4,0.7,0.9,1.1,1.4l0.1,0.2c0.4-0.5,0.8-0.9,1.3-1.3L93.6,71.1z M100.4,73.3
	c0.3,1.1,0.8,2.1,1.4,3.1h-0.3l-1-0.1c-0.3,0-0.7-0.1-1-0.1h-0.3l2.1,5.6l2.8,2.5h-7.4L96.5,84h6.7l-2.2-2l-2.3-6
	c0.3-0.1,0.7-0.1,1-0.1c0.5,0,1,0,1.5,0.1l-0.2-0.3c-0.5-0.8-0.8-1.7-1.1-2.7L100.4,73.3z"/>
<path class="st0" d="M118.9,67.1l-2.3,1.8V77c0,1.1,0,2.2-0.2,3.2c-0.1,0.6-0.3,1.1-0.6,1.6c-0.7,1.1-2.1,1.6-4.2,1.6
	s-3.8-0.4-4.6-1.6c-0.7-0.8-1-2.5-1-4.9v-8.3l-1.7-1.5h5.9l-1.7,1.7V77v1.9c-0.1,1,0.2,1.9,0.8,2.7c0.7,0.6,1.7,0.9,2.6,0.8
	c1.1,0.1,2.1-0.3,2.8-1.2c0.4-0.7,0.6-2,0.6-4.2v-8.1l-2-1.8L118.9,67.1z M119.4,68l-1.7,1.4v7.8c0,2.6-0.2,4.2-0.6,5
	c-0.8,1.6-2.4,2.4-4.8,2.4c-1.7,0.1-3.4-0.4-4.7-1.6h0.1l0.4,0.3c1.2,0.7,2.6,1,4,0.9c2.3,0,3.8-0.7,4.6-2.2
	c0.5-1.5,0.7-3.1,0.6-4.8v-8l1.9-1.5L119.4,68z M110.9,67.8l-1.2,1.2v10.3l0.4,1.6c0.3,0.4,0.7,0.8,1.1,1.2v0.1
	c-0.6-0.2-1.1-0.7-1.5-1.2c-0.3-0.8-0.5-1.7-0.4-2.5v-9.4l1.4-1.4L110.9,67.8z"/>
<path class="st0" d="M126.7,63h7.5l-2.2,2.1v16.7h0.1h0.6h0.1V65.3l1.7-1.7l0.2,0.3l-1.5,1.5v16.4c0.5,0,0.9,0.1,1.3,0.1
	c1.3,0.1,2.7-0.3,3.8-1.1c1-1,1.5-2.3,1.7-3.6c0.6,2.1,1.6,4.1,3,5.8h-16.3l2.2-1.8V65L126.7,63z M144.5,82.9l-0.7,1.4h-16.3
	l-0.4-0.4h16.5l0.5-1c-1.2-1.4-2.1-3-2.8-4.7l-0.1-0.2l0.5,0.2l0.1,0.3c0.7,1.5,1.5,2.9,2.5,4.3L144.5,82.9z"/>
<path class="st0" d="M155.7,67.1l-1.3,1.5l2.1,5.5l0.5-0.3l-1.9-5l1.3-1.5l0.3,0.1l-1.3,1.5l1.8,4.7l0.2-0.1l0.4-0.3
	c0.2-0.1,0.3-0.3,0.5-0.4c0.2,0.9,0.5,1.8,1,2.6h-0.5c-0.6,0-1.2,0.1-1.8,0.4l2.3,6.2l1.9,1.5h-6.4l1.7-1.5l-1.4-3.7
	c-0.8,0.8-1.5,1.7-2.1,2.7l-0.3-0.1c0.6-1,1.4-1.9,2.2-2.7l0.1-0.1l-0.2-0.6c-1,0.8-1.8,1.8-2.5,2.9l-0.2-0.4
	c-0.4-0.7-1-1.5-1.7-2.4l-0.1-0.2c-0.6,1.1-0.9,2.3-1,3.5c0,0.5,0.1,0.9,0.3,1.3c0.4,0.6,0.8,1.3,1.3,1.8c0.1,0.1,0.2,0.2,0.3,0.3
	h-6.8l-0.3-0.3h6.4l-0.2-0.3c-0.4-0.5-0.8-1-1.1-1.6c-0.2-0.4-0.3-0.9-0.3-1.3c0.1-1.3,0.4-2.6,1-3.8l-0.6-0.6
	c-0.1,0.3-0.3,0.7-0.4,1.2l-0.4,1.3c-0.2,0.5-0.3,1.1-0.3,1.7c0,0.4,0.1,0.8,0.2,1.2c0.3,0.5,0.6,0.9,1,1.3l0.2,0.2h-6.3
	c1.2-0.6,2.1-1.4,2.9-2.5c0.9-1.5,1.6-3.1,2.1-4.8v-0.2c-0.6-0.4-1.2-0.7-1.9-0.7c0.4-0.7,0.8-1.4,1.1-2.2c0.1,0.1,0.1,0.1,0.2,0.2
	l0.6,0.5c0.2,0.2,0.4,0.4,0.7,0.6l0.2-0.6l-0.1-0.1c-0.4-0.4-0.8-0.7-1.1-0.9l-0.1-0.1l0.2-0.3c0.5,0.3,0.9,0.6,1.3,1l1.7-4.7
	l-1.3-1.4L155.7,67.1z M152.1,69.7l-2,5.3c0.6,0.6,1.2,1.3,1.6,1.9l0.6,0.8l0.1,0.2l0.1-0.1l0.2-0.2c0-0.1,0.1-0.1,0.1-0.2
	c-0.6-0.9-1.2-1.7-2-2.5l1.6-4.3L152.1,69.7z M152.6,71.1l-1.4,3.7l0.1,0.2l0.5,0.6c0.4,0.4,0.7,0.9,1.1,1.4l0.1,0.2
	c0.4-0.5,0.8-0.9,1.3-1.3L152.6,71.1z M159.5,73.3c0.3,1.1,0.8,2.1,1.4,3.1h-0.3l-1-0.1c-0.3,0-0.7-0.1-1-0.1h-0.3l2.1,5.6l2.8,2.5
	h-7.3l-0.2-0.3h6.7l-2.3-2l-2.2-6c0.3-0.1,0.7-0.1,1-0.1c0.5,0,1,0,1.5,0.1l-0.2-0.3c-0.5-0.8-0.8-1.7-1.1-2.7L159.5,73.3z"/>
<path class="st0" d="M177.9,67.1c-0.7,0.3-1.3,0.8-1.9,1.4c-0.5,0.9-0.7,1.9-0.6,2.9v11.9h-2.1l-5.9-11.5v7.4l0.1,1.8
	c0.1,0.7,0.5,1.4,1.1,1.9l0.1,0.1c-1.2-0.4-1.7-1.6-1.7-3.7v-8.1l-0.7-1.3V77c-0.1,1.5,0.1,3,0.5,4.5c0.4,0.8,1.2,1.4,2.2,1.6
	l1.1,1.2h-6.8L163,84h6.3l-0.7-0.7h-5.9c0.8-0.2,1.5-0.8,2-1.5c0.4-1,0.6-2.1,0.5-3.2V68.5l-1.7-1.4h6.4l-1.8,1.2l6.1,11.9v-1.5
	L169,68.5l1.8-1.2l0.2,0.2l-1.6,1.1l4.9,9.4v-6.6c0.1-1-0.1-2-0.4-2.9c-0.4-0.6-1-1.1-1.8-1.4H177.9z M178.4,68l-0.2,0.4
	c-0.5,0.1-1,0.4-1.3,0.8c-0.3,0.7-0.4,1.4-0.3,2.1v13h-2.7l-0.2-0.3h2.5V71.4c-0.1-0.8,0.1-1.7,0.5-2.5
	C177,68.4,177.7,68.1,178.4,68z"/>
<path class="st0" d="M186.1,67c1.9-0.1,3.7,0.8,4.9,2.3c1.3,1.8,1.9,4,1.8,6.2c0.1,2.1-0.5,4.2-1.8,5.8c-1.2,1.4-3,2.2-4.9,2.2
	c-1.6,0-3.1-0.5-4.3-1.5c-1.8-1.5-2.8-3.7-2.8-6.7c-0.1-2.2,0.6-4.3,1.9-6C182.3,67.7,184.2,66.9,186.1,67z M186.1,68.1
	c-2.8,0-4.3,2.5-4.3,7.5c0,4.6,1.4,6.9,4.2,6.9c1.3,0,2.4-0.7,3-1.8c0.8-1.7,1.1-3.5,1-5.3c0-2.7-0.3-4.5-1-5.6
	C188.5,68.6,187.3,68,186.1,68.1L186.1,68.1z M190.1,67.6c1.3,0.6,2.3,1.7,2.8,3c0.7,1.5,1.1,3.2,1,4.9c0.1,2.3-0.6,4.6-1.9,6.5
	c-1.3,1.6-3.3,2.6-5.4,2.5c-1.5,0-2.9-0.5-4-1.4V83c1.1,0.8,2.5,1.2,3.9,1.2c2,0,3.9-0.8,5.2-2.4c1.4-1.7,2.1-3.9,2-6.1
	c0-1.7-0.3-3.3-0.9-4.8c-0.5-1.3-1.4-2.3-2.6-3.1L190.1,67.6z M188.8,70l-0.2-0.1c-0.7-0.4-1.4-0.6-2.2-0.7c-2.2,0-3.3,2.2-3.3,6.5
	c0,3.2,0.7,5.3,2.1,6.3l-0.1,0.1c-0.8-0.6-1.5-1.4-1.8-2.3c-0.4-1.3-0.6-2.6-0.5-3.9c0-4.7,1.2-7,3.7-7
	C187.3,68.7,188.2,69.1,188.8,70L188.8,70z"/>
<path class="st0" d="M211.9,63.1l0.1,0.1c-1.1,1-2,2.1-2.7,3.4c-1,1.8-1.8,3.7-2.5,5.7l-3.7,9.7l1.5,1.3h-5.8l1.7-1.4L196,68.8
	l-2-1.7h6.3l-1.8,1.8l4.1,11.8l0.5-1.2L199.4,69l1.3-1.3l0.2,0.2l-1.1,1.1l3.5,10l2.7-7c0.6-1.4,1-2.9,1.2-4.4
	c0-0.8-0.3-1.6-0.9-2.2h0.2C208.5,65,210.3,64.3,211.9,63.1z M212.6,63.9l0.1,0.3c-1.6,1.3-3.3,4.1-4.9,8.6l-3.5,9.3l2,2.3h-6.5
	l-0.3-0.3h6l-1.6-1.9l3.6-9.4l0.7-1.8c0.6-1.5,1.3-2.9,2.1-4.2C210.9,65.6,211.7,64.7,212.6,63.9L212.6,63.9z"/>
<path class="st0" d="M224.7,67.1l-0.2,0.2c-0.9,1.1-1.5,2.3-2,3.6c-0.1-0.2-0.1-0.3-0.2-0.4c-0.3-0.8-0.8-1.5-1.5-2
	c-0.9-0.4-1.9-0.5-2.9-0.4c-0.6,0-1.4,0-2.3,0.1V74h0.8v-5.1c0.7-0.1,1.3-0.1,1.8-0.1c0.8,0,1.6,0.1,2.4,0.3c0.6,0.3,1,0.8,1.4,1.3
	l-0.3-0.2c-0.4-0.4-0.9-0.7-1.5-1c-0.6-0.1-1.2-0.2-1.8-0.2H217h-0.3v5h2.3l1.6-2.2v5.4l-1.6-2.1h-3.4v7.1h0.8v-6.5h2.7l0.3,0.3
	h-2.7v6.1c1.2,0.1,2.5-0.1,3.6-0.4c0.7-0.2,1.3-0.8,1.7-1.4l0.7-1.2l0.1-0.3c0.2,0.8,0.4,1.5,0.8,2.2c0.5,0.7,1,1.4,1.6,1.9H211
	l1.9-1.5V76c-0.7,0.1-1.3,0.3-1.9,0.7l-0.2-0.3c0.6-0.4,1.3-0.7,2.1-0.7v-0.6c-0.1,0-0.2,0-0.3,0c-0.9,0-1.7,0.3-2.3,0.9
	c0.3-1.2,1.4-2.1,2.6-2v-5.4l-1.9-1.5H224.7z M226.9,83.1l-0.6,1.1h-13.7l-0.2-0.3H226l0.4-0.8c-1.1-1-2-2.2-2.6-3.6l0.4,0.2
	c0.6,1.3,1.4,2.4,2.4,3.3L226.9,83.1z M221.6,72.1v5.6l-0.3-0.2V72L221.6,72.1z M225.3,67.9l-0.1,0.1c-0.8,1.1-1.5,2.2-2.1,3.5
	l-0.2-0.2c0.6-1.3,1.3-2.5,2.2-3.6L225.3,67.9z"/>
<path class="st0" d="M227.1,67.1h6l-1.8,1.7v13.4h0.1h0.4h0.1V69l1.4-1.4l0.2,0.3l-1.2,1.2v13.2c0.4,0,0.7,0,1.1,0
	c1.1,0.1,2.1-0.2,3-0.9c0.8-0.8,1.3-1.8,1.4-2.9c0.5,1.7,1.3,3.3,2.4,4.7h-13.1l1.7-1.4V68.7L227.1,67.1z M241.5,83.1l-0.6,1.1
	h-13.1l-0.3-0.3h13.3l0.4-0.8c-0.9-1.1-1.7-2.4-2.2-3.8l-0.1-0.1l0.4,0.2l0.1,0.2c0.5,1.2,1.2,2.4,2,3.4L241.5,83.1z"/>
<path class="st0" d="M241.2,67.1h6l-1.8,1.7v13.4h0.1h0.4h0.1V69l1.4-1.4l0.2,0.3l-1.2,1.2v13.2c0.4,0,0.7,0,1.1,0
	c1.1,0.1,2.1-0.2,3-0.9c0.8-0.8,1.3-1.8,1.4-2.9c0.5,1.7,1.3,3.3,2.4,4.7h-13.1l1.8-1.4V68.7L241.2,67.1z M255.6,83.1l-0.6,1.2
	h-13.1l-0.3-0.3h13.3l0.4-0.8c-0.9-1.1-1.7-2.4-2.2-3.8l-0.1-0.1l0.4,0.2l0.1,0.2c0.5,1.2,1.2,2.4,2,3.4L255.6,83.1z"/>
<path class="st0" d="M269,67.1l-0.2,0.2c-0.9,1.1-1.5,2.3-2,3.6l-0.2-0.4c-0.3-0.8-0.8-1.5-1.5-2c-0.9-0.4-1.9-0.5-2.8-0.4
	c-0.6,0-1.4,0-2.3,0.1V74h0.8v-5.1c0.6-0.1,1.2-0.1,1.8-0.1c0.8,0,1.6,0.1,2.4,0.3c0.6,0.3,1.1,0.7,1.4,1.3l-0.3-0.2
	c-0.4-0.4-0.9-0.7-1.5-1c-0.6-0.1-1.2-0.2-1.8-0.2h-1.4h-0.3v5h2.3l1.5-2.2v5.4l-1.6-2.1h-3.4v7.1h0.8v-6.5h2.7l0.3,0.3h-2.8v6.1
	c1.2,0.1,2.5-0.1,3.6-0.4c0.7-0.2,1.3-0.8,1.7-1.4l0.7-1.2c0-0.1,0.1-0.2,0.1-0.3c0.2,0.8,0.4,1.5,0.8,2.2s1,1.4,1.6,1.9h-14.1
	l1.9-1.5V76c-0.7,0.1-1.3,0.3-1.9,0.7l-0.2-0.3c0.6-0.4,1.3-0.7,2.1-0.7v-0.6c-0.1,0-0.2,0-0.3,0c-0.9,0-1.7,0.3-2.3,0.9
	c0.3-1.2,1.4-2.1,2.6-2v-5.4l-1.9-1.5H269z M271.1,83.1l-0.7,1.1h-13.8l-0.2-0.3h13.8l0.4-0.8c-1.1-1-2-2.2-2.6-3.6l0.4,0.2
	c0.5,1.3,1.3,2.4,2.3,3.3L271.1,83.1z M265.9,72.1v5.6l-0.3-0.2V72L265.9,72.1z M269.6,67.9l-0.1,0.1c-0.8,1.1-1.5,2.2-2,3.5
	l-0.2-0.3c0.6-1.3,1.3-2.5,2.2-3.6L269.6,67.9z"/>
</svg>
