<?xml version="1.0" encoding="utf-8"?>
<!-- Generator: Adobe Illustrator 22.0.1, SVG Export Plug-In . SVG Version: 6.00 Build 0)  -->
<svg version="1.1" id="Layer_1" xmlns="http://www.w3.org/2000/svg" xmlns:xlink="http://www.w3.org/1999/xlink" x="0px" y="0px"
	 viewBox="0 0 512 318.2" style="enable-background:new 0 0 512 318.2;" xml:space="preserve">
<style type="text/css">
	.st0{fill:#FFFFFF;}
	.st1{fill:#E30613;}
	.st2{fill:#FAB31E;}
	.st3{fill:#E40520;}
	.st4{fill:#06326E;}
</style>
<g>
	<g>
		<g id="XMLID_1_">
			<g>
				<path class="st0" d="M507,30.1V288c0,13.9-11.3,25.1-25.1,25.1H30.1C16.3,313.2,5,301.9,5,288V30.1C5,16.3,16.3,5,30.1,5h451.8
					C495.7,5,507,16.3,507,30.1z"/>
				<path class="st1" d="M511.9,30.1V288c0,16.6-13.5,30.1-30.1,30.1H30.1C13.5,318.1,0,304.6,0,288V30.1C0,13.5,13.5,0,30.1,0
					h451.8C498.5,0,512,13.5,511.9,30.1z M507,288V30.1C507,16.3,495.7,5,481.9,5H30.1C16.3,5,5,16.3,5,30.1V288
					c0,13.9,11.3,25.2,25.1,25.1h451.8C495.7,313.1,507,301.9,507,288z"/>
			</g>
			<g>
			</g>
		</g>
	</g>
	<g>
		<path class="st2" d="M256.7,257c22.6,20.9,53.1,33.5,86.1,33.5c71,0,128.5-57.9,128.5-129.2c0-71.5-57.5-129.4-128.5-129.4
			c-33.1,0-63.5,12.7-86.1,33.5c-26,23.8-42.4,57.9-42.4,95.9C214.3,199.3,230.7,233.4,256.7,257L256.7,257z"/>
		<path class="st3" d="M298.2,147.5c-0.4-4.7-1.3-9.1-2.2-13.8h-78.6c0.9-4.7,2.2-9.1,3.5-13.5h71.3c-1.6-4.7-3.3-9.3-5.3-13.8
			h-60.4c2.2-4.7,4.7-9.3,7.3-13.8h45.5c-2.9-4.7-6.2-9.3-9.8-13.5h-26c4-4.9,8.4-9.5,13.1-13.8c-22.9-20.6-53.1-33.5-86.4-33.5
			c-70.8,0-128.5,57.9-128.5,129.4c0,71.3,57.7,129.2,128.5,129.2c33.3,0,63.5-12.7,86.4-33.5l0,0l0,0c4.7-4.2,8.9-8.7,12.9-13.5
			h-26c-3.6-4.4-6.7-8.9-9.8-13.8h45.5c2.9-4.4,5.3-8.9,7.5-13.8h-60.4c-2-4.4-4-8.9-5.6-13.5H292c1.6-4.4,2.7-9.1,3.8-13.8
			c0.9-4.4,1.8-9.1,2.2-13.8c0.4-4.4,0.7-8.9,0.7-13.5C298.9,156.6,298.7,152,298.2,147.5L298.2,147.5z"/>
		<path class="st0" d="M454.3,191.3c0-2.4,1.8-4.2,4-4.2c2.4,0,4.2,1.8,4.2,4.2c0,2.2-1.8,4.2-4.2,4.2
			C456.1,195.5,454.3,193.5,454.3,191.3L454.3,191.3z M458.3,194.4c1.8,0,3.3-1.3,3.3-3.1s-1.6-3.1-3.3-3.1c-1.6,0-3.1,1.3-3.1,3.1
			C455.2,193,456.7,194.4,458.3,194.4L458.3,194.4z M457.8,193h-0.9v-3.6h1.6c0.2,0,0.7,0,0.9,0c0.4,0.2,0.4,0.7,0.4,1.1
			c0,0.2-0.2,0.7-0.7,0.9l0.9,1.6h-1.1l-0.4-1.3h-0.7L457.8,193v-2h0.4c0.2,0,0.4,0,0.4-0.2c0.2,0,0.2-0.2,0.2-0.4
			c0,0,0-0.2-0.2-0.2c0-0.2-0.2,0-0.4,0h-0.4v0.9V193L457.8,193z"/>
		<path class="st4" d="M213,198.6c-4.2,1.1-7.3,1.8-10.4,1.8c-6.7,0-10.7-4.2-10.7-11.8c0-1.6,0.2-3.1,0.4-4.9l0.9-5.1l0.7-4.2
			l6-36.4h13.3l-1.6,8h8.4l-2,13.3h-8.4l-3.6,21.8c-0.2,1.1-0.2,1.8-0.2,2.2c0,2.9,1.3,4,4.7,4c1.6,0,2.9-0.2,4.2-0.4L213,198.6
			L213,198.6z"/>
		<path class="st4" d="M256,198.1c-4.9,1.3-9.3,2-14.2,2c-15.1,0-23.8-8-23.8-23.8c0-18.4,10.2-31.7,24.4-31.7
			c11.3,0,18.6,7.6,18.6,19.3c0,4-0.4,7.8-1.6,13.1h-27.8c-0.2,0.9-0.2,1.3-0.2,1.8c0,6.2,4.2,9.3,12.2,9.3c5.1,0,9.5-1.1,14.4-3.3
			L256,198.1L256,198.1z M247.8,166.4c0-1.1,0-2,0-2.7c0-4.4-2.4-6.9-6.7-6.9c-4.4,0-7.5,3.3-8.9,9.5L247.8,166.4L247.8,166.4z"/>
		<polygon class="st4" points="106.4,199.3 92.6,199.3 100.6,148.9 82.7,199.3 73.1,199.3 72,149.1 63.6,199.3 50,199.3 60.9,133.8 
			81.1,133.8 81.5,174.2 95.1,133.8 117.3,133.8 		"/>
		<path class="st4" d="M139.9,175.5c-1.3-0.2-1.8-0.2-2.7-0.2c-8,0-12,3.1-12,8c0,3.3,2,5.6,5.1,5.6
			C137,188.8,139.7,183.3,139.9,175.5L139.9,175.5z M151,199.3h-12l0.2-5.5c-3.1,4.2-7.3,6.4-14.7,6.4c-6.7,0-12.4-6-12.4-14.7
			c0-2.4,0.4-4.7,1.1-6.9c2.2-8.2,10.4-13.3,23.1-13.5c1.6,0,4,0,6.2,0.2c0.4-1.8,0.4-2.4,0.4-3.6c0-3.6-2.9-4.7-9.3-4.7
			c-4,0-8.4,0.7-11.5,1.8l-2,0.4l-0.9,0.2l2-12c6.4-2,11.1-2.9,16.2-2.9c12,0,18.4,5.6,18.4,15.8c0,2.7,0.2,4.7-0.7,10.4l-3.1,19.1
			l-0.4,3.3l-0.2,2.7l-0.2,1.8L151,199.3L151,199.3z"/>
		<path class="st4" d="M323.1,146.4c4,0,7.5,1.1,12.4,3.6l2.4-14.2c-1.3-0.7-1.8-0.7-3.6-1.3l-5.6-1.6c-1.8-0.4-4-0.7-6.4-0.7
			c-6.9,0-10.9,0.2-15.1,2.7c-2.2,1.6-5.1,3.6-8.2,7.1l-1.8-0.4l-14.2,10l0.7-5.5H269l-8.7,53.3h14l5.1-28.6c0,0,2-4,2.9-5.3
			c2.7-3.3,4.9-3.3,7.8-3.3c0.4,0,0.9,0,1.1,0c-0.4,3.1-0.7,6.4-0.7,10.2c0,17.3,9.8,28.2,24.9,28.2c3.8,0,7.1-0.4,12.2-1.8
			l2.4-15.1c-4.4,2.4-8.4,3.6-11.8,3.6c-8.2,0-13.1-6.2-13.1-16C305.3,156.6,312.7,146.4,323.1,146.4L323.1,146.4z"/>
		<path class="st4" d="M441,133.8l-3.1,18.6c-3.3-5.1-7.3-7.5-12.7-7.5c-7.3,0-14.2,4.2-18.4,12.2v-0.2l-8.9-5.3l0.9-5.5h-14.9
			l-8.4,53.3h13.8l4.7-28.6c0,0,3.6-4,4.4-5.3c2.2-2.7,4.4-3.1,6.2-3.3c-1.6,4.4-2.4,9.8-2.4,15.8c0,13.3,6.9,22.2,17.1,22.2
			c5.1,0,9.1-1.8,12.9-6l-0.7,5.3h13.1l10.7-65.5L441,133.8L441,133.8z M423.9,186.6c-4.7,0-7.1-3.6-7.1-10.4c0-10.4,4.4-18,10.9-18
			c4.9,0,7.3,3.8,7.3,10.4C435,179.3,430.5,186.6,423.9,186.6L423.9,186.6z"/>
		<path class="st4" d="M359.7,175.5c-1.3-0.2-1.8-0.2-2.7-0.2c-8,0-12,3.1-12,8c0,3.3,2,5.6,5.1,5.6
			C356.8,188.8,359.5,183.3,359.7,175.5L359.7,175.5z M370.8,199.3h-12.2l0.4-5.5c-3.1,4.2-7.3,6.4-14.7,6.4
			c-6.9,0-12.9-5.8-12.9-14.7c0-12.7,9.5-20.4,24.6-20.4c1.6,0,4,0,6,0.2c0.4-1.8,0.7-2.4,0.7-3.6c0-3.6-2.9-4.7-9.5-4.7
			c-3.8,0-8.4,0.7-11.5,1.8l-1.8,0.4l-0.9,0.2l2-12c6.4-2,11.1-2.9,16.2-2.9c12,0,18.2,5.6,18.2,15.8c0,2.7,0.4,4.7-0.7,10.4
			l-2.9,19.1l-0.4,3.3l-0.4,2.7l-0.2,1.8L370.8,199.3L370.8,199.3z"/>
		<path class="st4" d="M180.1,157.3c2.7,0,6.4,0.2,10.4,0.9l2-12.4c-4-0.4-9.3-1.1-12.4-1.1c-15.5,0-20.6,8.4-20.6,18.2
			c0,6.4,2.9,11.1,10.4,14.7c5.5,2.7,6.4,3.1,6.4,5.6c0,3.3-2.9,5.3-8.2,5.3c-4.2,0-8.2-0.7-12.7-2.2l-1.6,12.2l0.2,0.2l2.7,0.4
			c0.9,0.2,2,0.4,3.6,0.7c3.3,0.2,6.2,0.4,8,0.4c15.5,0,22-6,22-17.8c0-7.3-3.6-11.8-10.4-14.9c-6-2.7-6.7-3.1-6.7-5.5
			C173.2,159.5,175.9,157.3,180.1,157.3L180.1,157.3z"/>
		<path class="st0" d="M341.7,131.5l-2.4,14.2c-4.9-2.4-8.4-3.6-12.4-3.6c-10.4,0-17.8,10.2-17.8,24.6c0,10,4.9,16,13.1,16
			c3.3,0,7.3-1.1,11.8-3.3l-2.4,14.9c-5.1,1.3-8.4,2-12.2,2c-15.1,0-24.4-10.9-24.4-28.4c0-23.3,12.9-39.7,31.3-39.7
			c2.4,0,4.7,0.2,6.4,0.7l5.5,1.3C340,130.9,340.4,131.1,341.7,131.5L341.7,131.5z"/>
		<path class="st0" d="M296.9,141.3c-0.4,0-0.9,0-1.3,0c-4.7,0-7.3,2.2-11.5,8.7l1.3-8.2h-12.7L264,195h14
			c5.1-32.6,6.4-38.2,13.1-38.2c0.4,0,0.4,0,0.9,0c1.3-6.4,3.1-11.1,5.3-15.3L296.9,141.3L296.9,141.3z"/>
		<path class="st0" d="M216.5,194.4c-3.8,1.3-6.9,1.8-10,1.8c-7.1,0-11.1-4-11.1-11.8c0-1.3,0.2-3.1,0.4-4.7l0.9-5.3l0.7-4.2l6-36.4
			h13.8l-1.6,8h7.1l-1.8,13.1h-7.1l-3.8,22.2c-0.2,0.9-0.2,1.6-0.2,2.2c0,2.7,1.3,3.8,4.7,3.8c1.6,0,2.9,0,3.8-0.4L216.5,194.4
			L216.5,194.4z"/>
		<path class="st0" d="M163,158.6c0,6.7,3.1,11.3,10.4,14.9c5.8,2.7,6.7,3.6,6.7,5.8c0,3.3-2.4,4.9-8,4.9c-4.2,0-8-0.7-12.4-2
			l-2,12.2l0.7,0.2l2.4,0.4c0.9,0.2,2,0.4,3.8,0.4c3.1,0.4,5.8,0.4,7.5,0.4c14.7,0,21.5-5.6,21.5-17.8c0-7.3-2.9-11.5-9.8-14.9
			c-6-2.7-6.7-3.3-6.7-5.8c0-2.9,2.4-4.2,6.9-4.2c2.7,0,6.4,0.2,10,0.7l2-12.2c-3.6-0.7-9.1-1.1-12.2-1.1
			C168.4,140.6,162.8,148.9,163,158.6L163,158.6z"/>
		<path class="st0" d="M448.1,195H435l0.7-5.1c-3.8,4-7.8,5.8-12.9,5.8c-10.2,0-16.9-8.7-16.9-22c0-17.8,10.4-32.9,22.6-32.9
			c5.5,0,9.5,2.4,13.3,7.3l3.1-18.7h13.8L448.1,195L448.1,195z M427.6,182.6c6.4,0,10.9-7.6,10.9-18c0-6.9-2.4-10.4-7.3-10.4
			c-6.2,0-10.9,7.3-10.9,17.8C420.3,179.1,422.8,182.6,427.6,182.6L427.6,182.6z"/>
		<path class="st0" d="M259.1,193.9c-4.9,1.6-9.3,2.2-14.4,2.2c-15.5,0-23.5-8.2-23.5-24c0-18.2,10.2-31.7,24.2-31.7
			c11.5,0,18.9,7.5,18.9,19.3c0,4-0.4,7.8-1.8,13.3H235c-0.2,0.7-0.2,1.1-0.2,1.5c0,6.2,4.2,9.3,12.2,9.3c5.1,0,9.5-0.9,14.4-3.3
			L259.1,193.9L259.1,193.9z M251.4,162.2c0-1.1,0-2,0-2.7c0-4.4-2.4-6.9-6.7-6.9c-4.4,0-7.5,3.3-8.9,9.5L251.4,162.2L251.4,162.2z"
			/>
		<polygon class="st0" points="110,195 96.2,195 104.2,144.6 86.2,195 76.7,195 75.6,145.1 67.1,195 54.2,195 65.1,129.5 
			85.1,129.5 85.8,170.2 99.1,129.5 120.8,129.5 		"/>
		<path class="st0" d="M144.4,171.3c-1.3,0-2-0.2-3.1-0.2c-7.8,0-11.8,2.9-11.8,8.2c0,3.3,1.8,5.3,4.9,5.3
			C140.2,184.6,144.2,179.3,144.4,171.3L144.4,171.3z M154.6,195H143l0.2-5.6c-3.6,4.4-8.2,6.4-14.7,6.4c-7.5,0-12.7-5.8-12.7-14.4
			c0-13.1,8.9-20.6,24.4-20.6c1.6,0,3.6,0.2,5.8,0.4c0.4-1.8,0.4-2.4,0.4-3.3c0-3.6-2.4-4.9-8.9-4.9c-4,0-8.4,0.4-11.5,1.3l-2,0.7
			l-1.3,0.2l2-12c6.9-2,11.5-2.7,16.6-2.7c12,0,18.4,5.3,18.4,15.5c0,2.7-0.2,4.7-1.1,10.7l-3.1,18.9l-0.4,3.3l-0.2,2.7l-0.2,2
			L154.6,195L154.6,195z"/>
		<path class="st0" d="M364.2,171.3c-1.6,0-2.2-0.2-3.1-0.2c-8,0-12,2.9-12,8.2c0,3.3,2,5.3,5.1,5.3
			C359.7,184.6,363.9,179.3,364.2,171.3L364.2,171.3z M374.4,195h-11.5l0.2-5.6c-3.6,4.4-8.2,6.4-14.6,6.4
			c-7.5,0-12.7-5.8-12.7-14.4c0-13.1,8.9-20.6,24.4-20.6c1.6,0,3.6,0.2,5.6,0.4c0.4-1.8,0.7-2.4,0.7-3.3c0-3.6-2.4-4.9-8.9-4.9
			c-4,0-8.7,0.4-11.8,1.3L344,155l-1.3,0.2l2-12c6.9-2,11.5-2.7,16.6-2.7c12,0,18.2,5.3,18.2,15.5c0,2.7,0,4.7-1.1,10.7l-2.9,18.9
			L375,189l-0.4,2.7l-0.2,2V195L374.4,195z"/>
		<path class="st0" d="M411.7,141.3c-0.4,0-0.9,0-1.3,0c-4.7,0-7.3,2.2-11.5,8.7l1.3-8.2h-12.7L379,195h13.8
			c5.1-32.6,6.4-38.2,13.1-38.2c0.4,0,0.4,0,0.9,0c1.3-6.4,3.1-11.1,5.3-15.3L411.7,141.3L411.7,141.3z"/>
	</g>
</g>
</svg>
