<?xml version="1.0" encoding="utf-8"?>
<!-- Generator: Adobe Illustrator 22.0.1, SVG Export Plug-In . SVG Version: 6.00 Build 0)  -->
<svg version="1.1" id="Layer_1" xmlns="http://www.w3.org/2000/svg" xmlns:xlink="http://www.w3.org/1999/xlink" x="0px" y="0px"
	 viewBox="0 0 512 318.2" style="enable-background:new 0 0 512 318.2;" xml:space="preserve">
<style type="text/css">
	.st0{fill:#FFFFFF;}
	.st1{fill:#005098;}
	.st2{fill:#F6A500;}
</style>
<g>
	<g>
		<g id="XMLID_1_">
			<g>
				<path class="st0" d="M507,30.1V288c0,13.9-11.3,25.1-25.1,25.1H30.1C16.3,313.2,5,301.9,5,288V30.1C5,16.3,16.3,5,30.1,5h451.8
					C495.7,5,507,16.3,507,30.1z"/>
				<path class="st1" d="M511.9,30.1V288c0,16.6-13.5,30.1-30.1,30.1H30.1C13.5,318.1,0,304.6,0,288V30.1C0,13.5,13.5,0,30.1,0
					h451.8C498.5,0,512,13.5,511.9,30.1z M507,288V30.1C507,16.3,495.7,5,481.9,5H30.1C16.3,5,5,16.3,5,30.1V288
					c0,13.9,11.3,25.2,25.1,25.1h451.8C495.7,313.1,507,301.9,507,288z"/>
			</g>
			<g>
			</g>
		</g>
	</g>
	<g>
		<polygon class="st1" points="190,222.9 211.7,95.8 246.3,95.8 224.6,222.9 		"/>
		<path class="st1" d="M350.3,99c-6.9-2.6-17.6-5.3-31-5.3c-34.2,0-58.3,17.2-58.5,41.9c-0.2,18.3,17.2,28.5,30.4,34.5
			c13.5,6.2,18,10.2,18,15.8c-0.1,8.5-10.8,12.4-20.7,12.4c-13.9,0-21.2-1.9-32.6-6.7l-4.5-2l-4.9,28.5c8.1,3.5,23,6.6,38.6,6.8
			c36.4,0,60-17,60.3-43.4c0.1-14.4-9.1-25.4-29.1-34.5c-12.1-5.9-19.5-9.8-19.5-15.8c0-5.3,6.3-10.9,19.8-10.9
			c11.3-0.2,19.5,2.3,25.9,4.9l3.1,1.5L350.3,99L350.3,99z"/>
		<path class="st1" d="M439.1,95.9h-26.8c-8.3,0-14.5,2.3-18.1,10.5L342.8,223h36.4c0,0,5.9-15.7,7.3-19.1c4,0,39.3,0.1,44.4,0.1
			c1,4.4,4.2,19,4.2,19h32.2L439.1,95.9L439.1,95.9z M396.4,177.9c2.9-7.3,13.8-35.5,13.8-35.5c-0.2,0.3,2.8-7.4,4.6-12.1l2.3,11
			c0,0,6.6,30.3,8,36.7L396.4,177.9L396.4,177.9z"/>
		<path class="st1" d="M161,95.9l-34,86.7l-3.6-17.6c-6.3-20.3-26-42.3-48-53.3l31,111.1H143L197.5,96L161,95.9L161,95.9z"/>
		<path class="st2" d="M95.6,95.8H39.7l-0.4,2.6c43.5,10.5,72.2,35.9,84.1,66.5l-12.1-58.4C109.2,98.5,103.1,96.1,95.6,95.8
			L95.6,95.8z"/>
	</g>
</g>
</svg>
